<svg width="34" height="22" viewBox="0 0 34 22" fill="none" xmlns="http://www.w3.org/2000/svg">
<g opacity="0.01">
<path d="M33.8241 0H0.976562V21.725H33.8241V0Z" fill="white"/>
</g>
<path d="M21.7353 3.78125H13.0703V17.9338H21.7353V3.78125Z" fill="#878787"/>
<path d="M13.9596 10.8661C13.9575 8.10481 15.225 5.49591 17.3971 3.79106C13.7071 0.891089 8.40803 1.31351 5.22398 4.76146C2.03993 8.20941 2.03993 13.5253 5.22398 16.9732C8.40803 20.4212 13.7071 20.8436 17.3971 17.9436C15.2243 16.2382 13.9567 13.6282 13.9596 10.8661Z" fill="white"/>
<path fill-rule="evenodd" clip-rule="evenodd" d="M31.1022 16.1559V16.4563H31.0472V16.1559H30.9297V16.0938H31.2272V16.1559H31.1022ZM31.6797 16.0938V16.4563H31.6172V16.1818L31.5197 16.4174H31.4522L31.3547 16.1818V16.4563H31.2897V16.0938H31.3797L31.4847 16.3527L31.5897 16.0938H31.6797Z" fill="#F79E1B"/>
<path d="M31.9609 10.8617C31.9609 14.3076 29.9933 17.4509 26.8939 18.9567C23.7945 20.4625 20.1073 20.0665 17.3984 17.9367C19.5696 16.2305 20.8373 13.6219 20.8373 10.8605C20.8373 8.09906 19.5696 5.49051 17.3984 3.78421C20.1073 1.65451 23.7945 1.25846 26.8939 2.76426C29.9933 4.27006 31.9609 7.41341 31.9609 10.8592V10.8617Z" fill="#AEAEAE"/>
</svg>
