<svg width="35" height="16" viewBox="0 0 35 16" fill="none" xmlns="http://www.w3.org/2000/svg">
<path fill-rule="evenodd" clip-rule="evenodd" d="M8.96239 6.56272C8.98084 8.34739 10.7118 8.94118 10.731 8.94878C10.7164 8.99092 10.4545 9.79522 9.81909 10.6264C9.26984 11.3446 8.69949 12.0605 7.80179 12.0754C6.91929 12.0901 6.63559 11.6074 5.62659 11.6074C4.61794 11.6074 4.30249 12.0605 3.46724 12.0901C2.60059 12.1194 1.94039 11.3129 1.38649 10.5971C0.25464 9.13279 -0.61031 6.45958 0.55124 4.65503C1.12824 3.75889 2.15904 3.19133 3.27834 3.177C4.12944 3.16235 4.93299 3.68931 5.45354 3.68931C5.97339 3.68931 6.94999 3.05557 7.97649 3.14863C8.40619 3.16477 9.61234 3.30394 10.3868 4.31847C10.3241 4.35328 8.94719 5.07064 8.96239 6.56272ZM7.30374 2.17983C7.76379 1.68124 8.07394 0.987402 7.98939 0.296875C7.32584 0.320675 6.52359 0.692328 6.04804 1.19064C5.62129 1.63182 5.24809 2.33789 5.34884 3.01497C6.08829 3.06621 6.84364 2.67874 7.30374 2.17983Z" fill="white"/>
<path fill-rule="evenodd" clip-rule="evenodd" d="M13.9609 1.33187C14.3021 1.27881 14.6781 1.23117 15.0898 1.18865C15.5011 1.14614 15.9536 1.125 16.4478 1.125C17.1533 1.125 17.7615 1.20191 18.2727 1.35572C18.7844 1.50953 19.2044 1.72966 19.5332 2.01615C19.8156 2.27067 20.0365 2.57288 20.1949 2.92297C20.3533 3.27311 20.4322 3.67631 20.4322 4.13257C20.4322 4.68417 20.3239 5.16699 20.1063 5.58073C19.8891 5.99448 19.5924 6.34187 19.2161 6.62294C18.8395 6.90401 18.393 7.11331 17.8757 7.25145C17.3581 7.38925 16.794 7.45832 16.1825 7.45832C15.6301 7.45832 15.1659 7.42122 14.79 7.34702V11.9303H13.9609V1.33187ZM14.79 6.67903C14.9898 6.73181 15.2131 6.76891 15.46 6.79001C15.707 6.81115 15.9713 6.82169 16.2533 6.82169C17.3113 6.82169 18.1314 6.59881 18.7132 6.15343C19.295 5.70799 19.586 5.05541 19.586 4.19623C19.586 3.78248 19.5098 3.42147 19.3571 3.11389C19.2041 2.80598 18.9869 2.55417 18.7048 2.35784C18.4228 2.16151 18.0876 2.01316 17.6996 1.91213C17.3113 1.81137 16.8823 1.76102 16.4117 1.76102C16.0358 1.76102 15.7123 1.77432 15.442 1.80083C15.1716 1.82738 14.9541 1.85664 14.7897 1.88828L14.79 6.67903Z" fill="white"/>
<path fill-rule="evenodd" clip-rule="evenodd" d="M27.0226 10.1166C27.0226 10.4242 27.0283 10.7321 27.04 11.0397C27.0517 11.3473 27.0868 11.6441 27.1459 11.9306H26.37L26.2467 10.8485H26.2109C26.1053 10.9972 25.97 11.1456 25.8056 11.294C25.6411 11.4423 25.45 11.5777 25.2328 11.6999C25.0152 11.822 24.7683 11.92 24.4919 11.9942C24.2156 12.0681 23.9131 12.1055 23.584 12.1055C23.1726 12.1055 22.8107 12.0443 22.4989 11.9227C22.1875 11.8006 21.9318 11.6413 21.732 11.4453C21.5322 11.2487 21.3825 11.0234 21.2826 10.7689C21.1826 10.5144 21.1328 10.2599 21.1328 10.005C21.1328 9.10333 21.5529 8.40851 22.3933 7.92029C23.2341 7.43206 24.501 7.19891 26.1942 7.22005V7.01313C26.1942 6.81139 26.1735 6.58039 26.1324 6.32046C26.0909 6.06048 26 5.8138 25.8587 5.5807C25.7177 5.3476 25.5061 5.15127 25.2241 4.99233C24.9421 4.8331 24.5598 4.75349 24.0779 4.75349C23.7133 4.75349 23.3521 4.80384 22.9935 4.90459C22.6349 5.0053 22.3088 5.14581 22.0151 5.32618L21.7504 4.76917C22.1263 4.53607 22.5146 4.369 22.914 4.26825C23.314 4.16754 23.731 4.11719 24.1661 4.11719C24.7539 4.11719 25.2331 4.20735 25.6034 4.38767C25.9736 4.56803 26.2647 4.80141 26.4762 5.08762C26.6878 5.37411 26.8321 5.69499 26.9083 6.05054C26.9845 6.40609 27.0233 6.75894 27.0233 7.10875V10.1166H27.0226ZM26.1939 7.84095C25.7467 7.83013 25.2792 7.84609 24.7913 7.8886C24.3038 7.93083 23.854 8.02403 23.4426 8.16697C23.0309 8.31023 22.6904 8.51981 22.4201 8.79575C22.1497 9.07169 22.0144 9.43747 22.0144 9.89377C22.0144 10.4345 22.1848 10.8326 22.526 11.0871C22.8665 11.3416 23.2485 11.4691 23.6719 11.4691C24.0127 11.4691 24.3185 11.427 24.5888 11.3416C24.8592 11.2566 25.0938 11.1426 25.2939 10.9996C25.4941 10.8567 25.6612 10.6947 25.7965 10.5144C25.9322 10.3337 26.0348 10.1486 26.1056 9.9571C26.1645 9.74477 26.1942 9.591 26.1942 9.4951L26.1939 7.84095Z" fill="white"/>
<path fill-rule="evenodd" clip-rule="evenodd" d="M28.6478 4.28934L30.7985 9.25444C30.9165 9.53038 31.0281 9.81416 31.1341 10.1061C31.24 10.3974 31.3339 10.6658 31.4161 10.9094H31.4515C31.5341 10.6763 31.6276 10.4136 31.7336 10.1217C31.8395 9.83012 31.9571 9.53038 32.0861 9.22215L34.0968 4.28906H34.978L32.5276 9.89102C32.2803 10.4849 32.0483 11.0238 31.8308 11.5062C31.6136 11.9891 31.3927 12.4239 31.1695 12.8111C30.9459 13.1984 30.72 13.5404 30.4901 13.8377C30.2612 14.1344 30.0049 14.3947 29.7232 14.6173C29.3944 14.8823 29.0913 15.0762 28.8149 15.1984C28.5389 15.3205 28.3538 15.3974 28.2595 15.4291L27.9768 14.8085C28.1887 14.7234 28.4239 14.6121 28.6826 14.4743C28.9412 14.3362 29.1942 14.1562 29.4408 13.9333C29.6527 13.7424 29.8849 13.4906 30.1376 13.1772C30.3902 12.8645 30.6164 12.4852 30.8166 12.0394C30.8871 11.8696 30.9225 11.7581 30.9225 11.705C30.9225 11.6311 30.8874 11.5195 30.8166 11.3709L27.7656 4.28906L28.6478 4.28934Z" fill="white"/>
</svg>
