<svg width="32" height="11" viewBox="0 0 32 11" fill="none" xmlns="http://www.w3.org/2000/svg">
<path fill-rule="evenodd" clip-rule="evenodd" d="M11.375 10.6386L12.9124 1.10156H15.3698L13.8326 10.6386H11.375Z" fill="white"/>
<path fill-rule="evenodd" clip-rule="evenodd" d="M22.7488 1.33765C22.2629 1.14625 21.4987 0.9375 20.5467 0.9375C18.1171 0.9375 16.4069 2.23175 16.3927 4.085C16.3773 5.4558 17.6131 6.22035 18.5448 6.67595C19.5024 7.143 19.8242 7.4419 19.8204 7.8595C19.8138 8.4982 19.056 8.7909 18.3495 8.7909C17.3656 8.7909 16.8429 8.6468 16.0347 8.29075L15.7186 8.1389L15.375 10.2737C15.948 10.5393 17.0103 10.7699 18.1128 10.782C20.6949 10.782 22.3727 9.50345 22.3923 7.5244C22.4012 6.43735 21.7464 5.61345 20.3282 4.93315C19.4694 4.4909 18.9423 4.19795 18.9484 3.75035C18.9489 3.354 19.3936 2.92965 20.3561 2.92965C21.16 2.91665 21.7419 3.1023 22.1953 3.2961L22.416 3.4051L22.7488 1.33765Z" fill="white"/>
<path fill-rule="evenodd" clip-rule="evenodd" d="M26.0237 7.26324C26.2273 6.71509 27.0026 4.59749 27.0026 4.59749C26.9883 4.62269 27.2052 4.04509 27.3293 3.68759L27.4951 4.51014C27.4951 4.51014 27.9667 6.78649 28.0638 7.26324C27.6812 7.26324 26.5035 7.26324 26.0237 7.26324ZM29.0554 1.11719H27.1562C26.5672 1.11719 26.1263 1.28594 25.8682 1.90774L22.2188 10.6479H24.7999C24.7999 10.6479 25.221 9.47209 25.3165 9.21409C25.5981 9.21409 28.1061 9.21904 28.4641 9.21904C28.5377 9.55184 28.7633 10.6479 28.7633 10.6479H31.0442L29.0554 1.11719Z" fill="white"/>
<path fill-rule="evenodd" clip-rule="evenodd" d="M9.3171 1.10938L6.91185 7.61132L6.6542 6.28963C6.206 4.76683 4.8107 3.11627 3.25 2.28922L5.4505 10.6301L8.0513 10.6285L11.9213 1.10938H9.3171Z" fill="white"/>
<path fill-rule="evenodd" clip-rule="evenodd" d="M4.67519 1.10156H0.712288L0.679688 1.29916C3.76329 2.08916 5.80354 3.99606 6.65039 6.28831L5.78924 1.90621C5.64064 1.30181 5.20889 1.12266 4.67519 1.10156Z" fill="#AEAEAE"/>
</svg>
