<svg width="61" height="61" viewBox="0 0 61 61" fill="none" xmlns="http://www.w3.org/2000/svg">
<path opacity="0.6" d="M53.4953 37.7757C53.5915 37.2938 53.9763 37.0047 54.4574 36.9084L58.4022 36.5229C59.8454 36.3302 61 35.0774 61 33.6319V27.4645C61 26.019 59.8454 24.7662 58.4022 24.5735L54.4574 24.188C53.9763 24.0916 53.5915 23.8025 53.4953 23.3207C53.1104 21.9716 52.5331 20.6224 51.8596 19.466C51.6672 19.0806 51.6672 18.5024 51.9558 18.2133L54.4574 15.1295C55.4196 13.9731 55.3233 12.3349 54.265 11.2749L49.8391 6.84202C48.7808 5.78199 47.1451 5.68563 45.9905 6.64929L42.9117 9.15482C42.5268 9.34755 42.0457 9.34755 41.6609 9.15482C40.4101 8.48025 39.1593 7.99842 37.8123 7.51659C37.3312 7.42022 37.0426 7.03476 36.9464 6.55292L36.4653 2.6019C36.2729 1.1564 35.0221 0 33.5789 0H27.4211C25.9779 0 24.7271 1.1564 24.5347 2.6019L24.1498 6.55292C24.0536 7.03476 23.765 7.42022 23.2839 7.51659C21.9369 7.90206 20.5899 8.48025 19.4353 9.15482C19.0505 9.34755 18.4732 9.34755 18.1845 9.05845L15.1057 6.55292C13.9511 5.58926 12.3155 5.68562 11.2571 6.74566L6.83123 11.1785C5.77287 12.2385 5.67666 13.8768 6.6388 15.0332L9.14038 18.1169C9.42902 18.5024 9.42902 18.9842 9.23659 19.3697C8.56309 20.6224 8.08202 21.8752 7.60095 23.2243C7.50473 23.7062 7.11988 23.9953 6.6388 24.0916L2.59779 24.5735C1.15457 24.7662 0 26.019 0 27.4645V33.6319C0 35.0774 1.15457 36.3302 2.59779 36.5229L6.54259 36.9084C7.02366 37.0047 7.40852 37.2938 7.50473 37.7757C7.88959 39.1248 8.46688 40.4739 9.14038 41.6303C9.33281 42.0158 9.33281 42.594 9.04417 42.8831L6.54259 45.9668C5.58044 47.1232 5.67666 48.7615 6.73502 49.8215L11.1609 54.2543C12.2192 55.3144 13.8549 55.4107 15.0095 54.4471L18.0883 51.9415C18.4732 51.6524 18.9543 51.6525 19.3391 51.8452C20.5899 52.5197 21.8407 53.0016 23.1877 53.4834C23.6688 53.5798 23.9574 53.9652 24.0536 54.4471L24.4385 58.3981C24.6309 59.8436 25.8817 61 27.3249 61H33.4827C34.9259 61 36.1767 59.8436 36.3691 58.3981L36.7539 54.4471C36.8502 53.9652 37.1388 53.5798 37.6199 53.4834C38.9669 53.098 40.3139 52.5197 41.4685 51.8452C41.8533 51.6525 42.4306 51.6524 42.7192 51.9415L45.7981 54.4471C46.9527 55.4107 48.5883 55.3144 49.6467 54.2543L54.0726 49.8215C55.1309 48.7615 55.2271 47.1232 54.265 45.9668L51.7634 42.8831C51.6672 42.594 51.6672 42.1122 51.8596 41.7267C52.5331 40.4739 53.0142 39.1248 53.4953 37.7757ZM30.5 42.3049C24.0536 42.3049 18.7618 37.0047 18.7618 30.5482C18.7618 24.0916 24.0536 18.7915 30.5 18.7915C36.9464 18.7915 42.2382 24.0916 42.2382 30.5482C42.2382 37.0047 36.9464 42.3049 30.5 42.3049Z" fill="white"/>
</svg>
