<svg width="19" height="14" viewBox="0 0 19 14" fill="none" xmlns="http://www.w3.org/2000/svg">
<path d="M16.4851 5.7882C17.0249 5.37648 17.3749 4.72884 17.3749 3.99995C17.3749 2.75936 16.3655 1.75 15.125 1.75C13.8844 1.75 12.875 2.75936 12.875 3.99995C12.875 4.73198 13.2281 5.38116 13.7703 5.7921C13.7133 5.81788 13.6539 5.83897 13.5984 5.86788C13.4148 5.96319 13.343 6.18975 13.4383 6.37333C13.5336 6.5577 13.7609 6.62878 13.9437 6.53348C14.3023 6.34754 14.7109 6.2491 15.1249 6.2491C16.5718 6.2491 17.7499 7.42642 17.7499 8.87405V10.374C17.7499 10.9943 17.2452 11.499 16.6249 11.499H14.7273C14.5203 11.499 14.3523 11.667 14.3523 11.874C14.3523 12.081 14.5203 12.249 14.7273 12.249H16.6249C17.6585 12.249 18.4999 11.4076 18.4999 10.374V8.87405C18.4999 7.49674 17.6702 6.3117 16.4851 5.78731L16.4851 5.7882ZM13.6249 3.99995C13.6249 3.17263 14.2976 2.49998 15.1249 2.49998C15.9522 2.49998 16.6249 3.17263 16.6249 3.99995C16.6249 4.82728 15.9522 5.49992 15.1249 5.49992C14.2976 5.49992 13.6249 4.82728 13.6249 3.99995Z" fill="black"/>
<path d="M5.56156 6.37332C5.65687 6.18973 5.585 5.96317 5.40141 5.86788C5.34594 5.83897 5.28657 5.81709 5.22954 5.7921C5.77249 5.38116 6.12484 4.73196 6.12484 3.99995C6.12484 2.75936 5.11548 1.75 3.87489 1.75C2.63429 1.75 1.62494 2.75936 1.62494 3.99995C1.62494 4.72962 1.97571 5.37726 2.51476 5.7882C1.32962 6.3124 0.5 7.49754 0.5 8.87493V10.3749C0.5 11.4085 1.34138 12.2499 2.37496 12.2499H4.27258C4.47962 12.2499 4.64757 12.0819 4.64757 11.8749C4.64757 11.6678 4.47961 11.4999 4.27258 11.4999H2.37496C1.75465 11.4999 1.24998 10.9952 1.24998 10.3749V8.87493C1.24998 7.4273 2.42808 6.24999 3.87493 6.24999C4.28898 6.24999 4.69757 6.34842 5.05614 6.53436C5.23895 6.62889 5.4663 6.5578 5.56159 6.37421L5.56156 6.37332ZM2.37483 3.99918C2.37483 3.17185 3.04748 2.49921 3.8748 2.49921C4.70212 2.49921 5.37477 3.17185 5.37477 3.99918C5.37477 4.8265 4.70212 5.49914 3.8748 5.49914C3.04748 5.49914 2.37483 4.8265 2.37483 3.99918Z" fill="black"/>
<path d="M10.9905 5.4077C11.6749 4.93349 12.1249 4.14367 12.1249 3.24994C12.1249 1.80232 10.9468 0.625 9.49993 0.625C8.05308 0.625 6.87499 1.80232 6.87499 3.24994C6.87499 4.14369 7.32498 4.93351 8.00934 5.4077C6.47032 6.00691 5.375 7.50146 5.375 9.24982V11.4998C5.375 12.5333 6.21638 13.3747 7.24996 13.3747H11.7499C12.7834 13.3747 13.6248 12.5333 13.6248 11.4998V9.24982C13.6248 7.50142 12.5296 6.00689 10.9905 5.4077ZM7.62499 3.24994C7.62499 2.21637 8.46637 1.37498 9.49995 1.37498C10.5335 1.37498 11.3749 2.21637 11.3749 3.24994C11.3749 4.28352 10.5335 5.12491 9.49995 5.12491C8.46637 5.12491 7.62499 4.28352 7.62499 3.24994ZM12.8749 11.4998C12.8749 12.1201 12.3702 12.6247 11.7499 12.6247H7.25C6.62969 12.6247 6.12502 12.1201 6.12502 11.4998V9.24982C6.12502 7.38892 7.63905 5.87489 9.49995 5.87489C11.3609 5.87489 12.8749 7.38892 12.8749 9.24982V11.4998Z" fill="black"/>
</svg>
