<svg width="82" height="16" viewBox="0 0 82 16" fill="none" xmlns="http://www.w3.org/2000/svg">
<path fill-rule="evenodd" clip-rule="evenodd" d="M46.835 9.09184H45.247C45.0902 9.0833 44.9668 8.9525 44.9649 8.79248V0.448873C44.9818 0.290332 45.1147 0.171506 45.2709 0.175445H46.749C46.8836 0.179876 46.9988 0.275231 47.031 0.408497V1.68454H47.062C47.5077 0.543734 48.1326 0 49.2327 0C49.9463 0 50.643 0.26325 51.0928 0.982595C51.5089 1.65008 51.5089 2.77349 51.5089 3.58064V8.8299C51.4856 8.98303 51.3548 9.09495 51.2029 9.09184H49.6008C49.457 9.08544 49.3382 8.97515 49.3187 8.8299V4.29982C49.3187 4.22892 49.3193 4.15539 49.32 4.08022C49.3275 3.18822 49.3374 2.05283 48.3215 2.05283C47.9125 2.07203 47.5521 2.33299 47.3991 2.72031C47.1764 3.22958 47.1467 3.73885 47.1467 4.30277V8.79248C47.1406 8.96185 47.0011 9.09495 46.835 9.09184ZM40.1077 0.0114885C42.4728 0.0114885 43.752 2.08303 43.752 4.71554C43.752 7.26041 42.3417 9.27877 40.1077 9.27877C37.7877 9.27877 36.5239 7.20723 36.5239 4.6279C36.5239 2.04856 37.8031 0.0114885 40.1077 0.0114885ZM40.1231 1.71474C38.9483 1.71474 38.8735 3.34611 38.8735 4.36465V4.39829C38.8733 5.43029 38.8732 7.55812 40.1077 7.55812C41.3558 7.55812 41.4023 5.80317 41.4023 4.73294C41.4023 4.03082 41.3727 3.1879 41.164 2.52173C40.9849 1.94632 40.6281 1.71474 40.1231 1.71474ZM10.6651 9.10907H9.0728C8.92509 9.10119 8.80518 8.98434 8.79074 8.83417V0.49056C8.79609 0.32332 8.93138 0.191038 9.09537 0.192843H10.5804C10.7326 0.201378 10.8542 0.32529 10.8625 0.480549V1.56949H10.8921C11.2786 0.515014 12.0078 0.0244544 12.9894 0.0244544C13.971 0.0244544 14.6099 0.515014 15.057 1.56949C15.3554 0.757914 16.0598 0.173804 16.8994 0.0410297C17.7391 -0.0915804 18.5836 0.247988 19.1088 0.929256C19.5421 1.52994 19.5282 2.36663 19.5152 3.15244C19.5131 3.28489 19.5108 3.41635 19.5108 3.54453V8.80823C19.5093 8.8898 19.4761 8.96743 19.4184 9.02389C19.3606 9.08019 19.2833 9.11087 19.2034 9.10907H17.6111C17.4545 9.1007 17.3311 8.96973 17.3289 8.80971V4.38762C17.3289 4.32066 17.3301 4.23433 17.3314 4.13635C17.3365 3.72129 17.3444 3.09533 17.284 2.82535C17.1655 2.26422 16.8087 2.10601 16.3475 2.10601C15.9247 2.1193 15.5503 2.38797 15.3954 2.78941C15.2434 3.18199 15.2448 3.81418 15.2457 4.28259L15.2459 4.38762V8.80823C15.2444 8.88964 15.2114 8.96694 15.154 9.02323C15.0965 9.07969 15.0196 9.11055 14.9398 9.10907H13.3434C13.187 9.09988 13.0639 8.9694 13.0613 8.80971V4.38762C13.0613 4.29703 13.0626 4.20233 13.0641 4.10501C13.0767 3.20299 13.0925 2.08598 12.0741 2.08598C10.9723 2.08598 10.9733 3.35727 10.974 4.31837V4.38762V8.80823C10.9725 8.8898 10.9392 8.96743 10.8814 9.02389C10.8238 9.08019 10.7449 9.11087 10.6651 9.10907ZM5.9249 9.21115C6.04586 9.28058 6.19659 9.26498 6.30146 9.17226L6.31415 9.17521C6.63148 8.88603 7.20972 8.37381 7.53552 8.09628C7.65963 7.98828 7.63706 7.80857 7.53552 7.66464C7.50454 7.62114 7.47335 7.57847 7.44237 7.53613C7.18125 7.17917 6.9333 6.83993 6.9333 6.15849V3.62807C6.9333 3.54683 6.93371 3.46625 6.9341 3.38599V3.38435C6.93893 2.40717 6.94336 1.51304 6.22811 0.830127C5.61885 0.231576 4.60622 0.0214994 3.83051 0.0214994C2.31439 0.0214994 0.621971 0.598387 0.267961 2.50892C0.253289 2.58623 0.270324 2.66632 0.315097 2.73033C0.359869 2.7945 0.428472 2.83717 0.504903 2.84833L2.03655 3.01951C2.18613 2.99637 2.30182 2.8736 2.31863 2.72031C2.45119 2.06284 2.99277 1.74494 3.60063 1.74494C3.93066 1.74494 4.30016 1.86721 4.49479 2.1664C4.69455 2.46691 4.69145 2.86556 4.68866 3.22384C4.68833 3.2652 4.68801 3.30606 4.68801 3.34611V3.55618C4.54318 3.57276 4.39138 3.58868 4.23502 3.60493C3.3941 3.69241 2.42142 3.79367 1.69242 4.12011C0.705181 4.56028 0 5.45638 0 6.77559C0 8.46457 1.04366 9.30897 2.38491 9.30897C3.51742 9.30897 4.13657 9.03702 5.0124 8.12779C5.05461 8.19065 5.09271 8.24858 5.12865 8.30323C5.33757 8.62114 5.47363 8.82809 5.9249 9.21115ZM4.69512 5.28931L4.69507 5.21053V4.86095C3.54281 4.86095 2.32567 5.11271 2.32567 6.49659C2.32567 7.20149 2.6825 7.67612 3.29318 7.67612C3.74167 7.67612 4.14362 7.39417 4.39749 6.93676C4.69616 6.39499 4.69568 5.88753 4.69512 5.28931ZM28.4171 7.65889C28.3861 7.61524 28.3549 7.57257 28.3239 7.53006C28.0628 7.17309 27.815 6.83418 27.815 6.15423V3.62232C27.815 3.53583 27.8155 3.44983 27.816 3.36449C27.8215 2.3924 27.8265 1.50384 27.1098 0.824217C26.4991 0.22583 25.4864 0.0157551 24.7123 0.0157551C23.1961 0.0157551 21.5037 0.591331 21.1482 2.50302C21.1331 2.58081 21.1502 2.66156 21.1953 2.72606C21.2404 2.79056 21.3095 2.83323 21.3867 2.84406L22.9309 3.01376C23.0802 2.99013 23.1958 2.86769 23.213 2.71457C23.3469 2.0571 23.8857 1.7392 24.4937 1.7392C24.8222 1.7392 25.1987 1.86294 25.3878 2.16214C25.5888 2.46149 25.5859 2.86031 25.5831 3.21859C25.5828 3.25978 25.5824 3.30048 25.5824 3.34036V3.54601C25.4405 3.56226 25.2919 3.57752 25.139 3.59328C24.2956 3.68026 23.3174 3.78103 22.5867 4.10845C21.5882 4.54879 20.8874 5.44489 20.8874 6.76558C20.8874 8.45291 21.9311 9.29748 23.2723 9.29748C24.4006 9.29748 25.0239 9.02553 25.8984 8.1163C25.9397 8.17784 25.9771 8.23463 26.0123 8.28813C26.2241 8.61014 26.3591 8.81496 26.8122 9.19967C26.9332 9.2686 27.0833 9.25366 27.1889 9.16224C27.5061 8.87454 28.0843 8.36084 28.4101 8.08331C28.547 7.98402 28.5243 7.80857 28.4171 7.65889ZM25.2862 6.92954C25.0338 7.38563 24.6304 7.66759 24.1833 7.66759C23.5726 7.66759 23.2158 7.19279 23.2158 6.48936C23.2158 5.10401 24.4329 4.85373 25.5852 4.85373V5.20479V5.26928C25.5856 5.87506 25.5859 6.38482 25.2862 6.92954ZM29.7656 1.65008V0.461839C29.7618 0.380435 29.792 0.301328 29.8488 0.24405C29.9056 0.186607 29.9834 0.156572 30.0631 0.161167H35.2997C35.3793 0.158377 35.4566 0.188904 35.5136 0.24569C35.5705 0.302476 35.6024 0.380599 35.6016 0.461839V1.48464C35.6016 1.65582 35.4606 1.88018 35.208 2.23402L32.4946 6.18443C33.5015 6.15997 34.5663 6.31392 35.4816 6.83894C35.6506 6.93085 35.7585 7.10826 35.7637 7.30357V8.58109C35.7637 8.75654 35.5761 8.95939 35.3774 8.85435C33.6403 7.94364 31.5783 7.94742 29.8445 8.86437C29.6625 8.96366 29.4721 8.76376 29.4721 8.58815V7.37267C29.4555 7.08611 29.5233 6.80103 29.6668 6.55403L32.8105 1.95075H30.0687C29.9889 1.95387 29.9113 1.9235 29.8539 1.86672C29.7966 1.80977 29.7647 1.73148 29.7656 1.65008ZM57.4437 1.22139C57.844 0.861309 58.3014 0.573276 58.7962 0.369765C59.2638 0.179549 59.7625 0.0820595 60.2657 0.0820595C60.7661 0.0725404 61.2623 0.174625 61.7199 0.381254C62.151 0.582795 62.5286 0.886748 62.8214 1.26735C63.14 1.68914 63.3757 2.16985 63.5152 2.68289C63.6844 3.29097 63.7661 3.92103 63.7579 4.55306C63.7655 5.19855 63.678 5.84158 63.4983 6.46064C63.3479 6.98583 63.1014 7.47737 62.772 7.90918C62.4661 8.30192 62.0776 8.6195 61.6353 8.83843C61.1705 9.05852 60.6624 9.16733 60.1502 9.1565C59.1927 9.17258 58.2659 8.81201 57.5622 8.14945V12.1429C57.5756 12.2369 57.5448 12.3318 57.479 12.3989C57.4131 12.466 57.3201 12.4975 57.2278 12.4839H56.2407C56.1486 12.4975 56.0555 12.466 55.9897 12.3989C55.9237 12.3318 55.8929 12.2369 55.9063 12.1429V0.676182C55.8935 0.582304 55.9246 0.487768 55.9904 0.420806C56.056 0.353844 56.1487 0.322172 56.2407 0.335137H56.9754C57.0713 0.326111 57.1668 0.357294 57.2395 0.421629C57.3122 0.486129 57.3559 0.578037 57.3605 0.676182L57.4437 1.22139ZM59.799 1.44296C58.9892 1.44936 58.2035 1.72459 57.5607 2.22696V6.97418C58.2735 7.52086 59.0082 7.79364 59.7652 7.79265C61.3015 7.79265 62.0696 6.73768 62.0696 4.6279C62.0696 2.51795 61.3128 1.45723 59.799 1.44296ZM65.8437 1.86294L65.9693 1.81978C66.7636 1.57015 67.5893 1.43935 68.4204 1.4313C69.0889 1.43229 69.5568 1.55751 69.8238 1.80681C70.0909 2.05611 70.2243 2.48775 70.2243 3.10157V4.22071C69.5365 4.04067 68.8301 3.94417 68.1201 3.93301C67.1403 3.93202 66.3609 4.17902 65.7817 4.67385C65.2025 5.16868 64.913 5.83041 64.913 6.65906C64.9148 7.43109 65.1498 8.04737 65.6181 8.50757C66.0863 8.96793 66.721 9.19819 67.522 9.19819C68.0173 9.19605 68.5079 9.0984 68.9676 8.91048C69.4526 8.71731 69.9015 8.44093 70.2949 8.09332L70.3794 8.65577C70.3837 8.74932 70.4253 8.83679 70.4946 8.89801C70.564 8.95923 70.6549 8.98861 70.7462 8.97942H71.4654C71.5575 8.99255 71.65 8.96087 71.7158 8.89391C71.7815 8.82695 71.8125 8.73241 71.7997 8.63853V2.81813C71.7987 1.88592 71.5476 1.19874 71.0465 0.756764C70.5453 0.31462 69.7659 0.0935479 68.7081 0.0935479C68.1818 0.0935479 67.6564 0.141637 67.1385 0.23732C66.6863 0.31101 66.2439 0.437055 65.8198 0.612829C65.7172 0.648279 65.6253 0.710153 65.5532 0.792706C65.4984 0.893969 65.4748 1.00984 65.4855 1.12489V1.58098C65.4855 1.78663 65.5616 1.88887 65.7028 1.88887C65.7508 1.88805 65.7984 1.87935 65.8437 1.86294ZM69.0763 7.70206C68.7075 7.84254 68.3177 7.91706 67.924 7.92214C67.4897 7.92313 67.1554 7.8071 66.9212 7.57404C66.6871 7.34099 66.5701 7.00864 66.5701 6.57717C66.5691 5.58834 67.1986 5.094 68.4585 5.094C68.757 5.09449 69.0553 5.11468 69.3513 5.1544C69.6463 5.19231 69.939 5.24598 70.2286 5.3154V7.05476C69.8787 7.32852 69.4902 7.5468 69.0763 7.70206ZM76.1901 12.176C76.585 11.8346 76.9334 11.272 77.2352 10.4885L80.9106 0.947966C80.9713 0.818803 81.0108 0.680285 81.0276 0.537991C81.0276 0.402755 80.95 0.333823 80.7936 0.333823H79.8584C79.73 0.321185 79.601 0.350892 79.4903 0.418674C79.3961 0.52601 79.3278 0.654682 79.2915 0.794021L77.0348 7.40434L74.6951 0.794021C74.6587 0.654682 74.5906 0.52601 74.4962 0.418674C74.3856 0.350892 74.2566 0.321185 74.1281 0.333823H73.1255C72.9702 0.333823 72.8927 0.402755 72.8927 0.537991C72.9088 0.680285 72.9479 0.818803 73.0083 0.947966L76.2267 9.06295L75.9095 9.92607C75.7204 10.4718 75.5088 10.8468 75.2748 11.051C74.9928 11.2714 74.6421 11.3802 74.2876 11.3574C74.1368 11.3607 73.9861 11.3492 73.8376 11.3229C73.755 11.3049 73.671 11.2937 73.5867 11.2898C73.4188 11.2898 73.3355 11.3977 73.3355 11.6136V12.0565C73.3262 12.1786 73.3554 12.3006 73.4188 12.4046C73.4882 12.4873 73.5824 12.5445 73.6868 12.5673C73.9973 12.6508 74.3175 12.691 74.6387 12.6866C75.2781 12.6876 75.7952 12.5174 76.1901 12.176Z" fill="white"/>
<path fill-rule="evenodd" clip-rule="evenodd" d="M32.3848 14.4145C32.7473 13.4953 33.554 11.4352 33.1704 10.9359H33.1732C32.7913 10.4357 30.6475 10.6983 29.6833 10.8163L29.6812 10.8166C29.3879 10.8526 29.3428 10.5923 29.6065 10.4037C31.3186 9.17673 34.1238 9.52762 34.4496 9.94203C34.7754 10.3563 34.3608 13.2248 32.7571 14.5942C32.5103 14.8043 32.2748 14.692 32.3848 14.4145ZM20.8636 15.8328C24.5926 15.8328 28.9351 14.6316 31.9265 12.3804V12.3846C32.4215 12.0049 31.9969 11.4467 31.4921 11.6653C28.2269 13.0702 24.7219 13.8035 21.1782 13.8232C16.2616 13.8232 11.506 12.448 7.65853 10.1649C7.32146 9.96501 7.0704 10.3174 7.35247 10.5749C11.0565 13.9837 15.875 15.8588 20.8636 15.8328Z" fill="#FF9900"/>
</svg>
