<svg width="42" height="16" viewBox="0 0 42 16" fill="none" xmlns="http://www.w3.org/2000/svg">
<mask id="path-1-inside-1_1784_1892" fill="white">
<path d="M34.8709 15.9905C36.8067 15.9905 37.7178 15.3051 38.5136 13.2277L42 4.1541H39.9814L37.6435 11.174H37.6025L35.2646 4.16361H33.1888L36.5522 12.7998L36.3721 13.3251C36.2448 14.077 35.5173 14.6134 34.6985 14.558C34.5422 14.558 34.2391 14.5429 34.1161 14.5279V15.954C34.3663 15.9857 34.619 16.0008 34.8709 16V15.9905ZM28.1441 11.4465C27.0852 11.4465 26.4132 10.9712 26.4132 10.2517C26.4132 9.50617 27.0613 9.07199 28.3003 9.00305L30.5068 8.87391V9.5442C30.4581 10.6487 29.4531 11.5083 28.2627 11.4632C28.2226 11.4616 28.1833 11.4584 28.1441 11.4553V11.4465ZM27.6112 12.8545C28.8126 12.8846 29.9364 12.3038 30.54 11.3396H30.581V12.7657H32.4186V6.85905C32.4186 5.14607 30.9422 4.04238 28.6692 4.04238C26.561 4.04238 25.0018 5.16113 24.9446 6.69901H26.7334C26.9469 5.91699 27.7479 5.4012 28.612 5.48835C29.8262 5.48835 30.5068 6.01366 30.5068 6.98028V7.63473L28.0305 7.7718C25.725 7.90095 24.4783 8.77645 24.4783 10.2993C24.4766 11.8435 25.7643 12.8632 27.6104 12.8632L27.6112 12.8545ZM16.9625 2.44904H19.2509C20.974 2.44904 21.9585 3.30157 21.9585 4.80142C21.9585 6.30127 20.974 7.16093 19.2432 7.16093H16.9625V2.44904ZM14.9772 0.896106V12.7634H16.9625V8.71782H19.7111C21.95 8.82954 23.8618 7.2362 23.9822 5.15875C23.9891 5.0407 23.9899 4.92343 23.9848 4.80538C24.0907 2.75091 22.3821 1.00624 20.1679 0.907198C20.0373 0.901652 19.9075 0.902445 19.7769 0.907991L14.9772 0.896106ZM8.3878 3.11062C7.24701 3.04961 6.27102 3.71199 5.72966 3.71199C5.1883 3.71199 4.3515 3.14152 3.44894 3.15737C2.25351 3.18589 1.16395 3.79993 0.585877 4.77131C-0.644567 6.73545 0.265672 9.64324 1.45513 11.2413C2.03748 12.0337 2.73595 12.9012 3.65388 12.8703C4.52313 12.8402 4.86809 12.345 5.91837 12.345C6.96864 12.345 7.28031 12.8703 8.19909 12.8545C9.15031 12.8394 9.74974 12.0622 10.3338 11.2699C10.7454 10.7089 11.0656 10.0949 11.285 9.44754C10.1639 8.99275 9.43722 7.96829 9.43124 6.83291C9.44832 5.83142 10.0136 4.90759 10.9324 4.38228C10.3466 3.61057 9.40648 3.13677 8.3895 3.10349L8.3878 3.11062ZM7.67566 2.06239C7.17614 2.64633 6.41191 2.98147 5.60841 2.968C5.55718 2.24066 5.82359 1.5252 6.34702 0.981676C6.86789 0.420718 7.60222 0.0689312 8.39633 0C8.45269 0.747944 8.19396 1.48638 7.67395 2.06001"/>
</mask>
<path d="M34.8709 15.9905C36.8067 15.9905 37.7178 15.3051 38.5136 13.2277L42 4.1541H39.9814L37.6435 11.174H37.6025L35.2646 4.16361H33.1888L36.5522 12.7998L36.3721 13.3251C36.2448 14.077 35.5173 14.6134 34.6985 14.558C34.5422 14.558 34.2391 14.5429 34.1161 14.5279V15.954C34.3663 15.9857 34.619 16.0008 34.8709 16V15.9905ZM28.1441 11.4465C27.0852 11.4465 26.4132 10.9712 26.4132 10.2517C26.4132 9.50617 27.0613 9.07199 28.3003 9.00305L30.5068 8.87391V9.5442C30.4581 10.6487 29.4531 11.5083 28.2627 11.4632C28.2226 11.4616 28.1833 11.4584 28.1441 11.4553V11.4465ZM27.6112 12.8545C28.8126 12.8846 29.9364 12.3038 30.54 11.3396H30.581V12.7657H32.4186V6.85905C32.4186 5.14607 30.9422 4.04238 28.6692 4.04238C26.561 4.04238 25.0018 5.16113 24.9446 6.69901H26.7334C26.9469 5.91699 27.7479 5.4012 28.612 5.48835C29.8262 5.48835 30.5068 6.01366 30.5068 6.98028V7.63473L28.0305 7.7718C25.725 7.90095 24.4783 8.77645 24.4783 10.2993C24.4766 11.8435 25.7643 12.8632 27.6104 12.8632L27.6112 12.8545ZM16.9625 2.44904H19.2509C20.974 2.44904 21.9585 3.30157 21.9585 4.80142C21.9585 6.30127 20.974 7.16093 19.2432 7.16093H16.9625V2.44904ZM14.9772 0.896106V12.7634H16.9625V8.71782H19.7111C21.95 8.82954 23.8618 7.2362 23.9822 5.15875C23.9891 5.0407 23.9899 4.92343 23.9848 4.80538C24.0907 2.75091 22.3821 1.00624 20.1679 0.907198C20.0373 0.901652 19.9075 0.902445 19.7769 0.907991L14.9772 0.896106ZM8.3878 3.11062C7.24701 3.04961 6.27102 3.71199 5.72966 3.71199C5.1883 3.71199 4.3515 3.14152 3.44894 3.15737C2.25351 3.18589 1.16395 3.79993 0.585877 4.77131C-0.644567 6.73545 0.265672 9.64324 1.45513 11.2413C2.03748 12.0337 2.73595 12.9012 3.65388 12.8703C4.52313 12.8402 4.86809 12.345 5.91837 12.345C6.96864 12.345 7.28031 12.8703 8.19909 12.8545C9.15031 12.8394 9.74974 12.0622 10.3338 11.2699C10.7454 10.7089 11.0656 10.0949 11.285 9.44754C10.1639 8.99275 9.43722 7.96829 9.43124 6.83291C9.44832 5.83142 10.0136 4.90759 10.9324 4.38228C10.3466 3.61057 9.40648 3.13677 8.3895 3.10349L8.3878 3.11062ZM7.67566 2.06239C7.17614 2.64633 6.41191 2.98147 5.60841 2.968C5.55718 2.24066 5.82359 1.5252 6.34702 0.981676C6.86789 0.420718 7.60222 0.0689312 8.39633 0C8.45269 0.747944 8.19396 1.48638 7.67395 2.06001" fill="white"/>
<path d="M34.8709 15.9905V15.9705H34.8509V15.9905H34.8709ZM38.5136 13.2277L38.4949 13.2205L38.4949 13.2205L38.5136 13.2277ZM42 4.1541L42.0187 4.16127L42.0291 4.1341H42V4.1541ZM39.9814 4.1541V4.1341H39.967L39.9624 4.14778L39.9814 4.1541ZM37.6435 11.174V11.194H37.6579L37.6625 11.1803L37.6435 11.174ZM37.6025 11.174L37.5835 11.1803L37.5881 11.194H37.6025V11.174ZM35.2646 4.16361L35.2836 4.15728L35.279 4.14361H35.2646V4.16361ZM33.1888 4.16361V4.14361H33.1595L33.1702 4.17086L33.1888 4.16361ZM36.5522 12.7998L36.577 12.8083L36.5709 12.7926L36.5522 12.7998ZM36.3721 13.3251L36.3529 13.3185L36.3523 13.3218L36.3721 13.3251ZM34.6985 14.558L34.6998 14.538H34.6985V14.558ZM34.1161 14.5279L34.1185 14.508L34.0961 14.5053V14.5279H34.1161ZM34.1161 15.954H34.0961V15.9716L34.1136 15.9739L34.1161 15.954ZM34.8709 16L34.871 16.02L34.8909 16.0199V16H34.8709ZM28.1441 11.4465H28.1641V11.4265H28.1441V11.4465ZM28.3003 9.00305L28.3014 9.02302L28.3015 9.02302L28.3003 9.00305ZM30.5068 8.87391H30.5267V8.8527L30.5056 8.85394L30.5068 8.87391ZM30.5068 9.5442L30.5267 9.54508V9.5442H30.5068ZM28.2627 11.4632L28.262 11.4832L28.262 11.4832L28.2627 11.4632ZM28.1441 11.4553H28.1241V11.4737L28.1424 11.4752L28.1441 11.4553ZM27.6112 12.8545L27.6117 12.8345L27.5931 12.834L27.5913 12.8525L27.6112 12.8545ZM30.54 11.3396V11.3196H30.529L30.5231 11.329L30.54 11.3396ZM30.581 11.3396H30.601V11.3196H30.581V11.3396ZM30.581 12.7657H30.561V12.7857H30.581V12.7657ZM32.4186 12.7657V12.7857H32.4386V12.7657H32.4186ZM24.9446 6.69901L24.9246 6.69826L24.9238 6.71901H24.9446V6.69901ZM26.7334 6.69901V6.71901H26.7487L26.7527 6.70427L26.7334 6.69901ZM28.612 5.48835L28.61 5.50835H28.612V5.48835ZM30.5068 7.63473L30.5079 7.6547L30.5267 7.65365V7.63473H30.5068ZM28.0305 7.7718L28.0294 7.75183L28.0294 7.75183L28.0305 7.7718ZM24.4783 10.2993L24.4983 10.2993V10.2993H24.4783ZM27.6104 12.8632V12.8832H27.6285L27.6303 12.8652L27.6104 12.8632ZM16.9625 2.44904V2.42904H16.9425V2.44904H16.9625ZM16.9625 7.16093H16.9425V7.18093H16.9625V7.16093ZM14.9772 0.896106L14.9773 0.876106L14.9572 0.876057V0.896106H14.9772ZM14.9772 12.7634H14.9572V12.7834H14.9772V12.7634ZM16.9625 12.7634V12.7834H16.9825V12.7634H16.9625ZM16.9625 8.71782V8.69782H16.9425V8.71782H16.9625ZM19.7111 8.71782L19.7121 8.69782H19.7111V8.71782ZM23.9822 5.15875L24.0022 5.15991V5.15991L23.9822 5.15875ZM23.9848 4.80538L23.9647 4.80434L23.9648 4.80625L23.9848 4.80538ZM20.1679 0.907198L20.1688 0.887218L20.1688 0.887216L20.1679 0.907198ZM19.7769 0.907991L19.7768 0.928011L19.7777 0.927973L19.7769 0.907991ZM8.3878 3.11062L8.38673 3.13059L8.40337 3.13148L8.40725 3.11528L8.3878 3.11062ZM3.44894 3.15737L3.44859 3.13737L3.44847 3.13737L3.44894 3.15737ZM0.585877 4.77131L0.60283 4.78193L0.603064 4.78154L0.585877 4.77131ZM1.45513 11.2413L1.47125 11.2295L1.47117 11.2294L1.45513 11.2413ZM3.65388 12.8703L3.65455 12.8903H3.65457L3.65388 12.8703ZM8.19909 12.8545L8.19877 12.8345L8.19874 12.8345L8.19909 12.8545ZM10.3338 11.2699L10.3499 11.2817L10.3499 11.2817L10.3338 11.2699ZM11.285 9.44754L11.304 9.45396L11.31 9.4361L11.2925 9.42901L11.285 9.44754ZM9.43124 6.83291L9.41124 6.83257L9.41124 6.83301L9.43124 6.83291ZM10.9324 4.38228L10.9423 4.39965L10.9621 4.38834L10.9483 4.37019L10.9324 4.38228ZM8.3895 3.10349L8.39016 3.0835L8.37385 3.08297L8.37005 3.09883L8.3895 3.10349ZM5.60841 2.968L5.58846 2.96941L5.58975 2.98769L5.60807 2.988L5.60841 2.968ZM6.34702 0.981676L6.36143 0.995551L6.36168 0.995285L6.34702 0.981676ZM8.39633 0L8.41628 -0.0015027L8.41476 -0.0216744L8.3946 -0.0199251L8.39633 0ZM34.8709 16.0105C35.8411 16.0105 36.5577 15.8387 37.1318 15.4041C37.7055 14.9697 38.1339 14.2748 38.5323 13.2348L38.4949 13.2205C38.0975 14.258 37.6725 14.9445 37.1077 15.3722C36.5433 15.7995 35.8366 15.9705 34.8709 15.9705V16.0105ZM38.5323 13.2348L42.0187 4.16127L41.9813 4.14692L38.4949 13.2205L38.5323 13.2348ZM42 4.1341H39.9814V4.1741H42V4.1341ZM39.9624 4.14778L37.6245 11.1677L37.6625 11.1803L40.0004 4.16042L39.9624 4.14778ZM37.6435 11.154H37.6025V11.194H37.6435V11.154ZM37.6215 11.1677L35.2836 4.15728L35.2456 4.16993L37.5835 11.1803L37.6215 11.1677ZM35.2646 4.14361H33.1888V4.18361H35.2646V4.14361ZM33.1702 4.17086L36.5336 12.8071L36.5709 12.7926L33.2074 4.15635L33.1702 4.17086ZM36.5333 12.7933L36.3531 13.3186L36.391 13.3316L36.5711 12.8063L36.5333 12.7933ZM36.3523 13.3218C36.227 14.0624 35.5096 14.5929 34.6998 14.538L34.6971 14.5779C35.525 14.634 36.2626 14.0916 36.3918 13.3285L36.3523 13.3218ZM34.6985 14.538C34.5427 14.538 34.2404 14.5229 34.1185 14.508L34.1137 14.5477C34.2377 14.5629 34.5417 14.578 34.6985 14.578V14.538ZM34.0961 14.5279V15.954H34.1361V14.5279H34.0961ZM34.1136 15.9739C34.3647 16.0057 34.6183 16.0208 34.871 16.02L34.8709 15.98C34.6198 15.9808 34.3679 15.9658 34.1186 15.9342L34.1136 15.9739ZM34.8909 16V15.9905H34.8509V16H34.8909ZM28.1441 11.4265C27.6173 11.4265 27.189 11.3083 26.893 11.1025C26.5976 10.8972 26.4332 10.6044 26.4332 10.2517H26.3932C26.3932 10.6185 26.5649 10.9231 26.8702 11.1353C27.1749 11.3471 27.612 11.4665 28.1441 11.4665V11.4265ZM26.4332 10.2517C26.4332 9.88589 26.5917 9.5971 26.9032 9.39032C27.2159 9.18278 27.6836 9.0574 28.3014 9.02302L28.2992 8.98308C27.6781 9.01764 27.2022 9.14382 26.8811 9.35699C26.5588 9.57093 26.3932 9.87202 26.3932 10.2517H26.4332ZM28.3015 9.02302L30.5079 8.89387L30.5056 8.85394L28.2992 8.98309L28.3015 9.02302ZM30.4867 8.87391V9.5442H30.5267V8.87391H30.4867ZM30.4868 9.54332C30.4386 10.6355 29.4442 11.488 28.2635 11.4432L28.262 11.4832C29.4619 11.5287 30.4775 10.6619 30.5267 9.54508L30.4868 9.54332ZM28.2635 11.4432C28.2239 11.4416 28.185 11.4385 28.1457 11.4353L28.1424 11.4752C28.1817 11.4784 28.2213 11.4816 28.262 11.4832L28.2635 11.4432ZM28.1641 11.4553V11.4465H28.1241V11.4553H28.1641ZM27.6107 12.8745C28.8187 12.9048 29.9493 12.3208 30.557 11.3502L30.5231 11.329C29.9234 12.2868 28.8066 12.8644 27.6117 12.8345L27.6107 12.8745ZM30.54 11.3596H30.581V11.3196H30.54V11.3596ZM30.561 11.3396V12.7657H30.601V11.3396H30.561ZM30.581 12.7857H32.4186V12.7457H30.581V12.7857ZM32.4386 12.7657V6.85905H32.3986V12.7657H32.4386ZM32.4386 6.85905C32.4386 5.99615 32.0664 5.2861 31.4083 4.79235C30.7507 4.299 29.8087 4.02238 28.6692 4.02238V4.06238C29.8027 4.06238 30.7355 4.3376 31.3843 4.82435C32.0326 5.31069 32.3986 6.00898 32.3986 6.85905H32.4386ZM28.6692 4.02238C26.556 4.02238 24.9824 5.14465 24.9246 6.69826L24.9645 6.69975C25.0212 5.17761 26.5659 4.06238 28.6692 4.06238V4.02238ZM24.9446 6.71901H26.7334V6.67901H24.9446V6.71901ZM26.7527 6.70427C26.9634 5.93266 27.7545 5.42197 28.61 5.50825L28.614 5.46845C27.7412 5.38042 26.9305 5.90132 26.7142 6.69374L26.7527 6.70427ZM28.612 5.50835C29.2166 5.50835 29.6853 5.6392 30.0024 5.88758C30.3187 6.13536 30.4867 6.50211 30.4867 6.98028H30.5267C30.5267 6.49183 30.3545 6.11261 30.027 5.85609C29.7003 5.60016 29.2216 5.46835 28.612 5.46835V5.50835ZM30.4867 6.98028V7.63473H30.5267V6.98028H30.4867ZM30.5056 7.61476L28.0294 7.75183L28.0316 7.79177L30.5079 7.6547L30.5056 7.61476ZM28.0294 7.75183C26.8748 7.81651 25.9825 8.06815 25.3783 8.49659C24.7731 8.92577 24.4583 9.53148 24.4583 10.2993H24.4983C24.4983 9.54425 24.8069 8.95079 25.4014 8.52922C25.997 8.10692 26.8807 7.85624 28.0316 7.79177L28.0294 7.75183ZM24.4583 10.2993C24.4575 11.0774 24.7817 11.7241 25.3388 12.1759C25.8956 12.6273 26.6838 12.8832 27.6104 12.8832V12.8432C26.6909 12.8432 25.9122 12.5892 25.364 12.1448C24.8162 11.7006 24.4975 11.0653 24.4983 10.2993L24.4583 10.2993ZM27.6303 12.8652L27.6311 12.8564L27.5913 12.8525L27.5905 12.8613L27.6303 12.8652ZM16.9625 2.46904H19.2509V2.42904H16.9625V2.46904ZM19.2509 2.46904C20.1094 2.46904 20.781 2.68143 21.2378 3.07789C21.6941 3.47399 21.9385 4.0561 21.9385 4.80142H21.9785C21.9785 4.04689 21.7307 3.45281 21.264 3.04768C20.7977 2.64292 20.1155 2.42904 19.2509 2.42904V2.46904ZM21.9385 4.80142C21.9385 5.54674 21.6941 6.13064 21.2368 6.52853C20.7791 6.92676 20.1055 7.14093 19.2432 7.14093V7.18093C20.1117 7.18093 20.7958 6.96526 21.2631 6.5587C21.7307 6.15179 21.9785 5.55594 21.9785 4.80142H21.9385ZM19.2432 7.14093H16.9625V7.18093H19.2432V7.14093ZM16.9825 7.16093V2.44904H16.9425V7.16093H16.9825ZM14.9572 0.896106V12.7634H14.9972V0.896106H14.9572ZM14.9772 12.7834H16.9625V12.7434H14.9772V12.7834ZM16.9825 12.7634V8.71782H16.9425V12.7634H16.9825ZM16.9625 8.73782H19.7111V8.69782H16.9625V8.73782ZM19.7101 8.7378C21.9586 8.84999 23.8811 7.24967 24.0022 5.15991L23.9623 5.15759C23.8426 7.22272 21.9414 8.80908 19.7121 8.69785L19.7101 8.7378ZM24.0022 5.15991C24.0091 5.04118 24.0099 4.92324 24.0048 4.80451L23.9648 4.80625C23.9699 4.92363 23.9691 5.04021 23.9623 5.1576L24.0022 5.15991ZM24.0048 4.80641C24.1113 2.73946 22.3926 0.986689 20.1688 0.887218L20.1671 0.927179C22.3715 1.02579 24.0701 2.76236 23.9648 4.80435L24.0048 4.80641ZM20.1688 0.887216C20.0375 0.881643 19.9071 0.882442 19.776 0.888009L19.7777 0.927973C19.9079 0.922447 20.0371 0.921662 20.1671 0.92718L20.1688 0.887216ZM19.7769 0.887991L14.9773 0.876106L14.9772 0.916106L19.7768 0.927991L19.7769 0.887991ZM8.38886 3.09065C7.81446 3.05993 7.28225 3.21136 6.82738 3.36954C6.59899 3.44896 6.39227 3.52927 6.2067 3.59045C6.02144 3.65153 5.86156 3.69199 5.72966 3.69199V3.73199C5.86845 3.73199 6.03358 3.68965 6.21922 3.62844C6.40455 3.56733 6.61464 3.48586 6.84051 3.40732C7.29417 3.24956 7.82034 3.1003 8.38673 3.13059L8.38886 3.09065ZM5.72966 3.69199C5.59746 3.69199 5.44602 3.6571 5.27785 3.60403C5.10969 3.55096 4.92699 3.48046 4.73154 3.40992C4.34171 3.26924 3.90385 3.12938 3.44859 3.13737L3.44929 3.17736C3.89659 3.16951 4.3284 3.30696 4.71796 3.44755C4.9122 3.51765 5.09662 3.58878 5.26582 3.64217C5.43502 3.69557 5.59119 3.73199 5.72966 3.73199V3.69199ZM3.44847 3.13737C2.24664 3.16605 1.15053 3.78339 0.56869 4.76108L0.603064 4.78154C1.17738 3.81648 2.26038 3.20573 3.44942 3.17736L3.44847 3.13737ZM0.568928 4.76069C-0.0498904 5.74851 -0.129602 6.97216 0.093391 8.14732C0.316405 9.32259 0.84259 10.4519 1.43909 11.2533L1.47117 11.2294C0.878212 10.4327 0.354549 9.30905 0.13269 8.13986C-0.0891902 6.97057 -0.00879986 5.75826 0.602826 4.78193L0.568928 4.76069ZM1.43901 11.2532C1.73017 11.6493 2.05155 12.066 2.41561 12.3797C2.77979 12.6935 3.18863 12.906 3.65455 12.8903L3.6532 12.8503C3.20119 12.8656 2.80184 12.6597 2.44172 12.3494C2.08147 12.039 1.76244 11.6257 1.47125 11.2295L1.43901 11.2532ZM3.65457 12.8903C4.09317 12.8751 4.39988 12.7424 4.72552 12.615C5.05085 12.4878 5.39692 12.365 5.91837 12.365V12.325C5.38954 12.325 5.03799 12.4499 4.71095 12.5778C4.38423 12.7055 4.08384 12.8354 3.65318 12.8503L3.65457 12.8903ZM5.91837 12.365C6.43957 12.365 6.77716 12.4952 7.10062 12.6243C7.42467 12.7536 7.73562 12.8825 8.19943 12.8745L8.19874 12.8345C7.74377 12.8423 7.43951 12.7165 7.11545 12.5871C6.79082 12.4575 6.44744 12.325 5.91837 12.325V12.365ZM8.1994 12.8745C8.68101 12.8669 9.07302 12.6661 9.4172 12.3688C9.76093 12.0719 10.058 11.6776 10.3499 11.2817L10.3177 11.258C10.0255 11.6544 9.73086 12.045 9.39105 12.3385C9.05171 12.6317 8.66839 12.8271 8.19877 12.8345L8.1994 12.8745ZM10.3499 11.2817C10.7627 10.7191 11.0838 10.1032 11.304 9.45396L11.2661 9.44112C11.0473 10.0865 10.728 10.6987 10.3177 11.258L10.3499 11.2817ZM11.2925 9.42901C10.1782 8.977 9.45717 7.95941 9.45124 6.8328L9.41124 6.83301C9.41726 7.97718 10.1495 9.0085 11.2775 9.46607L11.2925 9.42901ZM9.45124 6.83325C9.46819 5.83928 10.0292 4.92168 10.9423 4.39965L10.9224 4.36492C9.99795 4.89349 9.42845 5.82357 9.41124 6.83257L9.45124 6.83325ZM10.9483 4.37019C10.3587 3.59343 9.41283 3.11696 8.39016 3.0835L8.38885 3.12348C9.40013 3.15657 10.3345 3.62772 10.9164 4.39438L10.9483 4.37019ZM8.37005 3.09883L8.36835 3.10597L8.40725 3.11528L8.40895 3.10815L8.37005 3.09883ZM7.66046 2.04939C7.16501 2.62857 6.40659 2.96138 5.60874 2.94801L5.60807 2.988C6.41723 3.00157 7.18726 2.66408 7.69085 2.07539L7.66046 2.04939ZM5.62836 2.9666C5.57754 2.24514 5.84176 1.53517 6.36142 0.995549L6.33261 0.967803C5.80542 1.51524 5.53681 2.23619 5.58846 2.96941L5.62836 2.9666ZM6.36168 0.995285C6.87902 0.438124 7.60867 0.0884466 8.39806 0.0199251L8.3946 -0.0199251C7.59578 0.0494158 6.85676 0.403312 6.33236 0.968067L6.36168 0.995285ZM8.37639 0.0015027C8.43232 0.743786 8.17559 1.47687 7.65913 2.04658L7.68877 2.07345C8.21234 1.49589 8.47306 0.752101 8.41628 -0.0015027L8.37639 0.0015027Z" fill="black" mask="url(#path-1-inside-1_1784_1892)"/>
</svg>
