<svg width="20" height="20" viewBox="0 0 20 20" fill="none" xmlns="http://www.w3.org/2000/svg">
<circle cx="10" cy="10" r="9.25" stroke="#5D5D5D" stroke-width="1.5"/>
<path d="M8.76818 13H8.73324C8.61983 12.995 8.50878 12.9667 8.40734 12.9168C8.30589 12.8669 8.21635 12.7965 8.14457 12.7104L6.17161 10.3411C6.04138 10.1783 5.98155 9.97197 6.00498 9.76643C6.02841 9.56089 6.13324 9.37255 6.29693 9.24188C6.46062 9.11122 6.67011 9.04865 6.88039 9.06763C7.09067 9.08661 7.28496 9.18562 7.42151 9.34338L8.82194 11.0256L12.5851 7.27157C12.6572 7.19034 12.7455 7.1244 12.8446 7.07781C12.9437 7.03122 13.0514 7.00496 13.1612 7.00064C13.2711 6.99631 13.3806 7.01402 13.4832 7.05268C13.5858 7.09133 13.6792 7.15011 13.7577 7.22541C13.8363 7.30072 13.8983 7.39094 13.9399 7.49056C13.9815 7.59018 14.0019 7.69708 13.9999 7.8047C13.9978 7.91232 13.9733 8.01839 13.9278 8.11639C13.8823 8.2144 13.8169 8.30227 13.7355 8.3746L9.34609 12.7631C9.27077 12.8383 9.18084 12.8981 9.08159 12.9387C8.98234 12.9794 8.87578 13.0003 8.76818 13Z" fill="#5D5D5D"/>
</svg>
