<svg width="12" height="12" viewBox="0 0 12 12" fill="none" xmlns="http://www.w3.org/2000/svg">
<path d="M6.51598 0.329028L7.91678 3.32366C8.00152 3.49859 8.1617 3.61814 8.34513 3.6439L11.5197 4.13086C11.7254 4.15115 11.9011 4.29647 11.9698 4.50265C12.0385 4.70939 11.9879 4.9397 11.8401 5.09269L9.5082 7.49449C9.38316 7.62007 9.3258 7.80322 9.35473 7.98309L9.90088 11.338C9.97736 11.8068 9.48029 12.1578 9.06487 11.9274L6.27677 10.3832H6.27625C6.10367 10.2895 5.89906 10.2895 5.72649 10.3832L2.93839 11.9274C2.52297 12.1578 2.0259 11.8068 2.10237 11.338L2.64801 7.98309C2.67694 7.80324 2.61959 7.62008 2.49454 7.49449L0.160147 5.09269C0.0123689 4.9397 -0.0387819 4.70938 0.0304549 4.50265C0.0991759 4.29646 0.27486 4.15115 0.480495 4.13086L3.6551 3.6439C3.83853 3.61813 3.99871 3.49858 4.08345 3.32366L5.48676 0.329028C5.58751 0.126681 5.78592 0 6.00139 0C6.21685 0 6.41523 0.126673 6.51598 0.329028Z" fill="black"/>
</svg>
