<svg width="88" height="60" viewBox="0 0 88 60" fill="none" xmlns="http://www.w3.org/2000/svg">
<rect x="0.5" y="0.5" width="87" height="59" rx="7.5" stroke="#888888"/>
<rect x="1" y="9" width="86" height="10" fill="#888888"/>
<path d="M66.0635 37H65.6069V33.9849L64.6987 34.3193V33.9116L65.9927 33.4258H66.0635V37ZM69.7207 37H67.3892V36.6777L68.5537 35.3813C68.6986 35.2218 68.8101 35.0868 68.8882 34.9761C68.9679 34.8638 69.0233 34.7629 69.0542 34.6733C69.0851 34.5838 69.1006 34.4927 69.1006 34.3999C69.1006 34.2241 69.0469 34.0744 68.9395 33.9507C68.8337 33.8254 68.6823 33.7627 68.4854 33.7627C68.3258 33.7627 68.1932 33.7936 68.0874 33.8555C67.9832 33.9173 67.9051 34.0028 67.853 34.1118C67.8026 34.2209 67.7773 34.347 67.7773 34.4902H67.3208C67.3208 34.29 67.3647 34.1069 67.4526 33.9409C67.5405 33.7749 67.6707 33.6431 67.8433 33.5454C68.0174 33.4461 68.2314 33.3965 68.4854 33.3965C68.8206 33.3965 69.0827 33.4836 69.2715 33.6577C69.4619 33.8319 69.5571 34.0614 69.5571 34.3462C69.5571 34.4862 69.527 34.627 69.4668 34.7686C69.4066 34.9102 69.326 35.0509 69.2251 35.1909C69.1242 35.3293 69.0127 35.4644 68.8906 35.5962L67.9385 36.6338H69.7207V37ZM71.1831 35.0029C71.3394 35.0029 71.4688 34.9761 71.5713 34.9224C71.6755 34.8687 71.7528 34.7962 71.8032 34.7051C71.8553 34.6123 71.8813 34.5073 71.8813 34.3901C71.8813 34.255 71.8586 34.1411 71.813 34.0483C71.7674 33.9539 71.6991 33.8831 71.6079 33.8359C71.5168 33.7871 71.402 33.7627 71.2637 33.7627C71.1367 33.7627 71.0252 33.7879 70.9292 33.8384C70.8332 33.8888 70.7583 33.9596 70.7046 34.0508C70.6509 34.1419 70.624 34.2502 70.624 34.3755H70.1675C70.1675 34.1932 70.2131 34.0288 70.3042 33.8823C70.3953 33.7342 70.5231 33.6162 70.6875 33.5283C70.8519 33.4404 71.0439 33.3965 71.2637 33.3965C71.4785 33.3965 71.6665 33.4347 71.8276 33.5112C71.9888 33.5861 72.1141 33.6984 72.2036 33.8481C72.2931 33.9963 72.3379 34.1802 72.3379 34.3999C72.3379 34.491 72.3167 34.5871 72.2744 34.688C72.2337 34.7889 72.1694 34.8841 72.0815 34.9736C71.9953 35.0615 71.883 35.134 71.7446 35.1909C71.6063 35.2463 71.4403 35.2739 71.2466 35.2739H70.8608V35.0029H71.1831ZM70.8608 35.1006H71.2466C71.4728 35.1006 71.66 35.1274 71.8081 35.1812C71.9562 35.2349 72.0726 35.3065 72.1572 35.396C72.2435 35.4839 72.3037 35.5815 72.3379 35.689C72.3737 35.7964 72.3916 35.903 72.3916 36.0088C72.3916 36.2301 72.342 36.4181 72.2427 36.5728C72.145 36.7274 72.0107 36.8454 71.8398 36.9268C71.6706 37.0081 71.4793 37.0488 71.2661 37.0488C71.1115 37.0488 70.9658 37.0269 70.8291 36.9829C70.6924 36.939 70.5719 36.8755 70.4678 36.7925C70.3652 36.7078 70.2847 36.6045 70.2261 36.4824C70.1675 36.3587 70.1382 36.2179 70.1382 36.0601H70.5947C70.5947 36.1838 70.6216 36.2928 70.6753 36.3872C70.7306 36.48 70.8079 36.5524 70.9072 36.6045C71.0081 36.6566 71.1278 36.6826 71.2661 36.6826C71.4728 36.6826 71.6356 36.6273 71.7544 36.5166C71.8748 36.4059 71.9351 36.2399 71.9351 36.0186C71.9351 35.8704 71.9041 35.7484 71.8423 35.6523C71.7804 35.5563 71.6934 35.4855 71.5811 35.4399C71.4688 35.3927 71.3361 35.3691 71.1831 35.3691H70.8608V35.1006Z" fill="#8D8D8D"/>
<rect x="57.5" y="30.5" width="22" height="9" stroke="#888888" stroke-opacity="0.78"/>
</svg>
