<svg width="56" height="15" viewBox="0 0 56 15" fill="none" xmlns="http://www.w3.org/2000/svg">
<path d="M18.3036 0.177734H2.19643C0.988405 0.177734 0 1.16614 0 2.37416V4.20452H20.5V2.37416C20.5 1.16614 19.5116 0.177734 18.3036 0.177734Z" fill="black"/>
<path d="M0 12.6254C0 13.8334 0.988405 14.8218 2.19643 14.8218H18.3036C19.5116 14.8218 20.5 13.8334 20.5 12.6254V5.66992H0V12.6254ZM3.29453 8.23254H6.95524C7.35793 8.23254 7.68738 8.56199 7.68738 8.96468C7.68738 9.36737 7.35793 9.69682 6.95524 9.69682H3.29453C2.89184 9.69682 2.56238 9.36737 2.56238 8.96468C2.56238 8.56199 2.89184 8.23254 3.29453 8.23254ZM3.29453 10.7952H5.12488C5.52757 10.7952 5.85703 11.1246 5.85703 11.5273C5.85703 11.93 5.52757 12.2594 5.12488 12.2594H3.29453C2.89184 12.2594 2.56238 11.93 2.56238 11.5273C2.56238 11.1246 2.89184 10.7952 3.29453 10.7952Z" fill="black"/>
<path d="M33.9834 9.3418C33.915 9.96615 33.735 10.529 33.4434 11.0303C33.1517 11.527 32.7393 11.9189 32.2061 12.2061C31.6729 12.4932 31.0052 12.6367 30.2031 12.6367C29.4238 12.6367 28.7425 12.4476 28.1592 12.0693C27.5758 11.6865 27.1224 11.1488 26.7988 10.4561C26.4753 9.76335 26.3135 8.95443 26.3135 8.0293V7.02441C26.3135 6.09473 26.4753 5.28581 26.7988 4.59766C27.127 3.90495 27.5918 3.36719 28.1934 2.98438C28.7949 2.60156 29.5059 2.41016 30.3262 2.41016C31.0781 2.41016 31.7139 2.55143 32.2334 2.83398C32.7529 3.11198 33.1562 3.50163 33.4434 4.00293C33.735 4.50423 33.915 5.08301 33.9834 5.73926H32.6572C32.557 5.04199 32.3337 4.49284 31.9873 4.0918C31.6455 3.6862 31.0918 3.4834 30.3262 3.4834C29.7383 3.4834 29.2461 3.63151 28.8496 3.92773C28.4531 4.2194 28.1523 4.62956 27.9473 5.1582C27.7467 5.68685 27.6465 6.30436 27.6465 7.01074V8.0293C27.6465 8.68099 27.7376 9.27572 27.9199 9.81348C28.1022 10.3467 28.3802 10.7728 28.7539 11.0918C29.1322 11.4108 29.6152 11.5703 30.2031 11.5703C30.7637 11.5703 31.208 11.4814 31.5361 11.3037C31.8688 11.126 32.1195 10.8708 32.2881 10.5381C32.4613 10.2054 32.5843 9.80664 32.6572 9.3418H33.9834ZM39.9375 7.42773C39.9375 6.98568 39.8053 6.63477 39.541 6.375C39.2812 6.11068 38.8962 5.97852 38.3857 5.97852C38.0713 5.97852 37.7933 6.0332 37.5518 6.14258C37.3148 6.25195 37.1302 6.39551 36.998 6.57324C36.8659 6.75098 36.7998 6.94466 36.7998 7.1543H35.5215C35.5215 6.79883 35.6423 6.45475 35.8838 6.12207C36.1253 5.78483 36.4648 5.50911 36.9023 5.29492C37.3444 5.07617 37.8639 4.9668 38.4609 4.9668C38.9987 4.9668 39.4749 5.05794 39.8896 5.24023C40.3044 5.42253 40.6279 5.69824 40.8604 6.06738C41.0973 6.43197 41.2158 6.88997 41.2158 7.44141V10.8867C41.2158 11.1328 41.2363 11.3949 41.2773 11.6729C41.3229 11.9508 41.389 12.1901 41.4756 12.3906V12.5H40.1426C40.0788 12.3542 40.0286 12.1605 39.9922 11.9189C39.9557 11.6729 39.9375 11.445 39.9375 11.2354V7.42773ZM40.1562 8.9043H38.8984C38.1784 8.9043 37.6224 9.01823 37.2305 9.24609C36.8385 9.47396 36.6426 9.81576 36.6426 10.2715C36.6426 10.627 36.7611 10.9277 36.998 11.1738C37.2396 11.4199 37.5905 11.543 38.0508 11.543C38.4382 11.543 38.7799 11.4609 39.0762 11.2969C39.3724 11.1328 39.6071 10.93 39.7803 10.6885C39.9535 10.4469 40.0469 10.2145 40.0605 9.99121L40.6074 10.5996C40.5755 10.791 40.4889 11.0029 40.3477 11.2354C40.2064 11.4678 40.0173 11.6911 39.7803 11.9053C39.5479 12.1149 39.2699 12.2904 38.9463 12.4316C38.6273 12.5684 38.2673 12.6367 37.8662 12.6367C37.3649 12.6367 36.9251 12.541 36.5469 12.3496C36.1732 12.1536 35.8815 11.8893 35.6719 11.5566C35.4668 11.224 35.3643 10.8548 35.3643 10.4492C35.3643 9.65169 35.665 9.04785 36.2666 8.6377C36.8682 8.22298 37.6771 8.01562 38.6934 8.01562H40.1562V8.9043ZM44.4834 12.5H43.2051V5.10352H44.4492L44.4834 6.26562V12.5ZM46.7871 6.23145C46.6777 6.20866 46.5752 6.19499 46.4795 6.19043C46.3883 6.18132 46.2835 6.17676 46.165 6.17676C45.7777 6.17676 45.4495 6.25651 45.1807 6.41602C44.9163 6.57552 44.7113 6.79655 44.5654 7.0791C44.4196 7.3571 44.3285 7.67611 44.292 8.03613L43.9297 8.24121C43.9297 7.64421 44.0094 7.09961 44.1689 6.60742C44.3285 6.11068 44.5768 5.71419 44.9141 5.41797C45.2559 5.11719 45.6934 4.9668 46.2266 4.9668C46.3132 4.9668 46.4157 4.97819 46.5342 5.00098C46.6572 5.01921 46.7415 5.03971 46.7871 5.0625V6.23145ZM50.5537 12.6367C49.9749 12.6367 49.4668 12.4749 49.0293 12.1514C48.5918 11.8232 48.25 11.3766 48.0039 10.8115C47.7624 10.2464 47.6416 9.60384 47.6416 8.88379V8.74023C47.6416 7.98828 47.7624 7.32975 48.0039 6.76465C48.25 6.19499 48.5918 5.75293 49.0293 5.43848C49.4668 5.12402 49.9795 4.9668 50.5674 4.9668C51.1872 4.9668 51.7044 5.11035 52.1191 5.39746C52.5339 5.68001 52.8574 6.08333 53.0898 6.60742C53.3268 7.13151 53.4795 7.75586 53.5479 8.48047V9.14355C53.4795 9.85905 53.3291 10.4788 53.0967 11.0029C52.8643 11.5225 52.5384 11.9258 52.1191 12.2129C51.7044 12.4954 51.1826 12.6367 50.5537 12.6367ZM50.8682 11.5703C51.2874 11.5703 51.6315 11.4814 51.9004 11.3037C52.1738 11.126 52.3926 10.8913 52.5566 10.5996C52.7207 10.3079 52.8483 9.99121 52.9395 9.64941V7.98828C52.8848 7.73763 52.805 7.49609 52.7002 7.26367C52.5999 7.02669 52.4678 6.81706 52.3037 6.63477C52.1442 6.44792 51.946 6.2998 51.709 6.19043C51.4766 6.08105 51.2008 6.02637 50.8818 6.02637C50.4215 6.02637 50.0456 6.14941 49.7539 6.39551C49.4668 6.6416 49.2549 6.97201 49.1182 7.38672C48.986 7.79688 48.9199 8.24805 48.9199 8.74023V8.88379C48.9199 9.37598 48.986 9.82487 49.1182 10.2305C49.2549 10.6361 49.4668 10.9619 49.7539 11.208C50.041 11.4495 50.4124 11.5703 50.8682 11.5703ZM52.7207 12.5L52.6113 11.0645V2H53.8896V12.5H52.7207Z" fill="black"/>
</svg>
