<svg width="176" height="19" viewBox="0 0 176 19" fill="none" xmlns="http://www.w3.org/2000/svg">
<g opacity="0.5">
<path d="M56.6 17.8663C56.6 17.4882 56.9 17.2046 57.3 17.2046C57.7 17.2046 58 17.4882 58 17.8663C58 18.2444 57.7 18.528 57.3 18.528C56.8 18.528 56.6 18.2444 56.6 17.8663ZM58.4 17.8663V16.8265H57.9V17.1101C57.7 16.9211 57.5 16.8265 57.2 16.8265C56.6 16.8265 56.1 17.2992 56.1 17.8663C56.1 18.4335 56.6 18.9061 57.2 18.9061C57.5 18.9061 57.8 18.8116 57.9 18.6226V18.9061H58.4V17.8663ZM75.2 17.8663C75.2 17.4882 75.5 17.2046 75.9 17.2046C76.3 17.2046 76.6 17.4882 76.6 17.8663C76.6 18.2444 76.3 18.528 75.9 18.528C75.4 18.528 75.2 18.2444 75.2 17.8663ZM77 17.8663V16.0703H76.5V17.1101C76.3 16.9211 76.1 16.8265 75.8 16.8265C75.2 16.8265 74.7 17.2992 74.7 17.8663C74.7 18.4335 75.2 18.9061 75.8 18.9061C76.1 18.9061 76.4 18.8116 76.5 18.6226V18.9061H77V17.8663ZM64.6 17.2046C64.9 17.2046 65.1 17.3937 65.2 17.6773H64C64 17.3937 64.2 17.2046 64.6 17.2046ZM64.6 16.8265C63.9 16.8265 63.5 17.2046 63.5 17.8663C63.5 18.528 64 18.9061 64.7 18.9061C65 18.9061 65.4 18.8116 65.6 18.6226L65.4 18.339C65.2 18.4335 65 18.528 64.7 18.528C64.4 18.528 64.1 18.4335 64 18.0554H65.7C65.7 17.9609 65.7 17.9609 65.7 17.8663C65.6 17.2046 65.2 16.8265 64.6 16.8265ZM70.6 17.8663C70.6 17.4882 70.9 17.2046 71.3 17.2046C71.7 17.2046 72 17.4882 72 17.8663C72 18.2444 71.7 18.528 71.3 18.528C70.8 18.528 70.6 18.2444 70.6 17.8663ZM72.4 17.8663V16.8265H71.9V17.1101C71.7 16.9211 71.5 16.8265 71.2 16.8265C70.6 16.8265 70.1 17.2992 70.1 17.8663C70.1 18.4335 70.6 18.9061 71.2 18.9061C71.5 18.9061 71.8 18.8116 71.9 18.6226V18.9061H72.4V17.8663ZM67.8 17.8663C67.8 18.4335 68.3 18.9061 69 18.9061C69.3 18.9061 69.6 18.8116 69.8 18.6226L69.6 18.2444C69.4 18.339 69.2 18.4335 69 18.4335C68.6 18.4335 68.3 18.1499 68.3 17.7718C68.3 17.3937 68.6 17.1101 69 17.1101C69.2 17.1101 69.4 17.2046 69.6 17.2992L69.8 16.9211C69.6 16.732 69.3 16.6375 69 16.6375C68.2 16.8265 67.8 17.2992 67.8 17.8663ZM74.1 16.8265C73.8 16.8265 73.6 16.9211 73.5 17.1101V16.8265H73V18.8116H73.5V17.6773C73.5 17.3937 73.7 17.2046 74 17.2046C74.1 17.2046 74.2 17.2046 74.3 17.2992L74.5 16.9211C74.4 16.8265 74.2 16.8265 74.1 16.8265ZM60.9 17.0156C60.7 16.9211 60.3 16.8265 60 16.8265C59.4 16.8265 59 17.0156 59 17.4882C59 17.7718 59.3 18.0554 59.8 18.0554H60C60.3 18.0554 60.4 18.1499 60.4 18.2444C60.4 18.4335 60.2 18.528 59.9 18.528C59.6 18.528 59.3 18.4335 59.1 18.339L58.9 18.7171C59.2 18.9061 59.5 19.0007 59.9 19.0007C60.6 19.0007 60.9 18.7171 60.9 18.339C60.9 17.9609 60.6 17.7718 60.1 17.7718H59.9C59.7 17.7718 59.5 17.6773 59.5 17.5828C59.5 17.3937 59.7 17.3937 59.9 17.3937C60.2 17.3937 60.5 17.4882 60.6 17.5828L60.9 17.0156ZM67.3 16.8265C67 16.8265 66.8 16.9211 66.7 17.1101V16.8265H66.2V18.8116H66.7V17.6773C66.7 17.3937 66.9 17.2046 67.2 17.2046C67.3 17.2046 67.4 17.2046 67.5 17.2992L67.7 16.9211C67.5 16.8265 67.4 16.8265 67.3 16.8265ZM63 16.8265H62.2V16.2594H61.7V16.8265H61.2V17.2046H61.7V18.1499C61.7 18.6226 61.9 18.9061 62.5 18.9061C62.7 18.9061 63 18.8116 63.1 18.7171L63 18.339C62.9 18.4335 62.7 18.4335 62.6 18.4335C62.4 18.4335 62.3 18.339 62.3 18.0554V17.1101H63C63 17.2992 63 16.8265 63 16.8265ZM55.6 18.8116V17.5828C55.6 17.1101 55.3 16.8265 54.7 16.8265C54.4 16.8265 54.1 16.9211 53.9 17.2046C53.7 17.0156 53.5 16.8265 53.1 16.8265C52.9 16.8265 52.6 16.9211 52.4 17.1101V16.8265H52V18.8116H52.5V17.6773C52.5 17.2992 52.7 17.1101 53.1 17.1101C53.4 17.1101 53.6 17.2992 53.6 17.6773V18.8116H54.1V17.6773C54.1 17.2992 54.3 17.1101 54.7 17.1101C55 17.1101 55.2 17.2992 55.2 17.6773V18.8116H55.6Z" fill="black"/>
<path d="M60.5 14.1791C64.6421 14.1791 68 11.005 68 7.08955C68 3.1741 64.6421 0 60.5 0C56.3579 0 53 3.1741 53 7.08955C53 11.005 56.3579 14.1791 60.5 14.1791Z" fill="black"/>
<path d="M69.5 14.1791C73.6421 14.1791 77 11.005 77 7.08955C77 3.1741 73.6421 0 69.5 0C65.3579 0 62 3.1741 62 7.08955C62 11.005 65.3579 14.1791 69.5 14.1791Z" fill="#AEAEAE" fill-opacity="0.7"/>
<path d="M104.7 6.81007H105.6L104.9 8.41704H103.8L102.6 5.67574V8.51156H101.6V4.73047H103.1L104.3 7.66082L104.7 6.81007ZM106.1 8.41704H107.1V6.81007H106.1V8.41704ZM108.1 6.81007H111.1V6.9046H109V7.75534H111.5V8.51156H108.1C108.1 8.41704 108.1 6.81007 108.1 6.81007ZM112 6.81007H115.4H115.3C115.5 6.9046 115.6 6.9046 115.7 6.99913C115.8 7.09365 115.9 7.18818 115.9 7.28271C115.9 7.37723 116 7.47176 116 7.56629C116 7.66082 116 7.75534 116.1 7.9444C116.1 8.22798 116.2 8.41704 116.2 8.51156H115.1C115 8.32251 115 8.22798 115 7.9444C115 7.75534 114.9 7.56629 114.9 7.47176C114.8 7.37723 114.7 7.28271 114.6 7.18818C114.4 7.09365 114.2 7.09365 113.8 7.09365H113V8.51156H112V6.81007ZM116.7 8.41704H117.6V6.81007H116.7V8.41704ZM118.1 6.81007H119C119 7.18818 119.1 7.47176 119.3 7.56629C119.5 7.66082 119.7 7.75534 120.1 7.75534H120.8L121.2 6.81007H122.1L122 6.9046H123.1L123 6.81007H123.9L124.6 8.41704H123.6L123.5 7.56629H122L121.6 8.41704H120C119.7 8.41704 119.5 8.41704 119.4 8.41704C118.9 8.32251 118.6 8.03893 118.3 7.66082C118.2 7.37723 118.1 7.09365 118.1 6.81007ZM125.3 8.41704H126.1V6.81007H125.3V8.41704ZM126.8 6.81007H127.6L128 7.47176V6.81007H128.8V8.41704H127.7L126.8 6.81007ZM128 6.81007H128.8V4.73047H128V6.81007ZM127.6 6.81007H126.8L126.1 5.67574V6.81007H125.3V4.73047H126.4L127.6 6.81007ZM124.1 6.81007H123.2L122.7 5.58122L122.2 6.81007H121.3L122.2 4.73047H123.2L124.1 6.81007ZM119 6.81007H118.1C118.1 6.71554 118.1 6.71554 118.1 6.62102C118.1 6.14838 118.2 5.67574 118.4 5.39216C118.5 5.20311 118.8 5.01405 119 4.91952C119.3 4.825 119.6 4.73047 120 4.73047H121.4V5.39216H120.1C119.7 5.39216 119.4 5.48669 119.3 5.67574C119.1 5.8648 119 6.14838 119 6.52649C119 6.62102 119 6.71554 119 6.81007ZM116.7 6.81007H117.6V4.73047H116.7V6.81007ZM115.4 6.81007H112V4.73047H114.2C114.8 4.73047 115.3 4.825 115.5 4.91952C115.7 5.01405 115.8 5.10858 115.9 5.29763C116 5.48669 116 5.58122 116 5.77027C116 6.14838 115.9 6.43196 115.7 6.62102C115.7 6.71554 115.5 6.71554 115.4 6.81007ZM111.2 6.81007H108.2V4.73047H111.5V5.39216H109.1V6.14838H111.2V6.81007ZM107.1 6.81007H106.1V5.67574L105.6 6.81007H104.7L105.6 4.73047H107.1V6.81007ZM124.7 15.1285V14.4668H126.4C126.7 14.4668 126.9 14.4668 127 14.3723C127.1 14.2777 127.2 14.1832 127.2 13.9942C127.2 13.8051 127.1 13.7106 127 13.616C126.9 13.5215 126.8 13.5215 126.6 13.5215H125.9C125.5 13.5215 125.2 13.427 125 13.3325C124.9 13.2379 124.8 13.1434 124.7 12.9543C124.6 12.7653 124.6 12.6708 124.6 12.4817C124.6 12.1981 124.7 12.0091 124.8 11.7255C125 11.5364 125.2 11.4419 125.5 11.3474C125.6 11.3474 125.8 11.3474 126 11.3474H127.9V12.0091H126.2C125.9 12.0091 125.8 12.0091 125.7 12.0091C125.5 12.0091 125.4 12.1981 125.4 12.3872C125.4 12.5762 125.5 12.6708 125.6 12.7653C125.7 12.7653 125.9 12.8598 126.1 12.8598H126.7C127 12.8598 127.2 12.8598 127.4 12.9543C127.7 13.0489 127.9 13.2379 128 13.427C128.1 13.616 128.1 13.8051 128.1 13.9942C128.1 14.1832 128 14.4668 127.9 14.5613C127.8 14.8449 127.5 14.9394 127.2 15.034C127.1 15.034 126.8 15.034 126.5 15.034H124.7V15.1285ZM120.7 11.4419H124V12.1036H121.6V12.8598H123.7V13.5215H121.6V14.3723H124.1V15.1285H120.7V11.4419ZM104.7 11.4419H107.8H109L109.9 12.6708L110.9 11.4419H114C114.4 11.4419 114.7 11.4419 114.9 11.5364C115.2 11.631 115.4 11.82 115.6 12.0091C115.7 12.1981 115.8 12.3872 115.8 12.6708C115.8 12.8598 115.8 13.0489 115.7 13.2379C115.6 13.427 115.5 13.5215 115.4 13.616C115.3 13.7106 115.1 13.8051 115 13.8051C114.9 13.8051 114.7 13.8996 114.4 13.8996H112.9V15.1285H111L110 13.8051L109 15.1285H104.7V11.4419ZM108 11.7255V12.1036H105.6V12.8598H107.7V13.5215H105.6V14.3723H108.1H108.3L109.3 13.2379L108 11.7255ZM128.6 15.1285V14.4668H130.3C130.6 14.4668 130.8 14.4668 130.9 14.3723C131 14.2777 131.1 14.1832 131.1 13.9942C131.1 13.8051 131 13.7106 130.9 13.616C130.8 13.5215 130.7 13.5215 130.5 13.5215H129.8C129.4 13.5215 129.1 13.427 128.9 13.3325C128.8 13.2379 128.7 13.1434 128.6 12.9543C128.5 12.7653 128.5 12.6708 128.5 12.4817C128.5 12.1981 128.6 12.0091 128.7 11.7255C128.9 11.5364 129.1 11.4419 129.4 11.3474C129.5 11.3474 129.7 11.3474 129.9 11.3474H131.8V12.0091H130.1C129.8 12.0091 129.7 12.0091 129.6 12.0091C129.4 12.0091 129.3 12.1981 129.3 12.3872C129.3 12.5762 129.4 12.6708 129.5 12.7653C129.6 12.7653 129.8 12.8598 130 12.8598H130.6C130.9 12.8598 131.1 12.8598 131.3 12.9543C131.6 13.0489 131.8 13.2379 131.9 13.427C132 13.616 132 13.8051 132 13.9942C132 14.1832 131.9 14.4668 131.8 14.5613C131.7 14.8449 131.4 14.9394 131.1 15.034C131 15.034 130.7 15.034 130.4 15.034H128.6V15.1285ZM117.3 13.0489H118.5C118.7 13.0489 118.9 13.0489 118.9 12.9543C119 12.8598 119.1 12.7653 119.1 12.4817C119.1 12.2927 119 12.1036 118.8 12.0091C118.7 12.0091 118.6 12.0091 118.5 12.0091H117.3V13.0489ZM117.3 13.7106V15.1285H116.4V11.4419H118.4C119 11.4419 119.4 11.5364 119.6 11.631C119.8 11.7255 119.9 11.82 120 12.0091C120.1 12.1981 120.1 12.2927 120.1 12.4817C120.1 12.8598 120 13.1434 119.8 13.3325C119.7 13.427 119.5 13.5215 119.3 13.616C119.5 13.7106 119.6 13.7106 119.7 13.8051C119.8 13.8996 119.9 13.9942 119.9 14.0887C120 13.9942 120 14.0887 120 14.1832C120 14.2777 120 14.3723 120.1 14.5613C120.1 14.8449 120.2 15.034 120.2 15.1285H119.2C119.2 15.034 119.1 14.8449 119.1 14.5613C119.1 14.3723 119 14.1832 119 14.0887C119 13.9942 118.8 13.8996 118.7 13.8051C118.5 13.7106 118.3 13.7106 118 13.7106H117.3ZM111.9 11.82L110.6 13.2379L111.9 14.7504V11.82ZM112.8 13.1434H114C114.2 13.1434 114.4 13.1434 114.5 13.0489C114.6 12.9543 114.7 12.7653 114.7 12.5762C114.7 12.2927 114.6 12.1981 114.4 12.1036C114.3 12.1036 114.2 12.1036 114 12.1036H112.7V13.1434H112.8ZM99.2 5.58122L98.6 6.9046H99.7L99.2 5.58122ZM97 8.41704L98.7 4.73047H99.7L101.4 8.41704H100.4L99.9 7.56629H98.4L98 8.41704H97ZM113 6.33743H114.4C114.6 6.33743 114.8 6.33743 114.9 6.24291C115 6.24291 115 6.05385 115 5.8648C115 5.67574 114.9 5.48669 114.7 5.39216C114.6 5.39216 114.5 5.39216 114.3 5.39216H113V6.33743Z" fill="black"/>
<path d="M172.7 16.6375C172.9 16.6375 173.1 16.6375 173.2 16.732C173.4 16.8265 173.5 16.8265 173.6 16.9211C173.7 17.0156 173.8 17.1101 173.9 17.2992C174 17.5827 174 17.8663 173.9 18.1499C173.8 18.2444 173.7 18.4335 173.6 18.528C173.5 18.6226 173.3 18.7171 173.2 18.7171C172.9 18.8116 172.5 18.8116 172.1 18.7171C171.9 18.6226 171.8 18.6226 171.7 18.528C171.6 18.4335 171.5 18.339 171.4 18.1499C171.3 17.8663 171.3 17.5827 171.4 17.2992C171.5 17.2046 171.6 17.0156 171.7 16.9211C171.8 16.8265 172 16.732 172.1 16.732C172.3 16.732 172.5 16.6375 172.7 16.6375ZM165.5 16.6375C165.9 16.6375 166.2 16.732 166.5 16.8265L166.3 17.2046C166.1 17.1101 165.8 17.0156 165.5 17.0156C165.2 17.0156 165 17.1101 165 17.2992C165 17.4882 165.2 17.4882 165.4 17.4882H165.7C166.2 17.5828 166.6 17.7718 166.6 18.1499C166.6 18.528 166.2 18.9061 165.4 18.9061C165 18.9061 164.6 18.8116 164.3 18.6226L164.6 18.2444C164.8 18.4335 165.1 18.4335 165.4 18.4335C165.8 18.4335 166 18.339 166 18.1499C166 18.0554 165.9 17.9609 165.6 17.9609H165.3C164.7 17.8663 164.4 17.6773 164.4 17.2992C164.5 16.9211 164.9 16.6375 165.5 16.6375ZM168 16.0703V16.732H168.9V17.1101H168V18.0554C168 18.2444 168.1 18.4335 168.4 18.4335C168.6 18.4335 168.7 18.4335 168.9 18.339L169.1 18.7171C168.9 18.8116 168.7 18.9061 168.4 18.9061C167.8 18.9061 167.5 18.6226 167.5 18.1499V17.2046H167V16.8265H167.5V16.0703H168ZM162.8 16.6375C163.5 16.6375 164 17.1101 164 17.7718C164 17.8663 164 17.8663 164 17.9609H162.1C162.1 18.2444 162.5 18.528 162.8 18.528C163.1 18.528 163.3 18.4335 163.5 18.339L163.8 18.7171C163.5 18.9061 163.1 19.0007 162.8 19.0007C162.1 19.0007 161.5 18.528 161.5 17.8663C161.5 17.2046 162.1 16.6375 162.8 16.6375ZM159.7 16.6375C160 16.6375 160.3 16.732 160.5 16.9211V16.6375H161V17.6773V18.7171H160.5V18.4335C160.3 18.8116 160 18.9061 159.7 18.9061C159 18.9061 158.4 18.4335 158.4 17.7718C158.4 17.2046 159 16.6375 159.7 16.6375ZM170.8 16.6375C170.9 16.6375 171.1 16.6375 171.2 16.732L171 17.2046C170.9 17.2046 170.8 17.1101 170.7 17.1101C170.3 17.1101 170.2 17.2992 170.2 17.6773V18.9061H169.7V16.8265H170.2V17.0156C170.3 16.8265 170.5 16.6375 170.8 16.6375ZM157 16.6375C157.3 16.6375 157.5 16.732 157.7 16.8265C157.9 17.0156 158 17.2992 158 17.4882V18.8116H157.4V17.6773C157.4 17.2992 157.2 17.1101 156.8 17.1101C156.6 17.1101 156.5 17.2046 156.3 17.2992C156.2 17.3937 156.1 17.5828 156.1 17.6773V18.8116H155.7V17.6773C155.7 17.2992 155.5 17.1101 155.2 17.1101C155 17.1101 154.9 17.2046 154.7 17.2992C154.6 17.3937 154.5 17.5828 154.6 17.6773V18.8116H154V16.732H154.5V17.0156C154.7 16.8265 154.9 16.732 155.2 16.732C155.5 16.732 155.9 16.8265 156 17.1101C156.3 16.8265 156.6 16.6375 157 16.6375ZM172.7 17.1101C172.6 17.1101 172.5 17.1101 172.4 17.2046C172.3 17.2046 172.2 17.2992 172.2 17.2992C172.1 17.3937 172.1 17.3937 172 17.4882C171.9 17.6773 171.9 17.8663 172 18.0554C172 18.1499 172.1 18.2444 172.2 18.2444C172.3 18.339 172.4 18.339 172.4 18.339C172.6 18.4335 172.8 18.4335 173 18.339C173.1 18.339 173.2 18.2444 173.3 18.2444C173.4 18.1499 173.4 18.1499 173.5 18.0554C173.6 17.8663 173.6 17.6773 173.5 17.4882C173.5 17.3937 173.4 17.2992 173.3 17.2992C173.2 17.2046 173.1 17.2046 173 17.2046C172.9 17.1101 172.8 17.1101 172.7 17.1101ZM159.8 17.2046C159.4 17.2046 159 17.4882 159 17.7718C159 17.9609 159.1 18.1499 159.2 18.2444C159.3 18.339 159.5 18.4335 159.8 18.4335C160.2 18.4335 160.5 18.1499 160.6 17.7718C160.5 17.4882 160.2 17.2046 159.8 17.2046ZM162.8 17.1101C162.5 17.1101 162.2 17.2992 162.1 17.5828H163.4C163.4 17.4882 163.3 17.2992 163.2 17.2046C163.1 17.1101 162.9 17.1101 162.8 17.1101Z" fill="black"/>
<path d="M159.5 14.1791C163.642 14.1791 167 11.005 167 7.08955C167 3.1741 163.642 0 159.5 0C155.358 0 152 3.1741 152 7.08955C152 11.005 155.358 14.1791 159.5 14.1791Z" fill="black"/>
<path d="M168.5 14.1791C172.642 14.1791 176 11.005 176 7.08955C176 3.1741 172.642 0 168.5 0C164.358 0 161 3.1741 161 7.08955C161 11.005 164.358 14.1791 168.5 14.1791Z" fill="#AEAEAE" fill-opacity="0.7"/>
<path d="M11.2992 14.0887L12.8992 4.91952H15.4992L13.8992 14.0887H11.2992ZM23.1992 5.10858C22.6992 4.91952 21.8992 4.73047 20.8992 4.73047C18.2992 4.73047 16.4992 5.95932 16.4992 7.75534C16.4992 9.07873 17.7992 9.83495 18.7992 10.2131C19.7992 10.6857 20.0992 10.9693 20.0992 11.3474C20.0992 11.9145 19.2992 12.1981 18.5992 12.1981C17.5992 12.1981 16.9992 12.1036 16.1992 11.7255L15.8992 11.5364L15.4992 13.616C16.0992 13.8996 17.1992 14.0887 18.3992 14.0887C21.0992 14.0887 22.8992 12.8598 22.8992 10.9693C22.8992 9.92947 22.1992 9.17325 20.6992 8.51156C19.7992 8.13345 19.1992 7.84987 19.1992 7.37723C19.1992 6.99913 19.6992 6.62102 20.6992 6.62102C21.4992 6.62102 22.1992 6.81007 22.5992 6.99913L22.7992 7.09365L23.1992 5.10858ZM29.8992 4.91952H27.8992C27.2992 4.91952 26.7992 5.10858 26.4992 5.67574L22.6992 14.0887H25.3992C25.3992 14.0887 25.7992 12.9543 25.8992 12.6708C26.1992 12.6708 28.7992 12.6708 29.1992 12.6708C29.2992 12.9543 29.4992 14.0887 29.4992 14.0887H31.9992L29.8992 4.91952ZM26.6992 10.8747C26.8992 10.3076 27.6992 8.32251 27.6992 8.32251C27.6992 8.32251 27.8992 7.75534 27.9992 7.47176L28.1992 8.22798C28.1992 8.22798 28.6992 10.4021 28.7992 10.8747H26.6992ZM9.09922 4.91952L6.59922 11.1583L6.29922 9.92947C5.79922 8.41704 4.39922 6.81007 2.69922 6.05385L4.99922 14.0887H7.69922L11.7992 4.91952H9.09922Z" fill="black"/>
<path d="M4.2 4.91992H0V5.10898C3.2 5.8652 5.4 7.66122 6.3 9.92987L5.4 5.67614C5.2 5.10898 4.8 4.91992 4.2 4.91992Z" fill="black"/>
</g>
</svg>
