<svg width="16" height="16" viewBox="0 0 16 16" fill="none" xmlns="http://www.w3.org/2000/svg">
<path fill-rule="evenodd" clip-rule="evenodd" d="M6.53782 1.47219e-05H9.46226C9.64942 -9.19334e-05 9.81244 -0.000183451 9.96639 0.0214752C10.5746 0.107028 11.101 0.441209 11.3855 0.922446C11.4575 1.04425 11.509 1.18053 11.568 1.33695L11.6646 1.59209C11.681 1.63528 11.6856 1.6475 11.6895 1.65713C11.8411 2.02594 12.2337 2.27525 12.6788 2.2852C12.6905 2.28545 12.7048 2.2855 12.7568 2.2855H15.3514C15.7096 2.2855 16 2.54131 16 2.85687C16 3.17242 15.7096 3.42824 15.3514 3.42824H0.648645C0.290411 3.42824 0 3.17242 0 2.85687C0 2.54131 0.290411 2.2855 0.648645 2.2855H3.2433C3.29523 2.2855 3.30956 2.28545 3.32126 2.2852C3.76636 2.27525 4.15904 2.02596 4.31048 1.65715C4.31447 1.64745 4.31904 1.63549 4.33547 1.59209L4.43199 1.33697C4.49105 1.18055 4.54253 1.04425 4.61454 0.922446C4.89903 0.441209 5.42538 0.107028 6.03364 0.0214752C6.1876 -0.000183451 6.35067 -9.19334e-05 6.53782 1.47219e-05ZM5.41243 2.2855C5.45697 2.20854 5.49645 2.12856 5.53042 2.04586C5.54073 2.02074 5.55085 1.99401 5.56384 1.95967L5.65015 1.73156C5.729 1.5232 5.74716 1.4807 5.76517 1.45024C5.86 1.28982 6.03545 1.17843 6.2382 1.14991C6.27672 1.14449 6.32818 1.14277 6.57752 1.14277H9.42248C9.67182 1.14277 9.72336 1.14449 9.76185 1.14991C9.96457 1.17843 10.1401 1.28982 10.2349 1.45024C10.2529 1.4807 10.2711 1.52319 10.3499 1.73156L10.4362 1.95953L10.4697 2.04588C10.5036 2.12857 10.5431 2.20854 10.5876 2.2855H5.41243Z" fill="#1E1E1E"/>
<path d="M2.56407 5.14375C2.53948 4.8064 2.22046 4.55116 1.85154 4.57364C1.48262 4.59613 1.20348 4.88784 1.22807 5.2252L1.64176 10.8996C1.71809 11.9466 1.77973 12.7923 1.92431 13.456C2.07463 14.1459 2.3303 14.7223 2.85838 15.1741C3.38647 15.6258 4.03234 15.8208 4.79523 15.912C5.529 15.9998 6.4559 15.9998 7.60348 15.9997H8.38802C9.5356 15.9998 10.4625 15.9998 11.1964 15.912C11.9592 15.8208 12.6051 15.6258 13.1332 15.1741C13.6613 14.7223 13.9169 14.1459 14.0673 13.456C14.2119 12.7924 14.2735 11.9466 14.3498 10.8996L14.7635 5.2252C14.7881 4.88784 14.5089 4.59613 14.14 4.57364C13.7711 4.55116 13.4521 4.8064 13.4275 5.14375L13.0169 10.7752C12.9367 11.8753 12.8796 12.6408 12.7541 13.2168C12.6323 13.7754 12.4625 14.0712 12.2184 14.28C11.9744 14.4888 11.6404 14.6241 11.0226 14.698C10.3858 14.7741 9.54675 14.7753 8.34098 14.7753H7.65061C6.44483 14.7753 5.6057 14.7741 4.96889 14.698C4.35119 14.6241 4.0172 14.4888 3.77314 14.28C3.52908 14.0712 3.35918 13.7754 3.23747 13.2168C3.112 12.6408 3.05484 11.8753 2.97463 10.7752L2.56407 5.14375Z" fill="#1E1E1E"/>
</svg>
