<svg width="12" height="12" viewBox="0 0 12 12" fill="none" xmlns="http://www.w3.org/2000/svg">
<path d="M0.375119 11.4999L8.01182 11.4999C10.2106 11.4999 12 9.68664 12 7.45765C12 5.22865 10.2111 3.41544 8.01182 3.41544L2.59175 3.41544L4.82993 1.14564C4.97584 0.997309 4.97535 0.75796 4.82893 0.610119C4.75572 0.536707 4.6601 0.5 4.56448 0.5C4.46836 0.5 4.37224 0.537209 4.29854 0.611628L1.42339 3.52698C1.42041 3.53 1.41841 3.53352 1.41543 3.53654C1.40148 3.55162 1.38803 3.56721 1.37708 3.5843C1.3706 3.59386 1.36612 3.60442 1.36114 3.61397C1.35467 3.62554 1.34769 3.6366 1.34271 3.64917C1.33773 3.66174 1.33474 3.67481 1.33076 3.68739C1.32777 3.69795 1.32329 3.7085 1.3213 3.71957C1.31632 3.74421 1.31383 3.76884 1.31383 3.79348C1.31383 3.81812 1.31632 3.84276 1.3213 3.8674C1.32329 3.87846 1.32727 3.88802 1.33026 3.89858C1.33425 3.91165 1.33724 3.92523 1.34222 3.9378C1.3472 3.94986 1.35417 3.96093 1.36014 3.97249C1.36562 3.98255 1.37011 3.99311 1.37658 4.00266C1.38853 4.02076 1.40198 4.03685 1.41642 4.05244C1.41891 4.05496 1.42041 4.05797 1.4224 4.05999L1.4229 4.06049L4.29702 6.97494C4.44294 7.12327 4.6805 7.12377 4.82743 6.97595C4.97434 6.82862 4.97483 6.58877 4.82842 6.44043L2.59024 4.17063L8.01172 4.17264C9.79716 4.17264 11.2498 5.6464 11.2498 7.45769C11.2493 9.26884 9.79704 10.7427 8.01172 10.7427L0.375015 10.7427C0.167836 10.7427 1.85596e-06 10.9122 1.87425e-06 11.1214C1.89253e-06 11.3305 0.167836 11.5 0.375015 11.5L0.375119 11.4999Z" fill="black"/>
</svg>
