<svg width="16" height="14" viewBox="0 0 16 14" fill="none" xmlns="http://www.w3.org/2000/svg">
<path d="M4.69897 0C3.75918 0 2.96035 0.632217 2.70191 1.49859H0.563877C0.234949 1.49859 0 1.75616 0 2.08397C0 2.41179 0.258443 2.66936 0.587372 2.66936H2.7254C2.96035 3.53573 3.78267 4.16795 4.72247 4.16795C5.68576 4.16795 6.48458 3.53573 6.74303 2.66936H15.4126C15.7416 2.66936 16 2.41179 16 2.08397C16 1.75616 15.7416 1.49859 15.4126 1.49859H6.74303C6.46109 0.632217 5.66226 0 4.69897 0ZM4.72247 1.17077C5.21586 1.17077 5.63877 1.56883 5.63877 2.08397C5.63877 2.59911 5.21586 2.99718 4.72247 2.99718C4.22907 2.99718 3.80617 2.59911 3.80617 2.08397C3.80617 1.56883 4.22907 1.17077 4.72247 1.17077Z" fill="black"/>
<path d="M11.7709 4.68359C10.8311 4.68359 10.0323 5.31581 9.77386 6.18218H0.587372C0.234949 6.18218 0 6.43975 0 6.76757C0 7.09538 0.258443 7.35295 0.587372 7.35295H9.77386C10.0088 8.21932 10.8311 8.85154 11.7709 8.85154C12.7342 8.85154 13.533 8.21932 13.7915 7.35295H15.4126C15.7416 7.35295 16 7.09538 16 6.76757C16 6.43975 15.7416 6.18218 15.4126 6.18218H13.7915C13.533 5.31581 12.7342 4.68359 11.7709 4.68359ZM11.7944 5.85437C12.2878 5.85437 12.7107 6.25243 12.7107 6.76757C12.7107 7.28271 12.2878 7.68077 11.7944 7.68077C11.301 7.68077 10.8781 7.28271 10.8781 6.76757C10.8781 6.25243 11.2775 5.85437 11.7944 5.85437Z" fill="black"/>
<path d="M7.51836 9.83203C6.57856 9.83203 5.77974 10.4642 5.52129 11.3306H0.587372C0.234949 11.3306 0 11.5882 0 11.916C0 12.2438 0.258443 12.5014 0.587372 12.5014H5.54479C5.77974 13.3678 6.60206 14 7.54185 14C8.50514 14 9.30396 13.3678 9.56241 12.5014H15.4126C15.7416 12.5014 16 12.2438 16 11.916C16 11.5882 15.7416 11.3306 15.4126 11.3306H9.53891C9.28047 10.4642 8.48164 9.83203 7.51836 9.83203ZM7.54185 11.0028C8.03524 11.0028 8.45815 11.4009 8.45815 11.916C8.45815 12.4311 8.03524 12.8292 7.54185 12.8292C7.04846 12.8292 6.62555 12.4311 6.62555 11.916C6.64905 11.4009 7.04846 11.0028 7.54185 11.0028Z" fill="black"/>
</svg>
