<svg width="52" height="24" viewBox="0 0 52 24" fill="none" xmlns="http://www.w3.org/2000/svg">
<g clip-path="url(#clip0_1775_461)">
<path d="M24.5701 12.4092V18.2675H22.6201V3.7793H27.6901C28.9251 3.7793 30.0951 4.22024 31.0051 5.03914C31.9151 5.79505 32.3701 6.9289 32.3701 8.12575C32.3701 9.3226 31.9151 10.3935 31.0051 11.2124C30.0951 12.0313 28.9901 12.4722 27.6901 12.4722L24.5701 12.4092ZM24.5701 5.54308V10.5824H27.8201C28.5351 10.5824 29.2501 10.3305 29.7051 9.82654C30.7451 8.88166 30.7451 7.30686 29.7701 6.36197L29.7051 6.29898C29.1851 5.79505 28.5351 5.48008 27.8201 5.54308H24.5701Z" fill="black"/>
<path d="M36.8551 8.0625C38.2851 8.0625 39.3901 8.44045 40.2351 9.19636C41.0801 9.95226 41.4701 10.9601 41.4701 12.22V18.2672H39.6501V16.8814H39.5851C38.8051 18.0153 37.7001 18.5822 36.4001 18.5822C35.2951 18.5822 34.3201 18.2672 33.5401 17.6373C32.8251 17.0074 32.3701 16.1255 32.3701 15.1806C32.3701 14.1727 32.7601 13.3538 33.5401 12.7239C34.3201 12.094 35.4251 11.842 36.7251 11.842C37.8951 11.842 38.8051 12.031 39.5201 12.4719V12.031C39.5201 11.4011 39.2601 10.7712 38.7401 10.3932C38.2201 9.95226 37.5701 9.70029 36.8551 9.70029C35.7501 9.70029 34.9051 10.1412 34.3201 11.0231L32.6301 10.0153C33.6701 8.69242 35.0351 8.0625 36.8551 8.0625ZM34.3851 15.2436C34.3851 15.7475 34.6451 16.1885 35.0351 16.4405C35.4901 16.7554 36.0101 16.9444 36.5301 16.9444C37.3101 16.9444 38.0901 16.6294 38.6751 16.0625C39.3251 15.4956 39.6501 14.8027 39.6501 14.0468C39.0651 13.6058 38.2201 13.3538 37.1151 13.3538C36.3351 13.3538 35.6851 13.5428 35.1651 13.9208C34.6451 14.2357 34.3851 14.6767 34.3851 15.2436Z" fill="black"/>
<path d="M51.9999 8.37891L45.5649 22.6781H43.6149L46.0199 17.7017L41.7949 8.4419H43.8749L46.9299 15.56H46.9949L49.9849 8.4419H51.9999V8.37891Z" fill="black"/>
<path d="M16.8351 11.15C16.8351 10.5831 16.7701 10.0161 16.7051 9.44922H8.58008V12.6618H13.1951C13.0001 13.6697 12.4151 14.6146 11.5051 15.1815V17.2602H14.3001C15.9251 15.8114 16.8351 13.6697 16.8351 11.15Z" fill="#4285F4"/>
<path d="M8.57991 19.2753C10.9199 19.2753 12.8699 18.5194 14.2999 17.2596L11.5049 15.1808C10.7249 15.6848 9.74991 15.9997 8.57991 15.9997C6.36991 15.9997 4.41991 14.5509 3.76991 12.5352H0.909912V14.6769C2.40491 17.5115 5.32991 19.2753 8.57991 19.2753Z" fill="#34A853"/>
<path d="M3.76989 12.536C3.37989 11.5281 3.37989 10.3942 3.76989 9.32337V7.18164H0.909893C-0.325107 9.51235 -0.325107 12.284 0.909893 14.6777L3.76989 12.536Z" fill="#FBBC04"/>
<path d="M8.5801 5.92156C9.8151 5.92156 10.9851 6.3625 11.8951 7.1814L14.3651 4.7877C12.8051 3.40187 10.7251 2.58298 8.6451 2.64597C5.3951 2.64597 2.4051 4.40975 0.975098 7.24439L3.8351 9.38613C4.4201 7.37038 6.3701 5.92156 8.5801 5.92156Z" fill="#EA4335"/>
</g>
<defs>
<clipPath id="clip0_1775_461">
<rect width="52" height="24" fill="white"/>
</clipPath>
</defs>
</svg>
