<svg width="42" height="20" viewBox="0 0 42 20" fill="none" xmlns="http://www.w3.org/2000/svg">
<g clip-path="url(#clip0_1784_1827)">
<path d="M19.845 10.342V15.2239H18.27V3.15039H22.365C23.3625 3.15039 24.3075 3.51784 25.0425 4.20026C25.7775 4.83018 26.145 5.77506 26.145 6.77244C26.145 7.76981 25.7775 8.6622 25.0425 9.34462C24.3075 10.027 23.415 10.3945 22.365 10.3945L19.845 10.342ZM19.845 4.62021V8.81968H22.47C23.0475 8.81968 23.625 8.60971 23.9925 8.18976C24.8325 7.40236 24.8325 6.09002 24.045 5.30262L23.9925 5.25013C23.5725 4.83018 23.0475 4.56771 22.47 4.62021H19.845Z" fill="white"/>
<path d="M29.7675 6.71875C30.9225 6.71875 31.815 7.03371 32.4975 7.66363C33.18 8.29355 33.495 9.13345 33.495 10.1833V15.2227H32.025V14.0678H31.9725C31.3425 15.0127 30.45 15.4852 29.4 15.4852C28.5075 15.4852 27.72 15.2227 27.09 14.6978C26.5125 14.1728 26.145 13.4379 26.145 12.6505C26.145 11.8106 26.46 11.1282 27.09 10.6033C27.72 10.0783 28.6125 9.86836 29.6625 9.86836C30.6075 9.86836 31.3425 10.0258 31.92 10.3933V10.0258C31.92 9.5009 31.71 8.97597 31.29 8.66101C30.87 8.29355 30.345 8.08358 29.7675 8.08358C28.875 8.08358 28.1925 8.45103 27.72 9.18594L26.355 8.34605C27.195 7.24368 28.2975 6.71875 29.7675 6.71875ZM27.7725 12.703C27.7725 13.123 27.9825 13.4904 28.2975 13.7004C28.665 13.9628 29.085 14.1203 29.505 14.1203C30.135 14.1203 30.765 13.8579 31.2375 13.3854C31.7625 12.913 32.025 12.3355 32.025 11.7056C31.5525 11.3382 30.87 11.1282 29.9775 11.1282C29.3475 11.1282 28.8225 11.2857 28.4025 11.6006C27.9825 11.8631 27.7725 12.2306 27.7725 12.703Z" fill="white"/>
<path d="M42.0001 6.98242L36.8026 18.8984H35.2276L37.1701 14.7515L33.7576 7.03492H35.4376L37.9051 12.9667H37.9576L40.3726 7.03492H42.0001V6.98242Z" fill="white"/>
<path d="M13.5974 9.29037C13.5974 8.81793 13.5449 8.34549 13.4924 7.87305H6.92993V10.5502H10.6574C10.4999 11.3901 10.0274 12.1775 9.29243 12.65V14.3822H11.5499C12.8624 13.1749 13.5974 11.3901 13.5974 9.29037Z" fill="#4285F4"/>
<path d="M6.93011 16.0621C8.82011 16.0621 10.3951 15.4322 11.5501 14.3823L9.29261 12.65C8.66261 13.07 7.87511 13.3325 6.93011 13.3325C5.14511 13.3325 3.57011 12.1251 3.04511 10.4453H0.735107V12.2301C1.94261 14.5923 4.30511 16.0621 6.93011 16.0621Z" fill="#34A853"/>
<path d="M3.04494 10.4463C2.72994 9.60642 2.72994 8.66154 3.04494 7.76915V5.98438H0.734941C-0.262559 7.92663 -0.262559 10.2363 0.734941 12.2311L3.04494 10.4463Z" fill="#FBBC04"/>
<path d="M6.9301 4.93366C7.9276 4.93366 8.8726 5.30111 9.6076 5.98352L11.6026 3.98877C10.3426 2.83392 8.6626 2.1515 6.9826 2.204C4.3576 2.204 1.9426 3.67381 0.787598 6.03602L3.0976 7.82079C3.5701 6.141 5.1451 4.93366 6.9301 4.93366Z" fill="#EA4335"/>
</g>
<defs>
<clipPath id="clip0_1784_1827">
<rect width="42" height="20" fill="white"/>
</clipPath>
</defs>
</svg>
