<svg width="17" height="16" viewBox="0 0 17 16" fill="none" xmlns="http://www.w3.org/2000/svg">
<path d="M8.07751 2.49677L8.50138 3.17424L8.92526 2.49677C9.68763 1.27827 10.9433 0.503165 12.3407 0.503057C14.5936 0.505913 16.4999 2.53918 16.5 5.15384C16.4973 6.36698 16.0779 7.4622 15.4023 8.28589L15.3904 8.29919L15.3353 8.36064C15.287 8.41453 15.216 8.49366 15.1254 8.59441C14.944 8.79593 14.6841 9.08394 14.37 9.42959C13.7416 10.1211 12.8971 11.0424 12.0317 11.9633C11.1651 12.8853 10.282 13.802 9.57502 14.4863C9.22047 14.8294 8.91769 15.1069 8.68717 15.2959C8.61088 15.3584 8.54685 15.4077 8.49475 15.4449C8.44098 15.406 8.37464 15.3544 8.29536 15.2886C8.06042 15.0937 7.75143 14.8079 7.38956 14.4547C6.66792 13.7505 5.76515 12.8073 4.87902 11.8589C3.99395 10.9116 3.12979 9.96383 2.48661 9.25254C2.1651 8.89698 1.899 8.60072 1.71333 8.39342C1.6205 8.28977 1.54779 8.20837 1.49833 8.15294L1.44196 8.08971L1.43805 8.08532C0.853907 7.28805 0.5 6.26521 0.5 5.14482C0.5 2.531 2.41097 0.5 4.66455 0.5C6.06112 0.5 7.31452 1.27728 8.07751 2.49677Z" stroke="#8C8C8C"/>
</svg>
