<svg width="19" height="20" viewBox="0 0 19 20" fill="none" xmlns="http://www.w3.org/2000/svg">
<path d="M9.50007 0C8.6784 0 7.85556 0.347088 7.23143 1.04253L1.28099 7.68802C0.460489 8.604 0 9.84745 0 11.1419V16.9677C0 18.6339 1.22139 20.0013 2.71395 20H5.3905C6.25307 20 6.96603 19.2054 6.96603 18.2411V14.2301C6.96603 12.6813 8.07875 11.4405 9.46611 11.4405H9.53273C10.9201 11.4405 12.0328 12.68 12.0328 14.2301V18.2411C12.0328 19.2041 12.7446 20 13.6083 20H16.286C17.7786 20 19 18.6339 19 16.9677V11.1419C19 9.84621 18.5395 8.60273 17.719 7.68802L11.7686 1.04253C11.1444 0.345786 10.3217 0 9.50007 0Z" fill="black"/>
</svg>
