<svg width="97" height="25" viewBox="0 0 97 25" fill="none" xmlns="http://www.w3.org/2000/svg">
<path d="M7.86375 24L0.75975 7.008H6.42375L10.6478 19.584L9.39975 19.744L13.7518 7.008H19.3838L11.8958 24H7.86375ZM29.6805 24.32C27.8032 24.32 26.1605 23.9467 24.7525 23.2C23.3658 22.4533 22.2885 21.4293 21.5205 20.128C20.7738 18.8053 20.4005 17.3013 20.4005 15.616C20.4005 14.2933 20.6138 13.088 21.0405 12C21.4672 10.8907 22.0645 9.94133 22.8325 9.152C23.6218 8.36267 24.5392 7.75467 25.5845 7.328C26.6512 6.88 27.8138 6.656 29.0725 6.656C30.2672 6.656 31.3552 6.86933 32.3365 7.296C33.3178 7.72267 34.1712 8.32 34.8965 9.088C35.6218 9.856 36.1765 10.7627 36.5605 11.808C36.9445 12.8533 37.1258 13.9947 37.1045 15.232L37.0725 16.64H23.5685L22.8005 13.728H32.8805L32.3365 14.304V13.664C32.2938 13.1307 32.1232 12.672 31.8245 12.288C31.5472 11.8827 31.1738 11.5627 30.7045 11.328C30.2565 11.0933 29.7445 10.976 29.1685 10.976C28.3152 10.976 27.5898 11.1467 26.9925 11.488C26.4165 11.808 25.9792 12.2773 25.6805 12.896C25.3818 13.5147 25.2325 14.2827 25.2325 15.2C25.2325 16.1173 25.4245 16.928 25.8085 17.632C26.2138 18.336 26.7898 18.88 27.5365 19.264C28.3045 19.648 29.2112 19.84 30.2565 19.84C30.9605 19.84 31.6005 19.7333 32.1765 19.52C32.7525 19.3067 33.3712 18.944 34.0325 18.432L36.4325 21.824C35.7712 22.3787 35.0672 22.848 34.3205 23.232C33.5738 23.5947 32.8058 23.8613 32.0165 24.032C31.2485 24.224 30.4698 24.32 29.6805 24.32ZM40.3658 24V0.32H45.5178V24H40.3658ZM50.0845 24V0.32H55.2365V24H50.0845ZM67.4588 24.32C65.7094 24.32 64.1414 23.9467 62.7548 23.2C61.3681 22.432 60.2801 21.3867 59.4908 20.064C58.7014 18.72 58.3068 17.2053 58.3068 15.52C58.3068 13.792 58.7014 12.2667 59.4908 10.944C60.2801 9.6 61.3681 8.55467 62.7548 7.808C64.1414 7.04 65.7094 6.656 67.4588 6.656C69.2294 6.656 70.7974 7.04 72.1628 7.808C73.5494 8.55467 74.6374 9.6 75.4268 10.944C76.2161 12.2667 76.6108 13.792 76.6108 15.52C76.6108 17.2053 76.2161 18.72 75.4268 20.064C74.6374 21.3867 73.5494 22.432 72.1628 23.2C70.7974 23.9467 69.2294 24.32 67.4588 24.32ZM67.4588 19.904C68.2268 19.904 68.8988 19.712 69.4748 19.328C70.0721 18.944 70.5414 18.4213 70.8828 17.76C71.2241 17.0987 71.3841 16.352 71.3628 15.52C71.3841 14.6453 71.2241 13.8773 70.8828 13.216C70.5414 12.5333 70.0721 12.0107 69.4748 11.648C68.8988 11.264 68.2268 11.072 67.4588 11.072C66.7121 11.072 66.0401 11.264 65.4427 11.648C64.8454 12.032 64.3761 12.5547 64.0348 13.216C63.6934 13.8773 63.5228 14.6453 63.5228 15.52C63.5228 16.352 63.6934 17.0987 64.0348 17.76C64.3761 18.4213 64.8454 18.944 65.4427 19.328C66.0401 19.712 66.7121 19.904 67.4588 19.904ZM84.7388 24L77.6348 7.008H83.2988L87.5228 19.584L86.2748 19.744L90.6268 7.008H96.2588L88.7708 24H84.7388Z" fill="#222124"/>
</svg>
