<svg width="12" height="15" viewBox="0 0 12 15" fill="none" xmlns="http://www.w3.org/2000/svg">
<path fill-rule="evenodd" clip-rule="evenodd" d="M1.24337 5.51622H1.47305V4.4085C1.47305 1.98905 3.51599 0 5.99931 0C8.4847 0 10.527 1.98636 10.527 4.4085V5.51622H10.7566C11.4403 5.51622 12 6.0622 12 6.72761V13.7906C12 14.456 11.4403 15 10.7566 15H1.24337C0.559722 15 0 14.456 0 13.7906V6.72761C0 6.0622 0.559722 5.51622 1.24337 5.51622ZM3.01749 5.51622H8.98182V4.4085C8.98182 2.80731 7.64213 1.50472 5.99931 1.50472C4.79567 1.50472 3.70514 2.22328 3.2432 3.30411C3.09839 3.64206 3.01756 4.01743 3.01756 4.40853L3.01749 5.51622ZM6.00069 8.49744C6.61968 8.49744 7.12148 8.98634 7.12148 9.5894C7.12148 10.0343 6.84937 10.4169 6.45735 10.5875V12.0194H5.54267V10.5875C5.15067 10.4169 4.87854 10.035 4.87854 9.5894C4.87854 8.98634 5.38036 8.49744 6.00069 8.49744Z" fill="black"/>
</svg>
