<svg width="34" height="10" viewBox="0 0 34 10" fill="none" xmlns="http://www.w3.org/2000/svg">
<path fill-rule="evenodd" clip-rule="evenodd" d="M32.0748 0.559533L31.0261 7.40311C31.0057 7.53559 31.1055 7.65553 31.2363 7.65553H32.2913C32.4659 7.65553 32.6149 7.52513 32.6418 7.34801L33.6761 0.627426C33.6965 0.494946 33.5967 0.375 33.4655 0.375H32.2854C32.1802 0.375 32.091 0.453079 32.0748 0.559533Z" fill="white"/>
<path fill-rule="evenodd" clip-rule="evenodd" d="M18.9281 2.79688H17.6982C17.5806 2.79688 17.4705 2.85671 17.4046 2.95671L15.7079 5.51954L14.9889 3.05677C14.9438 2.90263 14.8054 2.79688 14.6486 2.79688H13.4397C13.2938 2.79688 13.191 2.94423 13.2381 3.08583L14.5923 7.16317L13.3185 9.00653C13.2187 9.15117 13.3195 9.35122 13.4925 9.35122H14.7211C14.8374 9.35122 14.9464 9.29277 15.013 9.19479L19.1031 3.13986C19.2009 2.9949 19.1002 2.79688 18.9281 2.79688Z" fill="white"/>
<path fill-rule="evenodd" clip-rule="evenodd" d="M28.9332 5.24081C28.8149 5.95787 28.26 6.43942 27.552 6.43942C27.1971 6.43942 26.9128 6.32219 26.7303 6.10049C26.5491 5.88086 26.4812 5.56758 26.5385 5.21921C26.6485 4.50822 27.2126 4.01147 27.9098 4.01147C28.2574 4.01147 28.5394 4.12971 28.7256 4.35345C28.913 4.57883 28.9868 4.89377 28.9332 5.24081ZM30.6385 2.79798H29.4148C29.3101 2.79798 29.2208 2.87606 29.2043 2.98251L29.1506 3.33323L29.0649 3.20619C28.8 2.81185 28.2093 2.67969 27.6195 2.67969C26.2677 2.67969 25.1129 3.73067 24.8882 5.20433C24.7712 5.93963 24.9373 6.64219 25.3439 7.13254C25.7171 7.58299 26.2499 7.77051 26.8848 7.77051C27.9747 7.77051 28.5789 7.05275 28.5789 7.05275L28.5243 7.4015C28.5039 7.53398 28.6037 7.65393 28.7348 7.65393H29.8366C30.0115 7.65393 30.1601 7.52385 30.1875 7.34678L30.8491 3.05041C30.8695 2.91793 30.7693 2.79798 30.6385 2.79798Z" fill="white"/>
<path fill-rule="evenodd" clip-rule="evenodd" d="M10.7066 5.24081C10.5883 5.95787 10.0335 6.43942 9.32543 6.43942C8.97059 6.43942 8.68625 6.32219 8.50373 6.10049C8.32282 5.88086 8.25465 5.56758 8.31196 5.21921C8.42204 4.50822 8.98608 4.01147 9.68325 4.01147C10.0309 4.01147 10.3129 4.12971 10.499 4.35345C10.6865 4.57883 10.7603 4.89377 10.7066 5.24081ZM12.4119 2.79798H11.1883C11.0835 2.79798 10.9942 2.87606 10.9777 2.98251L10.9241 3.33323L10.8387 3.20619C10.5735 2.81185 9.98277 2.67969 9.39298 2.67969C8.04114 2.67969 6.88632 3.73067 6.66163 5.20433C6.54468 5.93963 6.71072 6.64219 7.11731 7.13254C7.49061 7.58299 8.02336 7.77051 8.65828 7.77051C9.74814 7.77051 10.3524 7.05275 10.3524 7.05275L10.2977 7.4015C10.2773 7.53398 10.3771 7.65393 10.5083 7.65393H11.61C11.785 7.65393 11.9335 7.52385 11.9609 7.34678L12.6225 3.05041C12.6429 2.91793 12.5428 2.79798 12.4119 2.79798Z" fill="white"/>
<path fill-rule="evenodd" clip-rule="evenodd" d="M5.06519 2.82967C4.92552 3.77047 4.22502 3.77047 3.54731 3.77047H3.16183L3.43234 2.01393C3.44846 1.90785 3.53774 1.82977 3.64252 1.82977H3.81948C4.28072 1.82977 4.71632 1.82977 4.94101 2.09911C5.07543 2.26028 5.11594 2.49953 5.06519 2.82967ZM4.77035 0.375H2.21491C2.03998 0.375 1.89137 0.505454 1.86402 0.682521L0.830775 7.40311C0.810391 7.53559 0.91018 7.65559 1.04101 7.65559H2.2614C2.43602 7.65559 2.58458 7.52513 2.61193 7.34839L2.89102 5.53511C2.918 5.35804 3.06693 5.22759 3.24155 5.22759H4.0501C5.73339 5.22759 6.70501 4.39223 6.95872 2.73607C7.07301 2.01223 6.96329 1.44321 6.63283 1.04476C6.26946 0.60684 5.62533 0.375 4.77035 0.375Z" fill="white"/>
<path fill-rule="evenodd" clip-rule="evenodd" d="M23.2918 2.82967C23.1521 3.77047 22.4516 3.77047 21.7739 3.77047H21.3884L21.6589 2.01393C21.675 1.90785 21.7643 1.82977 21.8691 1.82977H22.046C22.5073 1.82977 22.9428 1.82977 23.1675 2.09911C23.3019 2.26028 23.3425 2.49953 23.2918 2.82967ZM22.9969 0.375H20.4415C20.2665 0.375 20.1179 0.505454 20.0906 0.682521L19.0573 7.40311C19.0369 7.53559 19.1371 7.65559 19.2676 7.65559H20.5789C20.7011 7.65559 20.8052 7.56433 20.8243 7.44065L21.1175 5.53511C21.1446 5.35804 21.2935 5.22759 21.4681 5.22759H22.2767C23.96 5.22759 24.9316 4.39223 25.1852 2.73607C25.2996 2.01223 25.1899 1.44321 24.8594 1.04476C24.496 0.60684 23.8518 0.375 22.9969 0.375Z" fill="white"/>
</svg>
