<svg width="21" height="15" viewBox="0 0 21 15" fill="none" xmlns="http://www.w3.org/2000/svg">
<path d="M14.1111 12.7551H1.78231C1.29314 12.7551 0.847295 12.5545 0.524478 12.232C0.200591 11.9094 0 11.4633 0 10.9731V2.61994C0 2.12969 0.200591 1.68358 0.52314 1.36103L0.544002 1.34177C0.865214 1.03046 1.30304 0.837891 1.78231 0.837891H17.151C17.6402 0.837891 18.0852 1.03821 18.4086 1.36103L18.4107 1.36317C18.733 1.68626 18.9331 2.13103 18.9331 2.61994V7.86043C19.0853 7.97009 19.2283 8.09205 19.3607 8.22444C19.9906 8.85269 20.38 9.72245 20.38 10.6826C20.38 11.6412 19.9906 12.5104 19.3613 13.1402L19.3591 13.1424C18.7293 13.7712 17.8606 14.1603 16.9026 14.1603C15.944 14.1603 15.0748 13.7709 14.4449 13.1416L14.4428 13.1394C14.3232 13.0196 14.2125 12.8912 14.1111 12.7551ZM18.2537 7.47797V5.87378H0.679333V10.9731C0.679333 11.2758 0.803699 11.5518 1.00349 11.7516C1.20247 11.9517 1.47875 12.0758 1.78231 12.0758H13.7158C13.5286 11.6489 13.4249 11.1777 13.4249 10.6826C13.4249 9.72405 13.8143 8.85483 14.4436 8.22497L14.4457 8.22283C15.0756 7.59405 15.9443 7.2049 16.9026 7.2049C17.3816 7.2049 17.8384 7.30199 18.2537 7.47797ZM18.8812 8.70318C18.376 8.19716 17.676 7.88423 16.9026 7.88423C16.1291 7.88423 15.4292 8.19716 14.9239 8.70264C14.4171 9.2092 14.1042 9.90913 14.1042 10.6826C14.1042 11.4561 14.4171 12.156 14.9226 12.6612C15.4292 13.1681 16.1291 13.481 16.9026 13.481C17.6758 13.481 18.3757 13.1681 18.8809 12.6626C19.3877 12.156 19.7007 11.4561 19.7007 10.6826C19.7007 9.90993 19.3872 9.21 18.8812 8.70318ZM18.0055 8.77405C18.193 8.77405 18.3452 8.92624 18.3452 9.11372C18.3452 9.30121 18.193 9.45339 18.0055 9.45339H17.2422V10.3905H18.0055C18.193 10.3905 18.3452 10.5427 18.3452 10.7302V12.3464C18.3452 12.5339 18.193 12.6861 18.0055 12.6861H17.2422V12.9926C17.2422 13.1801 17.09 13.3323 16.9026 13.3323C16.7151 13.3323 16.5629 13.1801 16.5629 12.9926V12.6861H15.7999C15.6124 12.6861 15.4602 12.5339 15.4602 12.3464C15.4602 12.159 15.6124 12.0068 15.7999 12.0068H16.5629V11.0699H15.7999C15.6124 11.0699 15.4602 10.9177 15.4602 10.7302V9.11372C15.4602 8.92624 15.6124 8.77405 15.7999 8.77405H16.5629V8.37234C16.5629 8.18485 16.7151 8.03267 16.9026 8.03267C17.09 8.03267 17.2422 8.18485 17.2422 8.37234V8.77405H18.0055ZM16.5629 9.45339H16.1395V10.3905H16.5629V9.45339ZM17.6659 11.0699H17.2422V12.0068H17.6659V11.0699ZM18.2537 5.19445V4.24365H0.679333V5.19445H18.2537ZM18.2537 3.56432V2.61994C18.2537 2.31611 18.1299 2.04036 17.9309 1.84138C17.7306 1.64105 17.4549 1.51722 17.151 1.51722H1.78231C1.48651 1.51722 1.21665 1.63517 1.0182 1.8256L1.00349 1.84138C0.803699 2.04117 0.679333 2.31718 0.679333 2.61994V3.56432H18.2537Z" fill="black"/>
</svg>
