<svg width="49" height="13" viewBox="0 0 49 13" fill="none" xmlns="http://www.w3.org/2000/svg">
<path d="M1.90378 0C1.76384 0 1.64497 0.101596 1.62309 0.239935L0.00317685 10.513C-0.00270935 10.5505 -0.000396504 10.5889 0.00995375 10.6254C0.020304 10.662 0.0384508 10.6958 0.0631396 10.7247C0.0878283 10.7536 0.118467 10.7767 0.152967 10.7926C0.187467 10.8085 0.225006 10.8168 0.262991 10.8168H2.18408C2.32382 10.8168 2.44289 10.715 2.46477 10.5768L2.94063 7.56007C2.96231 7.42193 3.08138 7.32013 3.22132 7.32013H4.96792C7.00868 7.32013 8.74104 5.83113 9.05747 3.81346C9.37652 1.77873 7.78692 0.00441722 5.53394 0H1.90378ZM3.77127 2.29334H5.16871C6.31919 2.29334 6.69386 2.97218 6.5754 3.72291C6.45694 4.47524 5.87507 5.0294 4.76213 5.0294H3.33978L3.77127 2.29334ZM12.9647 2.99166C12.4796 2.99347 11.9214 3.09285 11.2948 3.35387C9.85739 3.95301 9.1671 5.19123 8.87396 6.09395C8.87396 6.09395 7.94092 8.84808 10.0489 10.3612C10.0489 10.3612 12.004 11.8179 14.2047 10.2714L14.1668 10.513C14.1609 10.5505 14.1632 10.5888 14.1735 10.6253C14.1839 10.6618 14.202 10.6957 14.2266 10.7245C14.2513 10.7534 14.2818 10.7766 14.3163 10.7925C14.3507 10.8084 14.3882 10.8167 14.4262 10.8168H16.2499C16.3898 10.8168 16.5087 10.715 16.5306 10.5768L17.6399 3.5418C17.6459 3.50428 17.6436 3.46592 17.6333 3.42935C17.623 3.39278 17.6049 3.35888 17.5803 3.32997C17.5556 3.30106 17.525 3.27784 17.4905 3.2619C17.456 3.24596 17.4185 3.23767 17.3805 3.23762H15.5568C15.4169 3.23762 15.2978 3.33942 15.2761 3.47755L15.2165 3.85623C15.2165 3.85623 14.4202 2.98624 12.9647 2.99166ZM13.0243 5.21372C13.2337 5.21372 13.4253 5.24263 13.5972 5.29785C14.384 5.55043 14.8302 6.30638 14.7011 7.12577C14.5418 8.1347 13.7144 8.8776 12.6533 8.8776C12.4441 8.8776 12.2525 8.84889 12.0804 8.79367C11.2938 8.54109 10.8448 7.78514 10.9739 6.96575C11.1332 5.95682 11.9632 5.21372 13.0243 5.21372Z" fill="white"/>
<path d="M28.1645 0C28.0246 0 27.9057 0.101596 27.8838 0.239935L26.2639 10.513C26.258 10.5505 26.2603 10.5889 26.2707 10.6254C26.281 10.662 26.2992 10.6958 26.3239 10.7247C26.3486 10.7536 26.3792 10.7767 26.4137 10.7926C26.4482 10.8085 26.4857 10.8168 26.5237 10.8168H28.4448C28.5846 10.8168 28.7036 10.715 28.7255 10.5768L29.2014 7.56007C29.2231 7.42193 29.3421 7.32013 29.4821 7.32013H31.2287C33.2694 7.32013 35.0016 5.83113 35.3178 3.81346C35.6371 1.77873 34.0477 0.00441722 31.7947 0H28.1645ZM30.032 2.29334H31.4295C32.5799 2.29334 32.9546 2.97218 32.8361 3.72291C32.7177 4.47524 32.136 5.0294 31.0229 5.0294H29.6005L30.032 2.29334ZM39.2252 2.99166C38.7401 2.99347 38.182 3.09285 37.5553 3.35387C36.1179 3.95301 35.4276 5.19123 35.1345 6.09395C35.1345 6.09395 34.2019 8.84808 36.3099 10.3612C36.3099 10.3612 38.2645 11.8179 40.4655 10.2714L40.4275 10.513C40.4216 10.5505 40.4239 10.5889 40.4343 10.6254C40.4446 10.662 40.4628 10.6958 40.4875 10.7247C40.5122 10.7536 40.5428 10.7767 40.5773 10.7926C40.6118 10.8085 40.6494 10.8168 40.6873 10.8168H42.5108C42.6508 10.8168 42.7697 10.715 42.7915 10.5768L43.9013 3.5418C43.9072 3.50425 43.905 3.46585 43.8946 3.42925C43.8843 3.39265 43.8662 3.35873 43.8415 3.32982C43.8168 3.3009 43.7861 3.27769 43.7516 3.26177C43.7171 3.24586 43.6795 3.23761 43.6415 3.23762H41.8177C41.6778 3.23762 41.5587 3.33942 41.537 3.47755L41.4774 3.85623C41.4774 3.85623 40.6807 2.98624 39.2252 2.99166ZM39.2849 5.21372C39.4943 5.21372 39.6858 5.24263 39.8577 5.29785C40.6446 5.55043 41.0907 6.30638 40.9616 7.12577C40.8024 8.1347 39.975 8.8776 38.9138 8.8776C38.7046 8.8776 38.5131 8.84889 38.341 8.79367C37.5543 8.54109 37.1054 7.78514 37.2345 6.96575C37.3937 5.95682 38.2237 5.21372 39.2849 5.21372Z" fill="white"/>
<path d="M18.506 3.23848C18.3615 3.23848 18.2587 3.37963 18.3028 3.51717L20.3022 9.72155L18.4944 12.6453C18.4066 12.7873 18.5086 12.9706 18.6755 12.9706H20.8122C20.8733 12.9706 20.9334 12.9548 20.9866 12.9247C21.0398 12.8947 21.0844 12.8514 21.116 12.7991L26.7 3.56174C26.7857 3.41979 26.6833 3.23828 26.5174 3.23828H24.3809C24.3192 3.23833 24.2586 3.25445 24.205 3.28504C24.1514 3.31564 24.1067 3.35965 24.0753 3.41276L21.8774 7.12362L20.7616 3.44027C20.7253 3.3204 20.6146 3.23828 20.4895 3.23828L18.506 3.23848Z" fill="white"/>
<path d="M45.9751 0C45.8353 0 45.7162 0.101797 45.6944 0.239935L44.074 10.5126C44.0681 10.5501 44.0704 10.5885 44.0807 10.6251C44.091 10.6617 44.1091 10.6956 44.1338 10.7246C44.1585 10.7535 44.1892 10.7767 44.2237 10.7926C44.2583 10.8085 44.2958 10.8168 44.3339 10.8168H46.2549C46.3947 10.8168 46.5137 10.715 46.5356 10.5768L48.1555 0.303784C48.1614 0.266292 48.1591 0.22797 48.1488 0.191451C48.1385 0.154932 48.1204 0.121081 48.0957 0.0922204C48.0711 0.0633601 48.0405 0.0401747 48.006 0.0242561C47.9716 0.00833744 47.9341 6.30251e-05 47.8961 0H45.9751Z" fill="white"/>
</svg>
