<svg width="17" height="17" viewBox="0 0 17 17" fill="none" xmlns="http://www.w3.org/2000/svg">
<path d="M5.89619 16.3287C5.80501 16.3287 5.71383 16.2938 5.64402 16.2247L0.104004 10.6847C0.0370426 10.6163 0 10.5258 0 10.4318C0 10.3385 0.0384673 10.2466 0.104004 10.1796L10.1775 0.104004C10.2487 0.0334809 10.3449 0.00213708 10.4439 0L13.7186 0.130362C14.3704 0.130362 14.9959 0.38966 15.4667 0.859817C15.9376 1.32997 16.1962 1.95685 16.1962 2.6229L16.3258 5.88337C16.3301 5.98239 16.2924 6.07713 16.2218 6.14908L6.14766 16.224C6.07856 16.2938 5.98737 16.3287 5.89619 16.3287ZM0.859105 10.4311L5.89619 15.4689L15.6085 5.75657L15.4853 2.63786C15.4853 1.6427 14.6867 0.842008 13.7051 0.842008L10.5714 0.717345L0.859105 10.4311Z" fill="black"/>
<path d="M13.2008 4.90921C12.725 4.90921 12.2783 4.724 11.9414 4.3899C11.2461 3.69393 11.2461 2.56413 11.9414 1.871C12.6131 1.19925 13.7871 1.19925 14.4588 1.871C15.1541 2.56627 15.1541 3.69678 14.4588 4.3899C14.1233 4.724 13.6767 4.90921 13.2008 4.90921ZM13.2008 2.06049C12.9152 2.06049 12.6473 2.17091 12.445 2.3725C12.0276 2.78923 12.0276 3.4674 12.445 3.88413C12.8475 4.2859 13.5527 4.2859 13.9552 3.88413C14.3719 3.4674 14.3719 2.78923 13.9552 2.3725C13.755 2.17091 13.4872 2.06049 13.2008 2.06049Z" fill="black"/>
</svg>
