<svg width="22" height="22" viewBox="0 0 22 22" fill="none" xmlns="http://www.w3.org/2000/svg">
<circle cx="11" cy="11" r="11" fill="#6E6E73"/>
<path d="M10.0837 13.1688C10.0887 12.7384 10.1305 12.3865 10.2094 12.113C10.2931 11.835 10.4261 11.5817 10.6084 11.3531C10.7956 11.1244 11.0443 10.8644 11.3547 10.573C11.5813 10.3623 11.7906 10.165 11.9828 9.98117C12.1749 9.79287 12.33 9.59112 12.4483 9.37592C12.5665 9.16073 12.6256 8.89845 12.6256 8.58911C12.6256 8.12284 12.4901 7.75521 12.2192 7.48621C11.9483 7.21273 11.5567 7.07599 11.0443 7.07599C10.6158 7.07599 10.2315 7.18583 9.89163 7.40551C9.55172 7.62071 9.38177 7.96144 9.38177 8.42771H8C8.00985 7.92109 8.14778 7.48621 8.41379 7.12307C8.68473 6.75992 9.04926 6.48195 9.50739 6.28917C9.96552 6.09639 10.4778 6 11.0443 6C11.9852 6 12.7118 6.22865 13.2241 6.68594C13.7414 7.14324 14 7.76642 14 8.55548C14 8.95898 13.9113 9.33109 13.734 9.67182C13.5567 10.0081 13.3276 10.3241 13.0468 10.62C12.766 10.9159 12.468 11.1984 12.1527 11.4674C11.8818 11.6915 11.6995 11.9493 11.6059 12.2408C11.5123 12.5277 11.4655 12.837 11.4655 13.1688H10.0837ZM10.8374 16C10.5714 16 10.3695 15.9328 10.2315 15.7983C10.0936 15.6638 10.0246 15.4979 10.0246 15.3006C10.0246 15.1033 10.0936 14.9352 10.2315 14.7962C10.3695 14.6573 10.5714 14.5878 10.8374 14.5878C11.1034 14.5878 11.3054 14.6573 11.4433 14.7962C11.5813 14.9352 11.6502 15.1033 11.6502 15.3006C11.6502 15.4979 11.5813 15.6638 11.4433 15.7983C11.3054 15.9328 11.1034 16 10.8374 16Z" fill="white"/>
</svg>
