<svg width="12" height="11" viewBox="0 0 12 11" fill="none" xmlns="http://www.w3.org/2000/svg">
<path d="M0.375119 10.9999L8.01182 10.9999C10.2106 10.9999 12 9.18664 12 6.95765C12 4.72865 10.2111 2.91544 8.01182 2.91544L2.59175 2.91544L4.82993 0.645639C4.97584 0.497309 4.97535 0.25796 4.82893 0.110119C4.75572 0.0367066 4.6601 -3.12e-07 4.56448 -3.0364e-07C4.46836 -2.95237e-07 4.37224 0.0372092 4.29854 0.111628L1.42339 3.02698C1.42041 3.03 1.41841 3.03352 1.41543 3.03654C1.40148 3.05162 1.38803 3.06721 1.37708 3.0843C1.3706 3.09386 1.36612 3.10442 1.36114 3.11397C1.35467 3.12554 1.34769 3.1366 1.34271 3.14917C1.33773 3.16174 1.33474 3.17481 1.33076 3.18739C1.32777 3.19795 1.32329 3.2085 1.3213 3.21957C1.31632 3.24421 1.31383 3.26884 1.31383 3.29348C1.31383 3.31812 1.31632 3.34276 1.3213 3.3674C1.32329 3.37846 1.32727 3.38802 1.33026 3.39858C1.33425 3.41165 1.33724 3.42523 1.34222 3.4378C1.3472 3.44986 1.35417 3.46093 1.36014 3.47249C1.36562 3.48255 1.37011 3.49311 1.37658 3.50266C1.38853 3.52076 1.40198 3.53685 1.41642 3.55244C1.41891 3.55496 1.42041 3.55797 1.4224 3.55999L1.4229 3.56049L4.29702 6.47494C4.44294 6.62327 4.6805 6.62377 4.82743 6.47595C4.97434 6.32862 4.97483 6.08877 4.82842 5.94043L2.59024 3.67063L8.01172 3.67264C9.79716 3.67264 11.2498 5.1464 11.2498 6.95769C11.2493 8.76884 9.79704 10.2427 8.01172 10.2427L0.375015 10.2427C0.167836 10.2427 1.85596e-06 10.4122 1.87425e-06 10.6214C1.89253e-06 10.8305 0.167836 11 0.375015 11L0.375119 10.9999Z" fill="black"/>
</svg>
