<svg width="14" height="15" viewBox="0 0 14 15" fill="none" xmlns="http://www.w3.org/2000/svg">
<path d="M7.05661 0.511226C7.10203 0.533195 7.13031 0.599099 7.15259 0.643037C7.36256 1.06044 7.54596 1.49805 7.73708 1.92511L8.46809 3.53319L8.96258 4.6193C9.03371 4.78011 9.11599 4.94092 9.17512 5.107C10.3004 5.252 11.4265 5.3882 12.5533 5.51649C12.9707 5.56746 13.3958 5.5947 13.8097 5.66764C13.8594 5.67642 13.9083 5.68433 13.9485 5.71772C13.9794 5.74409 13.9991 5.78187 14 5.82317C14.0008 5.86447 13.9888 5.9005 13.9631 5.93214C13.8783 6.0367 13.766 6.12634 13.6709 6.22213L12.915 6.97872L11.8712 8.03847C11.3955 8.51738 10.9165 8.99015 10.4468 9.4752L11.1924 13.0412C11.279 13.4437 11.3818 13.8435 11.4624 14.2468C11.4692 14.282 11.4898 14.3611 11.4761 14.3927C11.4564 14.4402 11.4332 14.4779 11.381 14.4946C11.3347 14.5087 11.285 14.4929 11.2421 14.4727C11.0065 14.3637 10.7682 14.1967 10.5437 14.0632C10.1906 13.854 9.8315 13.6555 9.47927 13.4463C8.67368 12.9674 7.85352 12.5157 7.05234 12.0298L6.9795 11.9964C6.02994 12.5676 5.06839 13.122 4.11028 13.6783L3.06474 14.2908C2.96618 14.347 2.87106 14.4112 2.77165 14.4639C2.73994 14.4806 2.70309 14.4982 2.66624 14.4947C2.63025 14.4911 2.59511 14.4595 2.57626 14.4296C2.54626 14.3822 2.55654 14.3189 2.5634 14.2662C2.5934 14.0447 2.64653 13.8233 2.69281 13.6045L2.87878 12.6968L3.55238 9.49022C3.37926 9.32151 3.21644 9.13785 3.04674 8.96387L1.96093 7.86984L0.512582 6.40236C0.37289 6.25913 0.222917 6.1238 0.0866526 5.97618C0.0532303 5.93927 0.0172345 5.90149 0.00438029 5.8514C-0.00418985 5.81713 -0.000761732 5.76265 0.0198063 5.73365C0.0489439 5.69235 0.120075 5.67302 0.166354 5.66335C0.276908 5.63962 0.396892 5.63611 0.509155 5.62381L1.16733 5.54911L3.79654 5.24859C4.12905 5.20817 4.47099 5.19236 4.80094 5.13436C4.88407 4.96828 4.9552 4.79517 5.03233 4.62645C5.22344 4.20729 5.41199 3.78638 5.59795 3.36371C5.79849 2.91028 6.01789 2.46563 6.21841 2.01221C6.36153 1.68884 6.5115 1.36897 6.65891 1.04823C6.7309 0.891815 6.79517 0.716936 6.88087 0.568443C6.89801 0.538566 6.92115 0.520113 6.94943 0.50166C6.982 0.499902 7.02661 0.496288 7.05661 0.511226ZM6.99662 1.0455C6.90578 1.20543 6.83807 1.3803 6.76095 1.54726C6.62725 1.8346 6.48927 2.11933 6.35902 2.40842L5.46859 4.37065C5.38375 4.56045 5.29205 4.74763 5.20892 4.93742C5.14121 5.0912 5.08294 5.25992 4.99638 5.40315C4.84812 5.4506 4.67672 5.45675 4.52245 5.47345C4.31334 5.49454 4.1051 5.51739 3.89683 5.54111C3.14266 5.63514 2.38765 5.72213 1.63182 5.80211L0.965914 5.87943C0.797085 5.89701 0.626535 5.90931 0.457712 5.93392C0.752532 6.22303 1.03447 6.52443 1.32414 6.81793L2.87103 8.3733L3.44009 8.94712C3.56693 9.07454 3.7709 9.24764 3.85659 9.40142C3.80174 9.75642 3.72204 10.1035 3.64748 10.4541L3.36381 11.7986L3.05014 13.2978C3.00043 13.5447 2.96187 13.796 2.9053 14.0412C3.28325 13.8338 3.65348 13.6062 4.02542 13.3874L6.16278 12.1352C6.36332 12.0201 6.80038 11.7125 6.99836 11.6633C7.15177 11.7169 7.30174 11.8294 7.44143 11.9138C7.62226 12.0227 7.80652 12.1282 7.98991 12.2327L11.1 14.0306C10.9003 13.1317 10.7298 12.2257 10.537 11.3251L10.3167 10.2935C10.255 10.0114 10.1822 9.72227 10.141 9.43581C10.135 9.39539 10.1299 9.3787 10.1522 9.34355C10.2396 9.20734 10.3956 9.08608 10.5104 8.97097L11.1 8.37608C11.9107 7.57204 12.7163 6.76183 13.516 5.94542C12.5476 5.81097 11.5766 5.69322 10.6046 5.59042C10.2481 5.55175 9.89246 5.5087 9.5368 5.46388C9.36026 5.44015 9.17687 5.42258 9.00289 5.38655C8.94804 5.32768 8.84349 5.11327 8.73894 4.88215L8.68666 4.76616C8.59153 4.55263 8.50326 4.34525 8.46042 4.25121L7.39088 1.89525C7.37546 1.86098 7.3566 1.81616 7.33518 1.76519L7.29061 1.65711C7.19549 1.42952 7.07459 1.14482 6.99662 1.0455Z" fill="black"/>
</svg>
