<svg width="15" height="15" viewBox="0 0 15 15" fill="none" xmlns="http://www.w3.org/2000/svg">
<path d="M6.39048 9.9329e-05H6.3918C8.15631 9.9329e-05 9.75485 0.716024 10.9097 1.87168L10.9695 1.93599C12.0876 3.08501 12.7773 4.65659 12.7766 6.38908H12.7806V6.39039C12.7806 7.78024 12.3357 9.069 11.5817 10.1183L14.6973 13.234C15.1009 13.6375 15.1009 14.2931 14.6973 14.6973C14.2931 15.1009 13.6376 15.1009 13.234 14.6973L10.1184 11.5816C9.06917 12.3356 7.78041 12.7805 6.39067 12.7805H6.38936C4.62552 12.7805 3.02698 12.0646 1.87208 10.9089C0.718495 9.75596 0.00526535 8.15674 0.00459342 6.3915H0V6.39019C0 4.62629 0.716556 3.02651 1.87219 1.87158C3.02709 0.715992 4.62664 9.9329e-05 6.39048 9.9329e-05ZM6.3918 2.0684H6.39048C5.19752 2.0684 4.11614 2.55333 3.33467 3.33424C2.55381 4.11643 2.06887 5.19725 2.06887 6.39015V6.39146H2.06428C2.06428 7.57986 2.55117 8.66202 3.33467 9.44553C4.11618 10.2271 5.19694 10.712 6.3893 10.712H6.39061C7.58357 10.712 8.66429 10.2271 9.44592 9.44553C10.2274 8.66399 10.7124 7.58319 10.7124 6.39012V6.38881H10.7163C10.7163 5.22468 10.2524 4.16361 9.49973 3.38329L9.44658 3.33407C8.66572 2.55319 7.58415 2.0684 6.3918 2.0684Z" fill="#7C788A"/>
</svg>
