<svg width="14" height="16" viewBox="0 0 14 16" fill="none" xmlns="http://www.w3.org/2000/svg">
<path fill-rule="evenodd" clip-rule="evenodd" d="M10.1256 12.6266C7.08384 14.1355 3.27162 13.2877 1.25539 10.5177C-0.943399 7.49548 -0.178916 3.32441 2.96221 1.20786C6.10215 -0.907684 10.4374 -0.172143 12.6363 2.85007C14.6584 5.62894 14.1745 9.38003 11.642 11.6112L13.8315 14.599C14.1248 15.0001 14.0255 15.5546 13.6086 15.8379C13.1917 16.1201 12.6143 16.0246 12.321 15.6234L10.1256 12.6266ZM9.87042 10.7022C12.1766 9.14884 12.7367 6.08649 11.1234 3.86897C9.50782 1.6512 6.32613 1.11121 4.02136 2.66453C1.71517 4.21784 1.15509 7.27905 2.76837 9.49771C4.37934 11.7099 7.54938 12.2521 9.85445 10.7132C9.85907 10.7099 9.86465 10.7055 9.87042 10.7022Z" fill="white"/>
</svg>
