<svg width="16" height="22" viewBox="0 0 16 22" fill="none" xmlns="http://www.w3.org/2000/svg">
<path d="M15.5143 3.64647L8.51581 0.120854C8.19867 -0.0402847 7.80292 -0.0402847 7.48391 0.120854L0.486363 3.64647C0.186786 3.79794 0 4.1213 0 4.49083V12.1815C0 15.8779 1.72631 18.2693 3.17425 19.6238C4.91904 21.2555 6.8986 22 8 22C9.1014 22 11.081 21.2566 12.8258 19.6238C14.2737 18.2691 16 15.8779 16 12.1815V4.49083C16 4.12237 15.8141 3.79902 15.5136 3.64647H15.5143ZM15.4089 12.1814C15.4089 15.6061 13.8028 17.8276 12.4548 19.0888C10.894 20.5487 9.0327 21.3125 7.99995 21.3125C6.96805 21.3125 5.10573 20.5487 3.54512 19.0888C2.19792 17.8276 0.591009 15.6061 0.591009 12.1814V4.49075C0.591009 4.39299 0.634466 4.32102 0.721383 4.27805L7.71893 0.752429C7.80307 0.710534 7.90108 0.689048 7.99909 0.689048C8.0971 0.689048 8.19512 0.710533 8.27926 0.752429L15.2778 4.27805C15.3859 4.33283 15.4081 4.42414 15.4081 4.49182V12.1825L15.4089 12.1814ZM14.3428 4.90656L8.11714 1.77201C8.04225 1.73441 7.95718 1.73441 7.88228 1.77201L1.65664 4.90656C1.54846 4.96135 1.47819 5.08489 1.47819 5.22238V12.1589C1.47819 14.5459 2.38525 16.6567 4.10138 18.2628C4.77453 18.8923 5.55029 19.4208 6.34733 19.7904C6.6506 19.9311 7.4199 20.2577 7.99874 20.2577C8.57756 20.2577 9.34686 19.93 9.64923 19.7904C10.4453 19.4208 11.222 18.8934 11.8961 18.2628C13.6122 16.6568 14.5193 14.5457 14.5193 12.1589V5.22238C14.5193 5.08595 14.449 4.96134 14.3408 4.90656H14.3428ZM13.9295 12.1588C13.9295 14.331 13.0982 16.257 11.5274 17.7278C10.8986 18.3154 10.1737 18.8085 9.43212 19.1522C8.86718 19.4143 8.33181 19.5712 8.00078 19.5712C7.66974 19.5712 7.13438 19.4143 6.56851 19.1522C5.82603 18.8074 5.10204 18.3154 4.47419 17.7278C2.90231 16.2571 2.07114 14.3308 2.07114 12.1588V5.44805L8.0009 2.46173L13.9307 5.44805V12.1588H13.9295ZM7.99971 6.65534C8.16338 6.65534 8.2956 6.80896 8.2956 6.99911V7.70811C9.02698 7.8295 9.64556 8.44505 9.84807 9.28941C9.89152 9.47203 9.79998 9.66219 9.6428 9.71268C9.48561 9.76317 9.32194 9.65682 9.27848 9.47419C9.12314 8.82641 8.6109 8.37416 8.03207 8.37416C7.19157 8.37416 6.7348 9.00368 6.73295 9.59558C6.7311 10.079 7.06212 10.6473 8.00433 10.6591C9.29143 10.6741 9.86379 11.5507 9.86007 12.4123C9.85822 12.8989 9.67144 13.3802 9.34874 13.7315C9.14347 13.9538 8.80504 14.2117 8.29742 14.2922V15.0045C8.29742 15.1946 8.1652 15.3482 8.00154 15.3482C7.83788 15.3482 7.70565 15.1946 7.70565 15.0045V14.2955C6.97333 14.1741 6.35384 13.5585 6.15226 12.7142C6.1088 12.5315 6.20034 12.3414 6.35753 12.2909C6.51472 12.2404 6.67839 12.3468 6.72185 12.5294C6.87719 13.1772 7.39036 13.6294 7.96918 13.6294C8.80968 13.6294 9.26553 12.9999 9.2683 12.408C9.27015 11.9246 8.93913 11.3574 7.99784 11.3466C6.70982 11.3305 6.13654 10.4539 6.14116 9.59236C6.14301 9.10573 6.32979 8.62446 6.65342 8.27317C6.85869 8.0508 7.19803 7.79297 7.70565 7.7124V7.00018C7.70565 6.81004 7.83787 6.65642 8.00154 6.65642L7.99971 6.65534Z" fill="black"/>
</svg>
