<svg width="15" height="17" viewBox="0 0 15 17" fill="none" xmlns="http://www.w3.org/2000/svg">
<path d="M7.5 1.0625C6.94574 1.0625 6.41417 1.28638 6.02225 1.6849C5.63033 2.08341 5.41015 2.62391 5.41015 3.1875V5.3125H4.36522V3.1875C4.36522 2.34212 4.69549 1.53137 5.28337 0.933597C5.87126 0.335825 6.6686 0 7.5 0C8.3314 0 9.12874 0.335825 9.71663 0.933597C10.3045 1.53137 10.6348 2.34212 10.6348 3.1875V5.3125H9.58986V3.1875C9.58986 2.62391 9.36967 2.08341 8.97775 1.6849C8.58583 1.28638 8.05426 1.0625 7.5 1.0625ZM4.36522 5.3125H2.65154C2.27614 5.31252 1.91322 5.44953 1.62877 5.69863C1.34432 5.94773 1.15724 6.29236 1.10156 6.66984L0.0287687 13.9506C-0.0268299 14.3284 -0.00164316 14.7139 0.102611 15.0809C0.206865 15.4479 0.387734 15.7877 0.63288 16.0771C0.878026 16.3666 1.18168 16.5988 1.52314 16.7581C1.86459 16.9174 2.23582 16.9999 2.61148 17H12.3868C12.7626 17.0001 13.134 16.9178 13.4757 16.7587C13.8173 16.5995 14.1212 16.3673 14.3666 16.0778C14.6119 15.7883 14.7929 15.4484 14.8973 15.0813C15.0016 14.7142 15.0269 14.3285 14.9712 13.9506L13.8967 6.66984C13.8411 6.29266 13.6542 5.94826 13.3701 5.69921C13.0861 5.45015 12.7236 5.31294 12.3485 5.3125H10.6348V6.90625C10.6348 7.04715 10.5797 7.18227 10.4818 7.2819C10.3838 7.38153 10.2509 7.4375 10.1123 7.4375C9.97375 7.4375 9.84086 7.38153 9.74288 7.2819C9.6449 7.18227 9.58986 7.04715 9.58986 6.90625V5.3125H5.41015V6.90625C5.41015 7.04715 5.3551 7.18227 5.25712 7.2819C5.15914 7.38153 5.02625 7.4375 4.88768 7.4375C4.74912 7.4375 4.61622 7.38153 4.51824 7.2819C4.42026 7.18227 4.36522 7.04715 4.36522 6.90625V5.3125Z" fill="#7C788A"/>
</svg>
