<svg width="15" height="17" viewBox="0 0 15 17" fill="none" xmlns="http://www.w3.org/2000/svg">
<path d="M4.86522 4.8125V3.1875C4.86522 2.47206 5.1448 1.78758 5.63986 1.28419C6.13465 0.781085 6.80393 0.5 7.5 0.5C8.19607 0.5 8.86535 0.781085 9.36014 1.28419C9.8552 1.78758 10.1348 2.47206 10.1348 3.1875V4.8125H10.0899V3.1875C10.0899 2.49397 9.81899 1.8272 9.33424 1.3343C8.84921 0.841123 8.18959 0.5625 7.5 0.5625C6.81041 0.5625 6.15079 0.841123 5.66576 1.3343C5.18101 1.8272 4.91014 2.49397 4.91014 3.1875V4.8125H4.86522ZM2.65156 5.8125H3.86522V6.90625C3.86522 7.17709 3.97095 7.43848 4.16175 7.63249C4.35284 7.82679 4.61379 7.9375 4.88768 7.9375C5.16157 7.9375 5.42252 7.82679 5.61361 7.63249C5.80441 7.43848 5.91014 7.17709 5.91014 6.90625V5.8125H9.08985V6.90625C9.08985 7.17709 9.19559 7.43848 9.38639 7.63249C9.57747 7.82679 9.83843 7.9375 10.1123 7.9375C10.3862 7.9375 10.6472 7.82679 10.8382 7.63249C11.029 7.43848 11.1348 7.17709 11.1348 6.90625V5.8125L12.3479 5.8125C12.348 5.8125 12.3481 5.8125 12.3482 5.8125C12.6012 5.81288 12.8469 5.90538 13.0405 6.07518C13.2345 6.24523 13.3636 6.48182 13.4021 6.74281L13.4021 6.74285L14.4766 14.0234C14.5219 14.3314 14.5013 14.6457 14.4163 14.9446C14.3313 15.2436 14.1841 15.5198 13.9851 15.7545C13.7862 15.9893 13.5403 16.177 13.2645 16.3054C12.9889 16.4338 12.6895 16.5001 12.387 16.5H12.3868H2.61164C2.61159 16.5 2.61154 16.5 2.61148 16.5C2.30907 16.4999 2.00997 16.4335 1.73449 16.305C1.45894 16.1764 1.21322 15.9887 1.01442 15.754C0.815603 15.5192 0.668476 15.2431 0.583579 14.9443C0.498677 14.6454 0.478133 14.3313 0.52344 14.0234L1.59621 6.74281C1.59621 6.74278 1.59622 6.74276 1.59622 6.74273C1.63476 6.48157 1.76398 6.24484 1.95817 6.07478C2.15218 5.90489 2.39828 5.81252 2.65154 5.8125C2.65154 5.8125 2.65155 5.8125 2.65156 5.8125Z" stroke="#1E1E1E"/>
</svg>
