<svg width="17" height="17" viewBox="0 0 17 17" fill="none" xmlns="http://www.w3.org/2000/svg">
<path d="M1.10519 13.2617L3.68395 15.8405L15.841 3.68345L13.2622 1.10468L1.10519 13.2617ZM0.368395 12.8933L12.8938 0.367892C13.0973 0.164433 13.4272 0.164432 13.6306 0.367891L16.5778 3.31505C16.7812 3.51851 16.7812 3.84838 16.5778 4.05184L4.05235 16.5773C3.84889 16.7807 3.51901 16.7807 3.31556 16.5773L0.368395 13.6301C0.164936 13.4267 0.164936 13.0968 0.368395 12.8933Z" fill="black"/>
<path d="M8.56522 8.19636C8.41262 8.04377 8.16522 8.04377 8.01262 8.19636C7.86003 8.34895 7.86003 8.59636 8.01262 8.74895L9.30201 10.0383C9.4546 10.1909 9.70201 10.1909 9.8546 10.0383C10.0072 9.88574 10.0072 9.63834 9.8546 9.48574L8.56522 8.19636Z" fill="black"/>
<path d="M10.407 7.82917C10.2544 7.67658 10.007 7.67658 9.85442 7.82917C9.70183 7.98177 9.70183 8.22917 9.85442 8.38177L10.407 8.93436C10.5596 9.08695 10.807 9.08695 10.9596 8.93436C11.1122 8.78176 11.1122 8.53436 10.9596 8.38177L10.407 7.82917Z" fill="black"/>
<path d="M11.5125 6.7237C11.3599 6.57111 11.1125 6.57111 10.9599 6.7237C10.8073 6.8763 10.8073 7.1237 10.9599 7.2763L11.5125 7.82889C11.6651 7.98148 11.9125 7.98148 12.0651 7.82889C12.2177 7.67629 12.2177 7.42889 12.0651 7.2763L11.5125 6.7237Z" fill="black"/>
<path d="M12.618 5.61823C12.4654 5.46564 12.218 5.46564 12.0654 5.61823C11.9128 5.77083 11.9128 6.01823 12.0654 6.17083L12.618 6.72342C12.7705 6.87601 13.0179 6.87601 13.1705 6.72342C13.3231 6.57083 13.3231 6.32342 13.1705 6.17083L12.618 5.61823Z" fill="black"/>
<path d="M13.7234 4.51472C13.5708 4.36213 13.3234 4.36213 13.1708 4.51472C13.0182 4.66731 13.0182 4.91472 13.1708 5.06731L13.7234 5.6199C13.876 5.7725 14.1234 5.7725 14.276 5.6199C14.4286 5.46731 14.4286 5.21991 14.276 5.06731L13.7234 4.51472Z" fill="black"/>
<path d="M3.22342 13.5382C3.07083 13.3856 2.82342 13.3856 2.67083 13.5382C2.51823 13.6908 2.51823 13.9382 2.67083 14.0907L3.96021 15.3801C4.1128 15.5327 4.36021 15.5327 4.5128 15.3801C4.6654 15.2275 4.6654 14.9801 4.5128 14.8275L3.22342 13.5382Z" fill="black"/>
<path d="M14.0906 2.67097C13.938 2.51838 13.6906 2.51838 13.538 2.67097C13.3854 2.82356 13.3854 3.07097 13.538 3.22356L14.8274 4.51294C14.98 4.66554 15.2274 4.66554 15.38 4.51294C15.5326 4.36035 15.5326 4.11295 15.38 3.96035L14.0906 2.67097Z" fill="black"/>
<path d="M5.06522 13.171C4.91262 13.0184 4.66522 13.0184 4.51262 13.171C4.36003 13.3236 4.36003 13.571 4.51262 13.7236L5.06522 14.2762C5.21781 14.4287 5.46522 14.4287 5.61781 14.2762C5.7704 14.1236 5.7704 13.8762 5.61781 13.7236L5.06522 13.171Z" fill="black"/>
<path d="M6.17069 12.0655C6.01809 11.9129 5.77069 11.9129 5.61809 12.0655C5.4655 12.2181 5.4655 12.4655 5.61809 12.6181L6.17069 13.1707C6.32328 13.3233 6.57068 13.3233 6.72328 13.1707C6.87587 13.0181 6.87587 12.7707 6.72328 12.6181L6.17069 12.0655Z" fill="black"/>
<path d="M7.27615 10.96C7.12356 10.8074 6.87616 10.8074 6.72356 10.96C6.57097 11.1126 6.57097 11.36 6.72356 11.5126L7.27615 12.0652C7.42875 12.2178 7.67615 12.2178 7.82875 12.0652C7.98134 11.9126 7.98134 11.6652 7.82875 11.5126L7.27615 10.96Z" fill="black"/>
<path d="M8.38162 9.85456C8.22903 9.70197 7.98162 9.70197 7.82903 9.85456C7.67644 10.0072 7.67644 10.2546 7.82903 10.4072L8.38162 10.9597C8.53422 11.1123 8.78162 11.1123 8.93422 10.9597C9.08681 10.8072 9.08681 10.5597 8.93422 10.4072L8.38162 9.85456Z" fill="black"/>
</svg>
