<svg width="76" height="12" viewBox="0 0 76 12" fill="none" xmlns="http://www.w3.org/2000/svg">
<path d="M6.51598 0.329028L7.91678 3.32366C8.00152 3.49859 8.1617 3.61814 8.34513 3.6439L11.5197 4.13086C11.7254 4.15115 11.9011 4.29647 11.9698 4.50265C12.0385 4.70939 11.9879 4.9397 11.8401 5.09269L9.5082 7.49449C9.38316 7.62007 9.3258 7.80322 9.35473 7.98309L9.90088 11.338C9.97736 11.8068 9.48029 12.1578 9.06487 11.9274L6.27677 10.3832H6.27625C6.10367 10.2895 5.89906 10.2895 5.72649 10.3832L2.93839 11.9274C2.52297 12.1578 2.0259 11.8068 2.10237 11.338L2.64801 7.98309C2.67694 7.80324 2.61959 7.62008 2.49454 7.49449L0.160147 5.09269C0.0123689 4.9397 -0.0387819 4.70938 0.0304549 4.50265C0.0991759 4.29646 0.27486 4.15115 0.480495 4.13086L3.6551 3.6439C3.83853 3.61813 3.99871 3.49858 4.08345 3.32366L5.48676 0.329028C5.58751 0.126681 5.78592 0 6.00139 0C6.21685 0 6.41523 0.126673 6.51598 0.329028Z" fill="black"/>
<path d="M22.516 0.329028L23.9168 3.32366C24.0015 3.49859 24.1617 3.61814 24.3451 3.6439L27.5197 4.13086C27.7254 4.15115 27.9011 4.29647 27.9698 4.50265C28.0385 4.70939 27.9879 4.9397 27.8401 5.09269L25.5082 7.49449C25.3832 7.62007 25.3258 7.80322 25.3547 7.98309L25.9009 11.338C25.9774 11.8068 25.4803 12.1578 25.0649 11.9274L22.2768 10.3832H22.2763C22.1037 10.2895 21.8991 10.2895 21.7265 10.3832L18.9384 11.9274C18.523 12.1578 18.0259 11.8068 18.1024 11.338L18.648 7.98309C18.6769 7.80324 18.6196 7.62008 18.4945 7.49449L16.1601 5.09269C16.0124 4.9397 15.9612 4.70938 16.0305 4.50265C16.0992 4.29646 16.2749 4.15115 16.4805 4.13086L19.6551 3.6439C19.8385 3.61813 19.9987 3.49858 20.0834 3.32366L21.4868 0.329028C21.5875 0.126681 21.7859 0 22.0014 0C22.2168 0 22.4152 0.126673 22.516 0.329028Z" fill="black"/>
<path d="M38.516 0.329028L39.9168 3.32366C40.0015 3.49859 40.1617 3.61814 40.3451 3.6439L43.5197 4.13086C43.7254 4.15115 43.9011 4.29647 43.9698 4.50265C44.0385 4.70939 43.9879 4.9397 43.8401 5.09269L41.5082 7.49449C41.3832 7.62007 41.3258 7.80322 41.3547 7.98309L41.9009 11.338C41.9774 11.8068 41.4803 12.1578 41.0649 11.9274L38.2768 10.3832H38.2763C38.1037 10.2895 37.8991 10.2895 37.7265 10.3832L34.9384 11.9274C34.523 12.1578 34.0259 11.8068 34.1024 11.338L34.648 7.98309C34.6769 7.80324 34.6196 7.62008 34.4945 7.49449L32.1601 5.09269C32.0124 4.9397 31.9612 4.70938 32.0305 4.50265C32.0992 4.29646 32.2749 4.15115 32.4805 4.13086L35.6551 3.6439C35.8385 3.61813 35.9987 3.49858 36.0834 3.32366L37.4868 0.329028C37.5875 0.126681 37.7859 0 38.0014 0C38.2168 0 38.4152 0.126673 38.516 0.329028Z" fill="black"/>
<path d="M54.516 0.329028L55.9168 3.32366C56.0015 3.49859 56.1617 3.61814 56.3451 3.6439L59.5197 4.13086C59.7254 4.15115 59.9011 4.29647 59.9698 4.50265C60.0385 4.70939 59.9879 4.9397 59.8401 5.09269L57.5082 7.49449C57.3832 7.62007 57.3258 7.80322 57.3547 7.98309L57.9009 11.338C57.9774 11.8068 57.4803 12.1578 57.0649 11.9274L54.2768 10.3832H54.2763C54.1037 10.2895 53.8991 10.2895 53.7265 10.3832L50.9384 11.9274C50.523 12.1578 50.0259 11.8068 50.1024 11.338L50.648 7.98309C50.6769 7.80324 50.6196 7.62008 50.4945 7.49449L48.1601 5.09269C48.0124 4.9397 47.9612 4.70938 48.0305 4.50265C48.0992 4.29646 48.2749 4.15115 48.4805 4.13086L51.6551 3.6439C51.8385 3.61813 51.9987 3.49858 52.0834 3.32366L53.4868 0.329028C53.5875 0.126681 53.7859 0 54.0014 0C54.2168 0 54.4152 0.126673 54.516 0.329028Z" fill="black"/>
<path d="M70.516 0.329028L71.9168 3.32366C72.0015 3.49859 72.1617 3.61814 72.3451 3.6439L75.5197 4.13086C75.7254 4.15115 75.9011 4.29647 75.9698 4.50265C76.0385 4.70939 75.9879 4.9397 75.8401 5.09269L73.5082 7.49449C73.3832 7.62007 73.3258 7.80322 73.3547 7.98309L73.9009 11.338C73.9774 11.8068 73.4803 12.1578 73.0649 11.9274L70.2768 10.3832H70.2763C70.1037 10.2895 69.8991 10.2895 69.7265 10.3832L66.9384 11.9274C66.523 12.1578 66.0259 11.8068 66.1024 11.338L66.648 7.98309C66.6769 7.80324 66.6196 7.62008 66.4945 7.49449L64.1601 5.09269C64.0124 4.9397 63.9612 4.70938 64.0305 4.50265C64.0992 4.29646 64.2749 4.15115 64.4805 4.13086L67.6551 3.6439C67.8385 3.61813 67.9987 3.49858 68.0834 3.32366L69.4868 0.329028C69.5875 0.126681 69.7859 0 70.0014 0C70.2168 0 70.4152 0.126673 70.516 0.329028Z" fill="black"/>
</svg>
