<svg width="332" height="63" viewBox="0 0 332 63" fill="none" xmlns="http://www.w3.org/2000/svg">
<path d="M14.8941 1.12L32.0941 43.52L25.3741 42.16L40.9741 1.12H54.7341L27.8541 62.72L0.974063 1.12H14.8941ZM64.9203 1.12H105.08V12.32H76.5203V24.88H101.8V36.08H76.5203V48.8H106.2V60H64.9203V1.12ZM118.202 1.12H129.802V48.8H157.482V60H118.202V1.12ZM169.452 1.12H181.052V48.8H208.732V60H169.452V1.12ZM215.539 30.64C215.539 26.5867 216.312 22.7467 217.859 19.12C219.406 15.4933 221.539 12.2933 224.259 9.52C227.032 6.69333 230.232 4.48 233.859 2.88C237.486 1.28 241.352 0.479999 245.459 0.479999C249.619 0.479999 253.512 1.28 257.139 2.88C260.766 4.48 263.966 6.69333 266.739 9.52C269.566 12.2933 271.752 15.4933 273.299 19.12C274.899 22.7467 275.699 26.5867 275.699 30.64C275.699 34.8 274.899 38.6933 273.299 42.32C271.752 45.9467 269.566 49.1467 266.739 51.92C263.966 54.64 260.766 56.7733 257.139 58.32C253.512 59.8667 249.646 60.64 245.539 60.64C241.379 60.64 237.486 59.8667 233.859 58.32C230.232 56.7733 227.032 54.64 224.259 51.92C221.539 49.1467 219.406 45.9467 217.859 42.32C216.312 38.6933 215.539 34.8 215.539 30.64ZM227.539 30.64C227.539 34.1067 228.339 37.28 229.939 40.16C231.592 42.9867 233.806 45.2533 236.579 46.96C239.352 48.6133 242.472 49.44 245.939 49.44C249.299 49.44 252.312 48.6133 254.979 46.96C257.699 45.2533 259.832 42.9867 261.379 40.16C262.926 37.28 263.699 34.1067 263.699 30.64C263.699 27.0667 262.899 23.8667 261.299 21.04C259.699 18.16 257.539 15.8933 254.819 14.24C252.099 12.5333 249.032 11.68 245.619 11.68C242.206 11.68 239.139 12.5333 236.419 14.24C233.699 15.8933 231.539 18.16 229.939 21.04C228.339 23.8667 227.539 27.0667 227.539 30.64ZM292.16 1.12L309.36 43.52L302.64 42.16L318.24 1.12H332L305.12 62.72L278.24 1.12H292.16Z" fill="white"/>
</svg>
