<svg width="159" height="120" viewBox="0 0 159 120" fill="none" xmlns="http://www.w3.org/2000/svg">
<path opacity="0.6" d="M108.527 47.684C108.648 47.0758 109.134 46.7109 109.741 46.5893L114.721 46.1027C116.543 45.8594 118 44.278 118 42.4534V34.6682C118 32.8436 116.543 31.2622 114.721 31.019L109.741 30.5324C109.134 30.4107 108.648 30.0458 108.527 29.4376C108.041 27.7346 107.312 26.0316 106.462 24.5719C106.219 24.0853 106.219 23.3555 106.584 22.9905L109.741 19.0979C110.956 17.6382 110.834 15.5703 109.498 14.2322L103.912 8.63665C102.576 7.29858 100.511 7.17694 99.0536 8.39337L95.1672 11.5561C94.6814 11.7994 94.0741 11.7994 93.5883 11.5561C92.0095 10.7046 90.4306 10.0964 88.7303 9.48815C88.123 9.36651 87.7587 8.87994 87.6372 8.27172L87.03 3.28436C86.7871 1.45972 85.2082 0 83.3864 0H75.6136C73.7918 0 72.2129 1.45972 71.97 3.28436L71.4842 8.27172C71.3628 8.87994 70.9984 9.36651 70.3912 9.48815C68.6909 9.97472 66.9905 10.7046 65.5331 11.5561C65.0473 11.7994 64.3186 11.7994 63.9543 11.4344L60.0678 8.27172C58.6104 7.05529 56.5457 7.17694 55.2098 8.51501L49.623 14.1106C48.2871 15.4487 48.1656 17.5166 49.3801 18.9763L52.5379 22.8689C52.9022 23.3554 52.9022 23.9637 52.6593 24.4502C51.8091 26.0316 51.2019 27.613 50.5946 29.316C50.4732 29.9242 49.9874 30.2891 49.3801 30.4107L44.2792 31.019C42.4574 31.2622 41 32.8436 41 34.6682V42.4534C41 44.278 42.4574 45.8594 44.2792 46.1027L49.2587 46.5893C49.8659 46.7109 50.3517 47.0758 50.4732 47.684C50.959 49.387 51.6877 51.09 52.5379 52.5498C52.7808 53.0363 52.7808 53.7662 52.4164 54.1311L49.2587 58.0237C48.0442 59.4834 48.1656 61.5513 49.5016 62.8894L55.0883 68.485C56.4243 69.8231 58.489 69.9447 59.9464 68.7283L63.8328 65.5656C64.3186 65.2006 64.9259 65.2006 65.4117 65.4439C66.9905 66.2954 68.5694 66.9036 70.2697 67.5119C70.877 67.6335 71.2413 68.1201 71.3628 68.7283L71.8486 73.7156C72.0915 75.5403 73.6703 77 75.4921 77H83.265C85.0868 77 86.6656 75.5403 86.9085 73.7156L87.3943 68.7283C87.5158 68.1201 87.8801 67.6335 88.4874 67.5119C90.1877 67.0253 91.888 66.2954 93.3454 65.4439C93.8312 65.2006 94.5599 65.2006 94.9243 65.5656L98.8107 68.7283C100.268 69.9447 102.333 69.8231 103.669 68.485L109.256 62.8894C110.591 61.5513 110.713 59.4834 109.498 58.0237L106.341 54.1311C106.219 53.7662 106.219 53.158 106.462 52.6714C107.312 51.09 107.92 49.387 108.527 47.684ZM79.5 53.4013C71.3628 53.4013 64.683 46.7109 64.683 38.5608C64.683 30.4107 71.3628 23.7204 79.5 23.7204C87.6372 23.7204 94.317 30.4107 94.317 38.5608C94.317 46.7109 87.6372 53.4013 79.5 53.4013Z" fill="black"/>
<path d="M4.17488 98.88V114H1.96688V98.88H4.17488ZM9.81431 114H7.70231V102.72H9.35831L9.67031 104.28C10.2303 103.72 10.8143 103.296 11.4223 103.008C12.0463 102.704 12.7583 102.552 13.5583 102.552C14.7103 102.552 15.6143 102.88 16.2703 103.536C16.9263 104.176 17.2543 105.072 17.2543 106.224V114H15.1423V106.536C15.1423 105.848 14.9583 105.304 14.5903 104.904C14.2383 104.488 13.6943 104.28 12.9583 104.28C11.8383 104.28 10.7903 104.784 9.81431 105.792V114ZM31.0509 98.88C32.1229 98.88 33.1149 99.032 34.0269 99.336C34.9389 99.64 35.7229 100.096 36.3789 100.704C37.0509 101.296 37.5709 102.048 37.9389 102.96C38.3229 103.856 38.5149 104.904 38.5149 106.104C38.5149 107.56 38.2909 108.792 37.8429 109.8C37.3949 110.808 36.7869 111.624 36.0189 112.248C35.2669 112.872 34.3869 113.32 33.3789 113.592C32.3869 113.864 31.3309 114 30.2109 114H26.1309V98.88H31.0509ZM28.3389 112.176H29.9949C30.7629 112.176 31.5149 112.096 32.2509 111.936C32.9869 111.76 33.6349 111.448 34.1949 111C34.7709 110.536 35.2349 109.912 35.5869 109.128C35.9389 108.344 36.1149 107.336 36.1149 106.104C36.1149 105.24 35.9869 104.472 35.7309 103.8C35.4749 103.128 35.1069 102.568 34.6269 102.12C34.1469 101.656 33.5629 101.304 32.8749 101.064C32.2029 100.824 31.4509 100.704 30.6189 100.704H28.3389V112.176ZM50.8414 108.6H42.7534V108.696C42.7534 109.944 43.0894 110.904 43.7614 111.576C44.4494 112.248 45.3774 112.584 46.5454 112.584C47.1534 112.584 47.6894 112.536 48.1534 112.44C48.6334 112.344 49.1534 112.184 49.7134 111.96L50.1454 113.52C49.6814 113.728 49.1294 113.896 48.4894 114.024C47.8654 114.152 47.1934 114.216 46.4734 114.216C45.6574 114.216 44.8894 114.104 44.1694 113.88C43.4654 113.656 42.8414 113.312 42.2974 112.848C41.7534 112.368 41.3214 111.76 41.0014 111.024C40.6974 110.288 40.5454 109.408 40.5454 108.384C40.5454 107.504 40.6734 106.704 40.9294 105.984C41.2014 105.264 41.5774 104.656 42.0574 104.16C42.5374 103.648 43.1134 103.256 43.7854 102.984C44.4734 102.696 45.2414 102.552 46.0894 102.552C46.8094 102.552 47.4574 102.672 48.0334 102.912C48.6254 103.152 49.1294 103.488 49.5454 103.92C49.9614 104.352 50.2814 104.872 50.5054 105.48C50.7294 106.088 50.8414 106.76 50.8414 107.496V108.6ZM48.6574 107.088C48.6574 106.672 48.6014 106.288 48.4894 105.936C48.3934 105.568 48.2334 105.248 48.0094 104.976C47.8014 104.704 47.5294 104.488 47.1934 104.328C46.8574 104.168 46.4494 104.088 45.9694 104.088C45.0894 104.088 44.3694 104.368 43.8094 104.928C43.2654 105.488 42.9294 106.224 42.8014 107.136L48.6574 107.088ZM60.0368 102.72H62.2928L58.0928 114H56.0288L51.7808 102.72H54.0608L56.6048 110.472L57.0368 112.248H57.1328L57.5408 110.496L60.0368 102.72ZM73.5758 108.6H65.4878V108.696C65.4878 109.944 65.8238 110.904 66.4958 111.576C67.1838 112.248 68.1118 112.584 69.2798 112.584C69.8878 112.584 70.4238 112.536 70.8878 112.44C71.3678 112.344 71.8878 112.184 72.4478 111.96L72.8798 113.52C72.4158 113.728 71.8638 113.896 71.2238 114.024C70.5998 114.152 69.9278 114.216 69.2078 114.216C68.3918 114.216 67.6238 114.104 66.9038 113.88C66.1998 113.656 65.5758 113.312 65.0318 112.848C64.4878 112.368 64.0558 111.76 63.7358 111.024C63.4318 110.288 63.2798 109.408 63.2798 108.384C63.2798 107.504 63.4078 106.704 63.6638 105.984C63.9358 105.264 64.3118 104.656 64.7918 104.16C65.2718 103.648 65.8478 103.256 66.5198 102.984C67.2078 102.696 67.9758 102.552 68.8238 102.552C69.5438 102.552 70.1918 102.672 70.7678 102.912C71.3598 103.152 71.8638 103.488 72.2798 103.92C72.6958 104.352 73.0158 104.872 73.2398 105.48C73.4638 106.088 73.5758 106.76 73.5758 107.496V108.6ZM71.3918 107.088C71.3918 106.672 71.3358 106.288 71.2238 105.936C71.1278 105.568 70.9678 105.248 70.7438 104.976C70.5358 104.704 70.2638 104.488 69.9278 104.328C69.5918 104.168 69.1838 104.088 68.7038 104.088C67.8238 104.088 67.1038 104.368 66.5438 104.928C65.9998 105.488 65.6638 106.224 65.5358 107.136L71.3918 107.088ZM76.1655 114V96.96H78.2295V114H76.1655ZM91.9448 108.24C91.9448 109.184 91.8008 110.032 91.5128 110.784C91.2248 111.52 90.8248 112.144 90.3128 112.656C89.8168 113.168 89.2328 113.56 88.5608 113.832C87.8888 114.088 87.1608 114.216 86.3768 114.216C85.5928 114.216 84.8648 114.096 84.1928 113.856C83.5368 113.6 82.9608 113.232 82.4648 112.752C81.9848 112.256 81.6008 111.656 81.3128 110.952C81.0408 110.232 80.9048 109.408 80.9048 108.48C80.9048 107.536 81.0488 106.696 81.3368 105.96C81.6248 105.224 82.0168 104.608 82.5128 104.112C83.0248 103.6 83.6168 103.216 84.2888 102.96C84.9608 102.688 85.6888 102.552 86.4728 102.552C87.2568 102.552 87.9768 102.672 88.6328 102.912C89.3048 103.152 89.8808 103.512 90.3608 103.992C90.8568 104.472 91.2408 105.072 91.5128 105.792C91.8008 106.496 91.9448 107.312 91.9448 108.24ZM89.7368 108.36C89.7368 107.608 89.6408 106.968 89.4488 106.44C89.2568 105.912 89.0008 105.48 88.6808 105.144C88.3768 104.808 88.0248 104.568 87.6248 104.424C87.2248 104.264 86.8168 104.184 86.4008 104.184C85.9848 104.184 85.5768 104.248 85.1768 104.376C84.7768 104.504 84.4248 104.728 84.1208 105.048C83.8168 105.368 83.5688 105.8 83.3768 106.344C83.2008 106.872 83.1128 107.544 83.1128 108.36C83.1128 109.112 83.2088 109.76 83.4008 110.304C83.5928 110.832 83.8408 111.264 84.1448 111.6C84.4648 111.936 84.8248 112.184 85.2248 112.344C85.6248 112.504 86.0328 112.584 86.4488 112.584C86.8648 112.584 87.2728 112.52 87.6728 112.392C88.0728 112.248 88.4248 112.016 88.7288 111.696C89.0328 111.36 89.2728 110.928 89.4488 110.4C89.6408 109.856 89.7368 109.176 89.7368 108.36ZM99.1948 114.216C98.6828 114.216 98.1868 114.144 97.7068 114C97.2428 113.856 96.8428 113.664 96.5068 113.424V119.52H94.4188V102.552H96.1708L96.4828 104.016C96.9148 103.616 97.4028 103.272 97.9468 102.984C98.4908 102.696 99.1308 102.552 99.8668 102.552C101.371 102.552 102.555 103.032 103.419 103.992C104.283 104.952 104.715 106.328 104.715 108.12C104.715 109.176 104.555 110.088 104.235 110.856C103.931 111.624 103.515 112.256 102.987 112.752C102.475 113.248 101.883 113.616 101.211 113.856C100.555 114.096 99.8828 114.216 99.1948 114.216ZM99.4108 104.28C98.7388 104.28 98.1548 104.448 97.6588 104.784C97.1628 105.104 96.7788 105.432 96.5068 105.768V111.792C96.8748 112.064 97.2668 112.264 97.6828 112.392C98.0988 112.52 98.5148 112.584 98.9308 112.584C99.3628 112.584 99.7948 112.512 100.227 112.368C100.659 112.208 101.043 111.952 101.379 111.6C101.715 111.248 101.987 110.792 102.195 110.232C102.403 109.672 102.507 108.984 102.507 108.168C102.507 106.968 102.251 106.024 101.739 105.336C101.243 104.632 100.467 104.28 99.4108 104.28ZM109.377 114H107.265V102.72H108.897L109.209 104.28C109.737 103.752 110.305 103.336 110.913 103.032C111.521 102.712 112.249 102.552 113.097 102.552C113.897 102.552 114.553 102.72 115.065 103.056C115.577 103.376 115.961 103.824 116.217 104.4C116.777 103.808 117.393 103.352 118.065 103.032C118.737 102.712 119.481 102.552 120.297 102.552C121.449 102.552 122.313 102.88 122.889 103.536C123.481 104.176 123.777 105.072 123.777 106.224V114H121.665V106.608C121.665 105.856 121.505 105.28 121.185 104.88C120.865 104.48 120.337 104.28 119.601 104.28C118.513 104.28 117.497 104.768 116.553 105.744C116.569 105.824 116.577 105.904 116.577 105.984C116.577 106.064 116.577 106.144 116.577 106.224V114H114.465V106.608C114.465 105.856 114.305 105.28 113.985 104.88C113.665 104.48 113.137 104.28 112.401 104.28C111.313 104.28 110.305 104.792 109.377 105.816V114ZM136.646 108.6H128.558V108.696C128.558 109.944 128.894 110.904 129.566 111.576C130.254 112.248 131.182 112.584 132.35 112.584C132.958 112.584 133.494 112.536 133.958 112.44C134.438 112.344 134.958 112.184 135.518 111.96L135.95 113.52C135.486 113.728 134.934 113.896 134.294 114.024C133.67 114.152 132.998 114.216 132.278 114.216C131.462 114.216 130.694 114.104 129.974 113.88C129.27 113.656 128.646 113.312 128.102 112.848C127.558 112.368 127.126 111.76 126.806 111.024C126.502 110.288 126.35 109.408 126.35 108.384C126.35 107.504 126.478 106.704 126.734 105.984C127.006 105.264 127.382 104.656 127.862 104.16C128.342 103.648 128.918 103.256 129.59 102.984C130.278 102.696 131.046 102.552 131.894 102.552C132.614 102.552 133.262 102.672 133.838 102.912C134.43 103.152 134.934 103.488 135.35 103.92C135.766 104.352 136.086 104.872 136.31 105.48C136.534 106.088 136.646 106.76 136.646 107.496V108.6ZM134.462 107.088C134.462 106.672 134.406 106.288 134.294 105.936C134.198 105.568 134.038 105.248 133.814 104.976C133.606 104.704 133.334 104.488 132.998 104.328C132.662 104.168 132.254 104.088 131.774 104.088C130.894 104.088 130.174 104.368 129.614 104.928C129.07 105.488 128.734 106.224 128.606 107.136L134.462 107.088ZM141.252 114H139.14V102.72H140.796L141.108 104.28C141.668 103.72 142.252 103.296 142.86 103.008C143.484 102.704 144.196 102.552 144.996 102.552C146.148 102.552 147.052 102.88 147.708 103.536C148.364 104.176 148.692 105.072 148.692 106.224V114H146.58V106.536C146.58 105.848 146.396 105.304 146.028 104.904C145.676 104.488 145.132 104.28 144.396 104.28C143.276 104.28 142.228 104.784 141.252 105.792V114ZM157.771 104.304H154.459V110.856C154.459 111.416 154.595 111.792 154.867 111.984C155.155 112.176 155.523 112.272 155.971 112.272C156.291 112.272 156.643 112.24 157.027 112.176C157.411 112.096 157.747 112.008 158.035 111.912L158.371 113.52C158.051 113.648 157.643 113.76 157.147 113.856C156.651 113.952 156.131 114 155.587 114C154.467 114 153.651 113.76 153.139 113.28C152.627 112.784 152.371 112.072 152.371 111.144V104.304H150.691V102.72H152.371V99.12H154.459V102.72H157.771V104.304Z" fill="black"/>
</svg>
