<svg width="159" height="104" viewBox="0 0 159 104" fill="none" xmlns="http://www.w3.org/2000/svg">
<path opacity="0.6" d="M102.495 37.7757C102.591 37.2938 102.976 37.0047 103.457 36.9084L107.402 36.5229C108.845 36.3302 110 35.0774 110 33.6319V27.4645C110 26.019 108.845 24.7662 107.402 24.5735L103.457 24.188C102.976 24.0916 102.591 23.8025 102.495 23.3207C102.11 21.9716 101.533 20.6224 100.86 19.466C100.667 19.0806 100.667 18.5024 100.956 18.2133L103.457 15.1295C104.42 13.9731 104.323 12.3349 103.265 11.2749L98.8391 6.84202C97.7808 5.78199 96.1451 5.68563 94.9905 6.64929L91.9117 9.15482C91.5268 9.34755 91.0457 9.34755 90.6609 9.15482C89.4101 8.48025 88.1593 7.99842 86.8123 7.51659C86.3312 7.42022 86.0426 7.03476 85.9464 6.55292L85.4653 2.6019C85.2729 1.1564 84.0221 0 82.5789 0H76.4211C74.9779 0 73.7271 1.1564 73.5347 2.6019L73.1498 6.55292C73.0536 7.03476 72.765 7.42022 72.2839 7.51659C70.9369 7.90206 69.5899 8.48025 68.4353 9.15482C68.0505 9.34755 67.4732 9.34755 67.1845 9.05845L64.1057 6.55292C62.9511 5.58926 61.3155 5.68562 60.2571 6.74566L55.8312 11.1785C54.7729 12.2385 54.6767 13.8768 55.6388 15.0332L58.1404 18.1169C58.429 18.5024 58.429 18.9842 58.2366 19.3697C57.5631 20.6224 57.082 21.8752 56.6009 23.2243C56.5047 23.7062 56.1199 23.9953 55.6388 24.0916L51.5978 24.5735C50.1546 24.7662 49 26.019 49 27.4645V33.6319C49 35.0774 50.1546 36.3302 51.5978 36.5229L55.5426 36.9084C56.0237 37.0047 56.4085 37.2938 56.5047 37.7757C56.8896 39.1248 57.4669 40.4739 58.1404 41.6303C58.3328 42.0158 58.3328 42.594 58.0442 42.8831L55.5426 45.9668C54.5804 47.1232 54.6767 48.7615 55.735 49.8215L60.1609 54.2543C61.2192 55.3144 62.8549 55.4107 64.0095 54.4471L67.0883 51.9415C67.4732 51.6524 67.9543 51.6525 68.3391 51.8452C69.5899 52.5197 70.8407 53.0016 72.1877 53.4834C72.6688 53.5798 72.9574 53.9653 73.0536 54.4471L73.4385 58.3981C73.6309 59.8436 74.8817 61 76.3249 61H82.4827C83.9259 61 85.1767 59.8436 85.3691 58.3981L85.7539 54.4471C85.8502 53.9653 86.1388 53.5798 86.6199 53.4834C87.9669 53.098 89.3139 52.5197 90.4685 51.8452C90.8533 51.6525 91.4306 51.6524 91.7192 51.9415L94.7981 54.4471C95.9527 55.4107 97.5883 55.3144 98.6467 54.2543L103.073 49.8215C104.131 48.7615 104.227 47.1232 103.265 45.9668L100.763 42.8831C100.667 42.594 100.667 42.1122 100.86 41.7267C101.533 40.4739 102.014 39.1248 102.495 37.7757ZM79.5 42.3049C73.0536 42.3049 67.7618 37.0047 67.7618 30.5482C67.7618 24.0916 73.0536 18.7915 79.5 18.7915C85.9464 18.7915 91.2382 24.0916 91.2382 30.5482C91.2382 37.0047 85.9464 42.3049 79.5 42.3049Z" fill="white"/>
<path d="M4.17488 82.88V98H1.96688V82.88H4.17488ZM9.81431 98H7.70231V86.72H9.35831L9.67031 88.28C10.2303 87.72 10.8143 87.296 11.4223 87.008C12.0463 86.704 12.7583 86.552 13.5583 86.552C14.7103 86.552 15.6143 86.88 16.2703 87.536C16.9263 88.176 17.2543 89.072 17.2543 90.224V98H15.1423V90.536C15.1423 89.848 14.9583 89.304 14.5903 88.904C14.2383 88.488 13.6943 88.28 12.9583 88.28C11.8383 88.28 10.7903 88.784 9.81431 89.792V98ZM31.0509 82.88C32.1229 82.88 33.1149 83.032 34.0269 83.336C34.9389 83.64 35.7229 84.096 36.3789 84.704C37.0509 85.296 37.5709 86.048 37.9389 86.96C38.3229 87.856 38.5149 88.904 38.5149 90.104C38.5149 91.56 38.2909 92.792 37.8429 93.8C37.3949 94.808 36.7869 95.624 36.0189 96.248C35.2669 96.872 34.3869 97.32 33.3789 97.592C32.3869 97.864 31.3309 98 30.2109 98H26.1309V82.88H31.0509ZM28.3389 96.176H29.9949C30.7629 96.176 31.5149 96.096 32.2509 95.936C32.9869 95.76 33.6349 95.448 34.1949 95C34.7709 94.536 35.2349 93.912 35.5869 93.128C35.9389 92.344 36.1149 91.336 36.1149 90.104C36.1149 89.24 35.9869 88.472 35.7309 87.8C35.4749 87.128 35.1069 86.568 34.6269 86.12C34.1469 85.656 33.5629 85.304 32.8749 85.064C32.2029 84.824 31.4509 84.704 30.6189 84.704H28.3389V96.176ZM50.8414 92.6H42.7534V92.696C42.7534 93.944 43.0894 94.904 43.7614 95.576C44.4494 96.248 45.3774 96.584 46.5454 96.584C47.1534 96.584 47.6894 96.536 48.1534 96.44C48.6334 96.344 49.1534 96.184 49.7134 95.96L50.1454 97.52C49.6814 97.728 49.1294 97.896 48.4894 98.024C47.8654 98.152 47.1934 98.216 46.4734 98.216C45.6574 98.216 44.8894 98.104 44.1694 97.88C43.4654 97.656 42.8414 97.312 42.2974 96.848C41.7534 96.368 41.3214 95.76 41.0014 95.024C40.6974 94.288 40.5454 93.408 40.5454 92.384C40.5454 91.504 40.6734 90.704 40.9294 89.984C41.2014 89.264 41.5774 88.656 42.0574 88.16C42.5374 87.648 43.1134 87.256 43.7854 86.984C44.4734 86.696 45.2414 86.552 46.0894 86.552C46.8094 86.552 47.4574 86.672 48.0334 86.912C48.6254 87.152 49.1294 87.488 49.5454 87.92C49.9614 88.352 50.2814 88.872 50.5054 89.48C50.7294 90.088 50.8414 90.76 50.8414 91.496V92.6ZM48.6574 91.088C48.6574 90.672 48.6014 90.288 48.4894 89.936C48.3934 89.568 48.2334 89.248 48.0094 88.976C47.8014 88.704 47.5294 88.488 47.1934 88.328C46.8574 88.168 46.4494 88.088 45.9694 88.088C45.0894 88.088 44.3694 88.368 43.8094 88.928C43.2654 89.488 42.9294 90.224 42.8014 91.136L48.6574 91.088ZM60.0368 86.72H62.2928L58.0928 98H56.0288L51.7808 86.72H54.0608L56.6048 94.472L57.0368 96.248H57.1328L57.5408 94.496L60.0368 86.72ZM73.5758 92.6H65.4878V92.696C65.4878 93.944 65.8238 94.904 66.4958 95.576C67.1838 96.248 68.1118 96.584 69.2798 96.584C69.8878 96.584 70.4238 96.536 70.8878 96.44C71.3678 96.344 71.8878 96.184 72.4478 95.96L72.8798 97.52C72.4158 97.728 71.8638 97.896 71.2238 98.024C70.5998 98.152 69.9278 98.216 69.2078 98.216C68.3918 98.216 67.6238 98.104 66.9038 97.88C66.1998 97.656 65.5758 97.312 65.0318 96.848C64.4878 96.368 64.0558 95.76 63.7358 95.024C63.4318 94.288 63.2798 93.408 63.2798 92.384C63.2798 91.504 63.4078 90.704 63.6638 89.984C63.9358 89.264 64.3118 88.656 64.7918 88.16C65.2718 87.648 65.8478 87.256 66.5198 86.984C67.2078 86.696 67.9758 86.552 68.8238 86.552C69.5438 86.552 70.1918 86.672 70.7678 86.912C71.3598 87.152 71.8638 87.488 72.2798 87.92C72.6958 88.352 73.0158 88.872 73.2398 89.48C73.4638 90.088 73.5758 90.76 73.5758 91.496V92.6ZM71.3918 91.088C71.3918 90.672 71.3358 90.288 71.2238 89.936C71.1278 89.568 70.9678 89.248 70.7438 88.976C70.5358 88.704 70.2638 88.488 69.9278 88.328C69.5918 88.168 69.1838 88.088 68.7038 88.088C67.8238 88.088 67.1038 88.368 66.5438 88.928C65.9998 89.488 65.6638 90.224 65.5358 91.136L71.3918 91.088ZM76.1655 98V80.96H78.2295V98H76.1655ZM91.9448 92.24C91.9448 93.184 91.8008 94.032 91.5128 94.784C91.2248 95.52 90.8248 96.144 90.3128 96.656C89.8168 97.168 89.2328 97.56 88.5608 97.832C87.8888 98.088 87.1608 98.216 86.3768 98.216C85.5928 98.216 84.8648 98.096 84.1928 97.856C83.5368 97.6 82.9608 97.232 82.4648 96.752C81.9848 96.256 81.6008 95.656 81.3128 94.952C81.0408 94.232 80.9048 93.408 80.9048 92.48C80.9048 91.536 81.0488 90.696 81.3368 89.96C81.6248 89.224 82.0168 88.608 82.5128 88.112C83.0248 87.6 83.6168 87.216 84.2888 86.96C84.9608 86.688 85.6888 86.552 86.4728 86.552C87.2568 86.552 87.9768 86.672 88.6328 86.912C89.3048 87.152 89.8808 87.512 90.3608 87.992C90.8568 88.472 91.2408 89.072 91.5128 89.792C91.8008 90.496 91.9448 91.312 91.9448 92.24ZM89.7368 92.36C89.7368 91.608 89.6408 90.968 89.4488 90.44C89.2568 89.912 89.0008 89.48 88.6808 89.144C88.3768 88.808 88.0248 88.568 87.6248 88.424C87.2248 88.264 86.8168 88.184 86.4008 88.184C85.9848 88.184 85.5768 88.248 85.1768 88.376C84.7768 88.504 84.4248 88.728 84.1208 89.048C83.8168 89.368 83.5688 89.8 83.3768 90.344C83.2008 90.872 83.1128 91.544 83.1128 92.36C83.1128 93.112 83.2088 93.76 83.4008 94.304C83.5928 94.832 83.8408 95.264 84.1448 95.6C84.4648 95.936 84.8248 96.184 85.2248 96.344C85.6248 96.504 86.0328 96.584 86.4488 96.584C86.8648 96.584 87.2728 96.52 87.6728 96.392C88.0728 96.248 88.4248 96.016 88.7288 95.696C89.0328 95.36 89.2728 94.928 89.4488 94.4C89.6408 93.856 89.7368 93.176 89.7368 92.36ZM99.1948 98.216C98.6828 98.216 98.1868 98.144 97.7068 98C97.2428 97.856 96.8428 97.664 96.5068 97.424V103.52H94.4188V86.552H96.1708L96.4828 88.016C96.9148 87.616 97.4028 87.272 97.9468 86.984C98.4908 86.696 99.1308 86.552 99.8668 86.552C101.371 86.552 102.555 87.032 103.419 87.992C104.283 88.952 104.715 90.328 104.715 92.12C104.715 93.176 104.555 94.088 104.235 94.856C103.931 95.624 103.515 96.256 102.987 96.752C102.475 97.248 101.883 97.616 101.211 97.856C100.555 98.096 99.8828 98.216 99.1948 98.216ZM99.4108 88.28C98.7388 88.28 98.1548 88.448 97.6588 88.784C97.1628 89.104 96.7788 89.432 96.5068 89.768V95.792C96.8748 96.064 97.2668 96.264 97.6828 96.392C98.0988 96.52 98.5148 96.584 98.9308 96.584C99.3628 96.584 99.7948 96.512 100.227 96.368C100.659 96.208 101.043 95.952 101.379 95.6C101.715 95.248 101.987 94.792 102.195 94.232C102.403 93.672 102.507 92.984 102.507 92.168C102.507 90.968 102.251 90.024 101.739 89.336C101.243 88.632 100.467 88.28 99.4108 88.28ZM109.377 98H107.265V86.72H108.897L109.209 88.28C109.737 87.752 110.305 87.336 110.913 87.032C111.521 86.712 112.249 86.552 113.097 86.552C113.897 86.552 114.553 86.72 115.065 87.056C115.577 87.376 115.961 87.824 116.217 88.4C116.777 87.808 117.393 87.352 118.065 87.032C118.737 86.712 119.481 86.552 120.297 86.552C121.449 86.552 122.313 86.88 122.889 87.536C123.481 88.176 123.777 89.072 123.777 90.224V98H121.665V90.608C121.665 89.856 121.505 89.28 121.185 88.88C120.865 88.48 120.337 88.28 119.601 88.28C118.513 88.28 117.497 88.768 116.553 89.744C116.569 89.824 116.577 89.904 116.577 89.984C116.577 90.064 116.577 90.144 116.577 90.224V98H114.465V90.608C114.465 89.856 114.305 89.28 113.985 88.88C113.665 88.48 113.137 88.28 112.401 88.28C111.313 88.28 110.305 88.792 109.377 89.816V98ZM136.646 92.6H128.558V92.696C128.558 93.944 128.894 94.904 129.566 95.576C130.254 96.248 131.182 96.584 132.35 96.584C132.958 96.584 133.494 96.536 133.958 96.44C134.438 96.344 134.958 96.184 135.518 95.96L135.95 97.52C135.486 97.728 134.934 97.896 134.294 98.024C133.67 98.152 132.998 98.216 132.278 98.216C131.462 98.216 130.694 98.104 129.974 97.88C129.27 97.656 128.646 97.312 128.102 96.848C127.558 96.368 127.126 95.76 126.806 95.024C126.502 94.288 126.35 93.408 126.35 92.384C126.35 91.504 126.478 90.704 126.734 89.984C127.006 89.264 127.382 88.656 127.862 88.16C128.342 87.648 128.918 87.256 129.59 86.984C130.278 86.696 131.046 86.552 131.894 86.552C132.614 86.552 133.262 86.672 133.838 86.912C134.43 87.152 134.934 87.488 135.35 87.92C135.766 88.352 136.086 88.872 136.31 89.48C136.534 90.088 136.646 90.76 136.646 91.496V92.6ZM134.462 91.088C134.462 90.672 134.406 90.288 134.294 89.936C134.198 89.568 134.038 89.248 133.814 88.976C133.606 88.704 133.334 88.488 132.998 88.328C132.662 88.168 132.254 88.088 131.774 88.088C130.894 88.088 130.174 88.368 129.614 88.928C129.07 89.488 128.734 90.224 128.606 91.136L134.462 91.088ZM141.252 98H139.14V86.72H140.796L141.108 88.28C141.668 87.72 142.252 87.296 142.86 87.008C143.484 86.704 144.196 86.552 144.996 86.552C146.148 86.552 147.052 86.88 147.708 87.536C148.364 88.176 148.692 89.072 148.692 90.224V98H146.58V90.536C146.58 89.848 146.396 89.304 146.028 88.904C145.676 88.488 145.132 88.28 144.396 88.28C143.276 88.28 142.228 88.784 141.252 89.792V98ZM157.771 88.304H154.459V94.856C154.459 95.416 154.595 95.792 154.867 95.984C155.155 96.176 155.523 96.272 155.971 96.272C156.291 96.272 156.643 96.24 157.027 96.176C157.411 96.096 157.747 96.008 158.035 95.912L158.371 97.52C158.051 97.648 157.643 97.76 157.147 97.856C156.651 97.952 156.131 98 155.587 98C154.467 98 153.651 97.76 153.139 97.28C152.627 96.784 152.371 96.072 152.371 95.144V88.304H150.691V86.72H152.371V83.12H154.459V86.72H157.771V88.304Z" fill="white"/>
</svg>
