<svg width="82" height="17" viewBox="0 0 82 17" fill="none" xmlns="http://www.w3.org/2000/svg">
<path d="M0.397312 1.672H2.71731L5.80531 10.232L8.98931 1.672H11.1653L6.58931 13H4.84531L0.397312 1.672ZM16.1302 11.944H16.0822C15.8049 12.3813 15.4529 12.7013 15.0262 12.904C14.5995 13.096 14.1302 13.192 13.6182 13.192C13.2662 13.192 12.9195 13.144 12.5782 13.048C12.2475 12.952 11.9489 12.808 11.6822 12.616C11.4262 12.424 11.2182 12.184 11.0582 11.896C10.8982 11.608 10.8182 11.272 10.8182 10.888C10.8182 10.472 10.8929 10.12 11.0422 9.832C11.1915 9.53333 11.3889 9.288 11.6342 9.096C11.8902 8.89333 12.1835 8.73333 12.5142 8.616C12.8449 8.49867 13.1862 8.41333 13.5382 8.36C13.9009 8.296 14.2635 8.25867 14.6262 8.248C14.9889 8.22667 15.3302 8.216 15.6502 8.216H16.1302V8.008C16.1302 7.528 15.9649 7.17067 15.6342 6.936C15.3035 6.69067 14.8822 6.568 14.3702 6.568C13.9649 6.568 13.5862 6.64267 13.2342 6.792C12.8822 6.93067 12.5782 7.12267 12.3222 7.368L11.3142 6.36C11.7409 5.92267 12.2369 5.608 12.8022 5.416C13.3782 5.224 13.9702 5.128 14.5782 5.128C15.1222 5.128 15.5809 5.192 15.9542 5.32C16.3275 5.43733 16.6369 5.592 16.8822 5.784C17.1275 5.976 17.3142 6.2 17.4422 6.456C17.5809 6.70133 17.6769 6.952 17.7302 7.208C17.7942 7.464 17.8315 7.71467 17.8422 7.96C17.8529 8.19467 17.8582 8.40267 17.8582 8.584V13H16.1302V11.944ZM16.0182 9.56H15.6182C15.3515 9.56 15.0529 9.57067 14.7222 9.592C14.3915 9.61333 14.0769 9.66667 13.7782 9.752C13.4902 9.82667 13.2449 9.944 13.0422 10.104C12.8395 10.2533 12.7382 10.4667 12.7382 10.744C12.7382 10.9253 12.7755 11.08 12.8502 11.208C12.9355 11.3253 13.0422 11.4267 13.1702 11.512C13.2982 11.5973 13.4422 11.6613 13.6022 11.704C13.7622 11.736 13.9222 11.752 14.0822 11.752C14.7435 11.752 15.2289 11.5973 15.5382 11.288C15.8582 10.968 16.0182 10.536 16.0182 9.992V9.56ZM19.9559 0.903999H21.8759V13H19.9559V0.903999ZM25.6162 9.832C25.6802 10.408 25.9042 10.856 26.2882 11.176C26.6722 11.496 27.1362 11.656 27.6802 11.656C28.1602 11.656 28.5602 11.56 28.8802 11.368C29.2109 11.1653 29.4989 10.9147 29.7442 10.616L31.1202 11.656C30.6722 12.2107 30.1709 12.6053 29.6162 12.84C29.0615 13.0747 28.4802 13.192 27.8722 13.192C27.2962 13.192 26.7522 13.096 26.2402 12.904C25.7282 12.712 25.2855 12.44 24.9122 12.088C24.5389 11.736 24.2402 11.3147 24.0162 10.824C23.8029 10.3227 23.6962 9.768 23.6962 9.16C23.6962 8.552 23.8029 8.00267 24.0162 7.512C24.2402 7.01067 24.5389 6.584 24.9122 6.232C25.2855 5.88 25.7282 5.608 26.2402 5.416C26.7522 5.224 27.2962 5.128 27.8722 5.128C28.4055 5.128 28.8909 5.224 29.3282 5.416C29.7762 5.59733 30.1549 5.864 30.4642 6.216C30.7842 6.568 31.0295 7.00533 31.2002 7.528C31.3815 8.04 31.4722 8.632 31.4722 9.304V9.832H25.6162ZM29.5522 8.392C29.5415 7.82667 29.3655 7.384 29.0242 7.064C28.6829 6.73333 28.2082 6.568 27.6002 6.568C27.0242 6.568 26.5655 6.73333 26.2242 7.064C25.8935 7.39467 25.6909 7.83733 25.6162 8.392H29.5522ZM33.2677 5.32H35.1877V6.536H35.2197C35.433 6.088 35.737 5.74133 36.1317 5.496C36.5264 5.25067 36.9797 5.128 37.4917 5.128C37.609 5.128 37.721 5.13867 37.8277 5.16C37.945 5.18133 38.0624 5.208 38.1797 5.24V7.096C38.0197 7.05333 37.8597 7.02133 37.6997 7C37.5504 6.968 37.401 6.952 37.2517 6.952C36.8037 6.952 36.441 7.03733 36.1637 7.208C35.897 7.368 35.689 7.55467 35.5397 7.768C35.401 7.98133 35.305 8.19467 35.2517 8.408C35.209 8.62133 35.1877 8.78133 35.1877 8.888V13H33.2677V5.32ZM38.4464 5.32H40.5584L42.7024 10.648H42.7344L44.6544 5.32H46.6544L43.0224 14.648C42.8838 15.0107 42.7291 15.3253 42.5584 15.592C42.3984 15.8693 42.2064 16.0987 41.9824 16.28C41.7584 16.472 41.4918 16.6107 41.1824 16.696C40.8838 16.792 40.5211 16.84 40.0944 16.84C39.5931 16.84 39.1024 16.776 38.6224 16.648L38.8624 14.92C39.0118 14.9733 39.1664 15.016 39.3264 15.048C39.4971 15.0907 39.6678 15.112 39.8384 15.112C40.0731 15.112 40.2704 15.0907 40.4304 15.048C40.5904 15.0053 40.7238 14.936 40.8304 14.84C40.9478 14.7547 41.0438 14.6373 41.1184 14.488C41.1931 14.3493 41.2731 14.1787 41.3584 13.976L41.7264 13.064L38.4464 5.32ZM52.6937 1.672H60.0057V3.496H54.7097V6.472H59.7017V8.296H54.7097V13H52.6937V1.672ZM66.5052 11.944H66.4572C66.1799 12.3813 65.8279 12.7013 65.4012 12.904C64.9745 13.096 64.5052 13.192 63.9932 13.192C63.6412 13.192 63.2945 13.144 62.9532 13.048C62.6225 12.952 62.3239 12.808 62.0572 12.616C61.8012 12.424 61.5932 12.184 61.4332 11.896C61.2732 11.608 61.1932 11.272 61.1932 10.888C61.1932 10.472 61.2679 10.12 61.4172 9.832C61.5665 9.53333 61.7639 9.288 62.0092 9.096C62.2652 8.89333 62.5585 8.73333 62.8892 8.616C63.2199 8.49867 63.5612 8.41333 63.9132 8.36C64.2759 8.296 64.6385 8.25867 65.0012 8.248C65.3639 8.22667 65.7052 8.216 66.0252 8.216H66.5052V8.008C66.5052 7.528 66.3399 7.17067 66.0092 6.936C65.6785 6.69067 65.2572 6.568 64.7452 6.568C64.3399 6.568 63.9612 6.64267 63.6092 6.792C63.2572 6.93067 62.9532 7.12267 62.6972 7.368L61.6892 6.36C62.1159 5.92267 62.6119 5.608 63.1772 5.416C63.7532 5.224 64.3452 5.128 64.9532 5.128C65.4972 5.128 65.9559 5.192 66.3292 5.32C66.7025 5.43733 67.0119 5.592 67.2572 5.784C67.5025 5.976 67.6892 6.2 67.8172 6.456C67.9559 6.70133 68.0519 6.952 68.1052 7.208C68.1692 7.464 68.2065 7.71467 68.2172 7.96C68.2279 8.19467 68.2332 8.40267 68.2332 8.584V13H66.5052V11.944ZM66.3932 9.56H65.9932C65.7265 9.56 65.4279 9.57067 65.0972 9.592C64.7665 9.61333 64.4519 9.66667 64.1532 9.752C63.8652 9.82667 63.6199 9.944 63.4172 10.104C63.2145 10.2533 63.1132 10.4667 63.1132 10.744C63.1132 10.9253 63.1505 11.08 63.2252 11.208C63.3105 11.3253 63.4172 11.4267 63.5452 11.512C63.6732 11.5973 63.8172 11.6613 63.9772 11.704C64.1372 11.736 64.2972 11.752 64.4572 11.752C65.1185 11.752 65.6039 11.5973 65.9132 11.288C66.2332 10.968 66.3932 10.536 66.3932 9.992V9.56ZM70.3309 5.32H72.2509V13H70.3309V5.32ZM70.0589 2.712C70.0589 2.40267 70.1709 2.136 70.3949 1.912C70.6296 1.67733 70.9229 1.56 71.2749 1.56C71.6269 1.56 71.9203 1.672 72.1549 1.896C72.4003 2.10933 72.5229 2.38133 72.5229 2.712C72.5229 3.04267 72.4003 3.32 72.1549 3.544C71.9203 3.75733 71.6269 3.864 71.2749 3.864C70.9229 3.864 70.6296 3.752 70.3949 3.528C70.1709 3.29333 70.0589 3.02133 70.0589 2.712ZM74.4552 5.32H76.2792V6.552H76.3112C76.4925 6.168 76.7699 5.83733 77.1432 5.56C77.5165 5.272 78.0232 5.128 78.6632 5.128C79.1752 5.128 79.6072 5.21333 79.9592 5.384C80.3219 5.55467 80.6152 5.77867 80.8392 6.056C81.0632 6.33333 81.2232 6.65333 81.3192 7.016C81.4152 7.37867 81.4632 7.75733 81.4632 8.152V13H79.5432V9.112C79.5432 8.89867 79.5325 8.664 79.5112 8.408C79.4899 8.14133 79.4312 7.896 79.3352 7.672C79.2499 7.43733 79.1112 7.24533 78.9192 7.096C78.7272 6.936 78.4659 6.856 78.1352 6.856C77.8152 6.856 77.5432 6.90933 77.3192 7.016C77.1059 7.12267 76.9245 7.26667 76.7752 7.448C76.6365 7.62933 76.5352 7.83733 76.4712 8.072C76.4072 8.30667 76.3752 8.552 76.3752 8.808V13H74.4552V5.32Z" fill="white"/>
</svg>
