<svg width="52" height="14" viewBox="0 0 52 14" fill="none" xmlns="http://www.w3.org/2000/svg">
<path fill-rule="evenodd" clip-rule="evenodd" d="M35.8877 5.93091C35.6314 5.93091 35.4269 5.79345 35.4269 5.51824C35.4269 5.11325 35.8357 4.55957 36.2593 4.55957C36.5266 4.55957 36.6531 4.80108 36.6531 5.04644C36.6534 5.48868 36.3595 5.93091 35.8877 5.93091Z" fill="white" fill-opacity="0.6"/>
<path fill-rule="evenodd" clip-rule="evenodd" d="M3.60058 13.8667C5.65755 13.8667 7.91542 12.5497 9.55194 11.4364C9.46643 11.712 9.38477 11.9948 9.38477 12.2881C9.38477 13.1896 10.1581 13.8086 11.0626 13.8234C10.7016 13.6323 10.5092 13.2141 10.5092 12.772C10.5092 12.2331 10.7061 11.7616 10.9402 11.2782C11.5645 10.0036 12.5418 8.82554 13.6903 7.98571C14.259 7.56565 14.8686 7.2053 15.5931 7.2053C16.2585 7.2053 16.7898 7.6363 16.7898 8.31266C16.7898 9.24531 16.0466 10.3527 15.5 11.0849C15.2546 11.4139 14.9496 11.7863 14.6038 12.1507C14.5012 12.3903 14.421 12.638 14.421 12.9C14.421 13.4515 14.9083 13.7018 15.4326 13.7018C17.3854 13.7018 19.4684 11.755 20.7555 10.4446L18.8435 13.6591H20.1454L22.8311 9.16329C23.1397 8.64364 23.4856 8.13936 24.025 7.82415C24.5605 7.51293 25.2411 7.21224 25.8811 7.21224C26.1003 7.21224 26.4278 7.36628 26.4278 7.61686C26.4278 7.69203 26.4018 7.7672 26.3758 7.83525C26.2829 7.78514 26.1932 7.75296 26.0855 7.75296C25.7097 7.75296 25.3713 8.04653 25.3713 8.41499C25.3713 8.78373 25.6802 8.99501 26.0334 8.99501C26.614 8.99501 27.127 8.6126 27.5623 8.28657C28.0643 7.90808 28.5483 7.50789 29.0127 7.08724L26.4278 11.4543C26.396 11.5079 26.3626 11.5626 26.3286 11.6182C26.108 11.9789 25.8621 12.381 25.8621 12.7969C25.8621 13.3729 26.4275 13.6739 26.9592 13.6739C27.7966 13.6739 28.5739 13.2553 29.2396 12.8003C30.4486 11.9771 31.5049 10.9637 32.5017 9.9116L31.4824 11.6334C31.4452 11.6959 31.4056 11.759 31.3654 11.8228C31.1731 12.1289 30.9693 12.4531 30.9693 12.8114C30.9693 13.4521 31.475 13.6628 32.0928 13.6628C33.5955 13.6628 35.1139 12.2961 36.2304 11.2911C36.3298 11.2015 36.4261 11.1149 36.5189 11.0323C36.5158 11.0447 36.5127 11.057 36.5095 11.0694C36.4306 11.3825 36.3514 11.6963 36.3514 12.0201C36.3514 13.1554 37.3598 13.7454 38.4498 13.7454C39.5875 13.7454 40.6624 13.2482 41.6149 12.7004C42.5413 12.167 43.4191 11.5514 44.2449 10.8817C44.9811 10.2838 45.6359 9.61803 46.2605 8.90959L43.4005 13.6597H44.6689L46.4321 10.7493C47.1348 9.58585 48.0645 8.52632 49.277 7.83184C49.8125 7.52403 50.4564 7.22335 51.0961 7.22335C51.3751 7.22335 51.5461 7.33098 51.6612 7.55991C51.5949 7.55279 51.5236 7.54567 51.4532 7.54567C51.1002 7.54567 50.6904 7.81447 50.6904 8.18293C50.6904 8.41528 50.9325 8.63396 51.1706 8.63396C51.6242 8.63396 52 8.15445 52 7.74271C52 7.29909 51.6467 7.03057 51.1967 7.03057C49.8241 7.03057 48.6447 7.89334 47.6778 8.73817L48.5775 7.09863H47.3431L47.049 7.60319C46.8475 7.95253 46.5638 8.27235 46.294 8.57651C46.2652 8.60903 46.2365 8.64136 46.2081 8.67354C45.4335 9.54692 44.5781 10.3509 43.6526 11.0756C42.5593 11.9202 40.3535 13.4202 38.8433 13.4202C38.2146 13.4202 37.6604 12.9256 37.6604 12.314C37.6604 11.8775 37.843 11.4765 38.0211 11.0862C38.0692 11.0859 38.1172 11.0854 38.165 11.0847C38.9253 9.81116 40.402 7.36136 41.8819 7.36108C42.2162 7.36108 42.6141 7.51717 42.6141 7.89998C42.6141 8.63221 41.912 9.50575 41.4172 9.98139C41.161 10.2278 40.8667 10.4533 40.548 10.6452C41.3857 10.3445 42.2044 9.91088 42.8013 9.29627C43.162 8.92354 43.5342 8.41528 43.5342 7.87854C43.5342 7.1664 42.7898 6.84037 42.1392 6.84037C40.1195 6.84037 38.1332 9.01295 36.9168 10.3772L34.7146 12.2203C34.1832 12.6645 33.3831 13.2479 32.6615 13.2479C32.4197 13.2479 32.2378 13.0401 32.2378 12.8148C32.2378 12.6035 32.3085 12.3963 32.4165 12.2137L35.4475 7.09834H34.224L33.6624 7.98247C33.458 8.3048 33.2532 8.62684 33.0227 8.93493C32.5911 9.51096 32.0813 10.0338 31.5572 10.5349C30.832 11.2297 30.0734 11.9205 29.2435 12.4965C28.7934 12.8117 28.2916 13.1554 27.7149 13.1554C27.4584 13.1554 27.0897 13.0224 27.0897 12.7288C27.0897 12.5002 27.2128 12.271 27.3279 12.0742L30.393 6.96224H32.2197L32.3197 6.73302H30.4826L32.0632 4.08064H30.8246L29.9092 5.58408C29.2361 6.68319 28.2173 7.62796 27.0897 8.29739C27.0719 8.30789 27.0537 8.31879 27.035 8.32992C26.8631 8.43265 26.6587 8.5548 26.4574 8.5548C26.398 8.5548 26.35 8.53344 26.3015 8.50127C26.5506 8.29711 26.7367 8.01436 26.7367 7.68491C26.7367 7.21964 26.3015 7.0263 25.8701 7.0263C25.089 7.0263 24.3413 7.34123 23.683 7.72079L24.0436 7.09777H22.7196L21.9349 8.48675C21.0907 9.98677 19.8297 11.1787 18.4423 12.2169C18.4304 12.2259 18.4184 12.2349 18.4062 12.2441C17.8711 12.6484 17.087 13.2408 16.3779 13.2408C16.0989 13.2408 15.7939 13.0691 15.7939 12.7721C15.7939 12.5141 15.924 12.2567 16.0542 12.0381L18.9778 7.09834H17.7245L17.0588 8.2151C17.0289 7.23787 16.5454 6.75466 15.4965 6.75466C13.5064 6.75466 11.6539 8.2581 10.5121 9.7006C10.144 10.1627 9.87238 10.6599 9.6268 11.1898C8.09798 12.1742 5.92562 13.5628 4.04352 13.5628C2.3064 13.5628 1.37289 12.4711 1.37289 10.8356C1.37289 9.46427 1.84157 8.0827 2.45523 6.86201C3.73846 4.29904 5.86615 2.02964 8.53677 0.769659C9.27322 0.422274 10.1138 0.178818 10.9396 0.178818C12.0483 0.178818 13.6848 0.765956 13.6848 2.02594C13.6848 2.28392 13.625 2.52709 13.5508 2.77054L13.7366 2.88871C14.157 1.78619 14.6071 1.07376 15.6299 0.408035L15.4438 0.221814C15.0089 0.529905 14.529 0.844831 13.9635 0.844831C13.8035 0.844831 13.6286 0.830593 13.4836 0.75172L12.725 0.35422C12.2004 0.0751729 11.5681 0 10.9766 0C10.5141 0.00172655 10.0534 0.0557236 9.60402 0.16088C7.95241 0.547275 6.37921 1.34199 5.06993 2.38016C3.37749 3.72585 1.93802 5.42263 0.955993 7.31275C0.450036 8.28657 0 9.36034 0 10.4666C0 12.503 1.50249 13.8667 3.60058 13.8667Z" fill="white" fill-opacity="0.6"/>
</svg>
