<svg width="49" height="15" viewBox="0 0 49 15" fill="none" xmlns="http://www.w3.org/2000/svg">
<path fill-rule="evenodd" clip-rule="evenodd" d="M0.148523 0.472472H6.50978C11.9793 0.472472 14.1195 3.75246 14.1195 7.22466C14.1195 10.7575 11.3747 13.9059 6.15308 13.9059H0.15867C0.0495076 13.9059 0.00984001 13.8349 0.00984001 13.7743C0.00984001 13.7033 0.0793351 13.6427 0.17835 13.6427H1.29796C1.64482 13.6427 1.87268 13.43 1.87268 13.0352V1.36322C1.87268 1.06986 1.73399 0.745726 1.27828 0.745726H0.138683C0.0495076 0.745726 0 0.685107 0 0.614124C0 0.553506 0.01968 0.472472 0.148523 0.472472ZM4.43908 13.6628H6.12326C10.2748 13.6628 11.781 10.4132 11.781 7.15368C11.781 3.89411 10.1856 0.735675 6.67829 0.735675H4.38926C4.15156 0.735675 4.13188 0.938259 4.13188 1.02934L4.12174 13.278C4.12174 13.5717 4.25058 13.6628 4.43908 13.6628ZM14.7536 0.482523H20.1237C20.2428 0.482523 20.2923 0.543455 20.2923 0.614124C20.2923 0.685107 20.2428 0.735675 20.1536 0.735675H19.133C18.7566 0.735675 18.5484 0.958361 18.5484 1.29255V13.0958C18.5484 13.5616 18.9546 13.6527 19.1032 13.6527H20.1437C20.2824 13.6527 20.3021 13.7337 20.3021 13.8148C20.3021 13.8955 20.1932 13.9059 20.1139 13.9059H14.7237C14.5752 13.9059 14.5851 13.8349 14.5851 13.7944C14.5851 13.7538 14.5949 13.6527 14.7237 13.6527H15.8335C16.1505 13.6527 16.3289 13.2884 16.3289 13.0453V1.4141C16.3289 0.907793 16.0814 0.725624 15.8237 0.725624H14.7041C14.6149 0.725624 14.5654 0.675057 14.5654 0.594023C14.5654 0.512989 14.6545 0.472472 14.7536 0.472472V0.482523ZM20.7778 7.19419C20.7778 3.33724 23.4927 0.199219 27.8525 0.199219C32.222 0.199219 34.9268 3.3476 34.9268 7.20424C34.9268 11.0612 32.1922 14.1992 27.8525 14.1992C23.6016 14.1992 20.7778 11.0512 20.7778 7.19419ZM23.1757 7.19419C23.1757 10.9095 24.8104 13.926 27.8525 13.9159C30.9933 13.9159 32.5292 10.9095 32.5292 7.19419C32.5292 3.4792 30.8448 0.472472 27.8525 0.472472C24.8005 0.472472 23.1757 3.4792 23.1757 7.19419ZM48.7985 13.8248C49.066 13.7944 49.0365 14.0576 48.8876 14.1081C48.6499 14.1691 48.3923 14.1791 48.0159 14.1791C47.134 14.1791 45.5783 13.9869 44.3895 12.4683C43.0021 10.6969 42.7942 7.59905 40 7.59905H39.4154V13.0958C39.4154 13.5516 39.8216 13.6527 39.9701 13.6527H41.1097C41.2186 13.6527 41.2684 13.7033 41.2684 13.7843C41.2684 13.8653 41.1989 13.9059 41.1196 13.9059H35.472C35.3727 13.9059 35.333 13.8148 35.333 13.7743C35.333 13.7337 35.3727 13.6527 35.472 13.6527H36.6707C36.988 13.6527 37.1663 13.2884 37.1663 13.0453V1.4141C37.1663 0.907793 36.9185 0.725624 36.6608 0.725624H35.4422C35.3727 0.725624 35.3035 0.675057 35.3035 0.594023C35.3035 0.512989 35.3727 0.472472 35.4422 0.472472H40.7629C45.3803 0.472472 46.6386 2.05169 46.6386 4.13721C46.6386 6.7083 44.1515 7.43729 41.932 7.5689C43.2798 7.77117 44.6469 8.79351 45.2911 9.79576C46.153 11.1523 47.0943 14.007 48.7985 13.8248ZM39.9803 0.725624C39.6036 0.725624 39.3957 0.94831 39.3957 1.29255V7.33585H40.5944C42.467 7.33585 44.4885 6.49567 44.4885 4.00561C44.4885 1.29255 42.2097 0.725624 40.8025 0.725624H39.9803Z" fill="white" fill-opacity="0.6"/>
</svg>
