<svg width="63" height="14" viewBox="0 0 63 14" fill="none" xmlns="http://www.w3.org/2000/svg">
<path d="M5.7173 1.13924H3.71703V12.6929H5.49679C8.23732 12.6295 9.74933 12.5185 10.3006 9.12693H10.4108V12.994H0V12.677H2.00027V1.13924H0.0315022V0.822266H5.7173V1.13924Z" fill="white" fill-opacity="0.6"/>
<path d="M21.6084 12.6604L17.1511 0.599609H16.9148L12.5205 12.6604H11.04V12.9774H14.6941V12.6604H12.9301L14.1901 9.07861H18.6158L19.8601 12.6604H18.1433V12.9774H22.9314V12.6604H21.6084ZM14.3161 8.77748L16.4108 2.86596L18.4741 8.77748H14.3161Z" fill="white" fill-opacity="0.6"/>
<path d="M37.8633 12.6609V1.15486H39.0445V0.837891H36.0047L32.902 10.3629L29.9252 0.837891H26.6492V1.13901H26.8067C28.2399 1.13901 28.0037 1.01223 28.0037 1.55108L27.9879 12.6609H26.6807V12.9779H29.8149V12.6609H28.3974V1.04392L32.1932 13.0889L32.272 13.1681L36.2882 1.01222V12.6292H34.981V12.9462H39.076V12.6292H37.879V12.6609H37.8633Z" fill="white" fill-opacity="0.6"/>
<path d="M51.5341 12.6609H52.8571V1.15486H51.5341V0.837891H57.4089C59.8501 0.837891 61.2204 1.8522 61.2204 3.70649C61.2204 5.49738 59.8186 6.63848 57.3616 6.81281C59.2044 6.92375 60.2596 7.47845 60.6376 8.71464C60.8109 9.20595 60.8266 9.72895 60.8266 10.2044C60.8266 10.3787 60.8266 10.5214 60.8266 10.6799C60.8266 11.0444 60.8266 11.3931 60.9369 11.71C61.1574 12.4866 61.5354 12.8353 62.3386 12.8353C62.5276 12.8353 62.6536 12.756 63.0001 12.6451V12.9462C62.6536 13.073 62.4489 13.1998 61.9921 13.1998C59.5509 13.1998 59.0311 12.0587 59.0311 9.57047C59.0311 7.82712 58.7791 6.95545 56.7316 6.95545H54.5738V12.6609H56.5741V12.9779H51.5498V12.6609H51.5341ZM54.5581 1.15486V6.65433H56.4481C58.7634 6.65433 59.3619 6.06793 59.3619 3.73818C59.3619 1.78881 58.7634 1.15486 56.7473 1.15486H54.5581Z" fill="white" fill-opacity="0.6"/>
<path d="M40.4148 12.6609H41.7693V1.15486H40.3676V0.837891H50.0696L50.0539 4.19779H49.9909C49.5184 1.44014 48.4474 1.15486 46.1951 1.15486H43.4861V6.71772H44.4153C45.8958 6.71772 46.9511 6.02038 46.9826 4.26119H47.0456V9.45953H46.9826C46.8566 7.68448 46.1478 7.01884 44.5571 7.01884H43.4703V12.6451H46.3368C48.6049 12.6451 49.9436 12.3281 50.3531 9.28519H50.4161V12.9779H40.4148V12.6609Z" fill="white" fill-opacity="0.6"/>
</svg>
