<svg width="114" height="11" viewBox="0 0 114 11" fill="none" xmlns="http://www.w3.org/2000/svg">
<path d="M0.785371 0.499999H2.94537L6.03537 8.885L9.14037 0.499999H11.2404L7.02537 11H4.94037L0.785371 0.499999ZM16.6162 0.499999H18.6712L23.2162 11H21.0712L17.5762 2.525L14.0962 11H11.9962L16.6162 0.499999ZM14.4112 7.07H20.6662V8.705H14.4112V7.07ZM26.0073 0.499999H28.0173V9.29H32.5473V11H26.0073V0.499999ZM35.6225 0.499999H43.3175V2.18H37.6325V4.895H42.7325V6.56H37.6325V9.32H43.4975V11H35.6225V0.499999ZM51.4195 0.499999C52.7795 0.499999 53.8295 0.814999 54.5695 1.445C55.3095 2.075 55.6795 2.96 55.6795 4.1C55.6795 5.29 55.3095 6.215 54.5695 6.875C53.8295 7.535 52.7795 7.865 51.4195 7.865H49.0495V11H47.0395V0.499999H51.4195ZM51.4195 6.2C52.1695 6.2 52.7495 6.03 53.1595 5.69C53.5695 5.35 53.7745 4.835 53.7745 4.145C53.7745 3.485 53.5695 2.995 53.1595 2.675C52.7495 2.345 52.1695 2.18 51.4195 2.18H49.0495V6.2H51.4195ZM51.3445 7.1H53.3095L55.8895 11H53.6095L51.3445 7.1ZM57.9572 0.499999H59.9822L62.8622 5.525L65.6672 0.499999H67.7072L62.9972 9.05H62.7122L57.9572 0.499999ZM61.8722 6.53H63.8672V11H61.8722V6.53ZM76.0463 0.499999H83.2913V2.18H78.0563V5.105H82.8113V6.77H78.0563V11H76.0463V0.499999ZM86.2915 0.499999H88.3015V11H86.2915V0.499999ZM92.3764 0.499999H94.2814L100.221 8.57L99.6964 8.75V0.499999H101.646V11H99.7264L93.8164 2.945L94.3414 2.765V11H92.3764V0.499999ZM105.727 0.499999H113.422V2.18H107.737V4.895H112.837V6.56H107.737V9.32H113.602V11H105.727V0.499999Z" fill="white"/>
</svg>
