<svg width="130" height="14" viewBox="0 0 130 14" fill="none" xmlns="http://www.w3.org/2000/svg">
<path d="M0.250938 -9.53674e-07H3.13094L7.25094 11.18L11.3909 -9.53674e-07H14.1909L8.57094 14H5.79094L0.250938 -9.53674e-07ZM19.1588 -9.53674e-07H21.8988L27.9588 14H25.0988L20.4388 2.7L15.7988 14H12.9988L19.1588 -9.53674e-07ZM16.2188 8.76H24.5588V10.94H16.2188V8.76ZM29.4802 -9.53674e-07H32.1602V11.72H38.2002V14H29.4802V-9.53674e-07ZM40.1005 -9.53674e-07H50.3605V2.24H42.7805V5.86H49.5805V8.08H42.7805V11.76H50.6005V14H40.1005V-9.53674e-07ZM58.9631 -9.53674e-07C60.7765 -9.53674e-07 62.1765 0.419999 63.1631 1.26C64.1498 2.1 64.6431 3.28 64.6431 4.8C64.6431 6.38667 64.1498 7.62 63.1631 8.5C62.1765 9.38 60.7765 9.82 58.9631 9.82H55.8031V14H53.1231V-9.53674e-07H58.9631ZM58.9631 7.6C59.9631 7.6 60.7365 7.37333 61.2831 6.92C61.8298 6.46667 62.1031 5.78 62.1031 4.86C62.1031 3.98 61.8298 3.32667 61.2831 2.9C60.7365 2.46 59.9631 2.24 58.9631 2.24H55.8031V7.6H58.9631ZM58.8631 8.8H61.4831L64.9231 14H61.8831L58.8631 8.8ZM65.48 -9.53674e-07H68.18L72.02 6.7L75.76 -9.53674e-07H78.48L72.2 11.4H71.82L65.48 -9.53674e-07ZM70.7 8.04H73.36V14H70.7V8.04ZM85.1989 -9.53674e-07H94.8589V2.24H87.8789V6.14H94.2189V8.36H87.8789V14H85.1989V-9.53674e-07ZM100.474 -9.53674e-07H103.214L109.274 14H106.414L101.754 2.7L97.1136 14H94.3136L100.474 -9.53674e-07ZM97.5336 8.76H105.874V10.94H97.5336V8.76ZM110.795 -9.53674e-07H113.475V14H110.795V-9.53674e-07ZM116.708 -9.53674e-07H119.248L127.168 10.76L126.468 11V-9.53674e-07H129.068V14H126.508L118.628 3.26L119.328 3.02V14H116.708V-9.53674e-07Z" fill="white"/>
</svg>
